<svg xmlns="http://www.w3.org/2000/svg" viewBox="0 0 1000 750" preserveAspectRatio="xMidYMid slice">
<defs>
<radialGradient id="g1" cx="20%" cy="16%" r="75%"><stop offset="0%" stop-color="#7b7bff" stop-opacity="0.72"/><stop offset="42%" stop-color="#7b7bff" stop-opacity="0.20"/><stop offset="100%" stop-color="#7b7bff" stop-opacity="0"/></radialGradient>
<radialGradient id="g2" cx="86%" cy="88%" r="72%"><stop offset="0%" stop-color="#22d3ee" stop-opacity="0.60"/><stop offset="45%" stop-color="#22d3ee" stop-opacity="0.14"/><stop offset="100%" stop-color="#22d3ee" stop-opacity="0"/></radialGradient>
<linearGradient id="bg" x1="0" y1="0" x2="1" y2="1"><stop offset="0%" stop-color="#0c1830"/><stop offset="55%" stop-color="#091324"/><stop offset="100%" stop-color="#070d18"/></linearGradient>
<filter id="gl"><feGaussianBlur stdDeviation="7"/></filter>
<pattern id="grid" width="44" height="44" patternUnits="userSpaceOnUse"><path d="M44 0H0V44" fill="none" stroke="#7fc8ff" stroke-opacity="0.06"/></pattern>
</defs>
<rect width="1000" height="750" fill="url(#bg)"/>
<rect width="1000" height="750" fill="url(#grid)"/>
<rect width="1000" height="750" fill="url(#g1)"/>
<rect width="1000" height="750" fill="url(#g2)"/>
<line x1="97" y1="330" x2="261" y2="338" stroke="#7b7bff" stroke-opacity="0.09" stroke-width="1.1"/>
<line x1="97" y1="330" x2="63" y2="387" stroke="#7b7bff" stroke-opacity="0.34" stroke-width="1.1"/>
<line x1="97" y1="330" x2="194" y2="229" stroke="#7b7bff" stroke-opacity="0.15" stroke-width="1.1"/>
<line x1="261" y1="338" x2="329" y2="363" stroke="#7b7bff" stroke-opacity="0.32" stroke-width="1.1"/>
<line x1="261" y1="338" x2="318" y2="231" stroke="#7b7bff" stroke-opacity="0.20" stroke-width="1.1"/>
<line x1="261" y1="338" x2="322" y2="308" stroke="#7b7bff" stroke-opacity="0.33" stroke-width="1.1"/>
<line x1="261" y1="338" x2="431" y2="360" stroke="#7b7bff" stroke-opacity="0.07" stroke-width="1.1"/>
<line x1="261" y1="338" x2="379" y2="283" stroke="#7b7bff" stroke-opacity="0.18" stroke-width="1.1"/>
<line x1="261" y1="338" x2="194" y2="229" stroke="#7b7bff" stroke-opacity="0.18" stroke-width="1.1"/>
<line x1="271" y1="624" x2="378" y2="637" stroke="#7b7bff" stroke-opacity="0.23" stroke-width="1.1"/>
<line x1="271" y1="624" x2="217" y2="666" stroke="#7b7bff" stroke-opacity="0.33" stroke-width="1.1"/>
<line x1="271" y1="624" x2="124" y2="615" stroke="#7b7bff" stroke-opacity="0.13" stroke-width="1.1"/>
<line x1="271" y1="624" x2="203" y2="663" stroke="#7b7bff" stroke-opacity="0.30" stroke-width="1.1"/>
<line x1="271" y1="624" x2="296" y2="650" stroke="#7b7bff" stroke-opacity="0.41" stroke-width="1.1"/>
<line x1="557" y1="544" x2="505" y2="395" stroke="#7b7bff" stroke-opacity="0.11" stroke-width="1.1"/>
<line x1="557" y1="544" x2="697" y2="511" stroke="#7b7bff" stroke-opacity="0.14" stroke-width="1.1"/>
<line x1="557" y1="544" x2="644" y2="417" stroke="#7b7bff" stroke-opacity="0.11" stroke-width="1.1"/>
<line x1="557" y1="544" x2="577" y2="346" stroke="#7b7bff" stroke-opacity="0.06" stroke-width="1.1"/>
<line x1="901" y1="371" x2="714" y2="346" stroke="#7b7bff" stroke-opacity="0.06" stroke-width="1.1"/>
<line x1="901" y1="371" x2="776" y2="310" stroke="#7b7bff" stroke-opacity="0.15" stroke-width="1.1"/>
<line x1="901" y1="371" x2="844" y2="267" stroke="#7b7bff" stroke-opacity="0.20" stroke-width="1.1"/>
<line x1="470" y1="118" x2="372" y2="145" stroke="#7b7bff" stroke-opacity="0.24" stroke-width="1.1"/>
<line x1="470" y1="118" x2="318" y2="231" stroke="#7b7bff" stroke-opacity="0.06" stroke-width="1.1"/>
<line x1="470" y1="118" x2="475" y2="316" stroke="#7b7bff" stroke-opacity="0.06" stroke-width="1.1"/>
<line x1="470" y1="118" x2="379" y2="283" stroke="#7b7bff" stroke-opacity="0.06" stroke-width="1.1"/>
<line x1="372" y1="145" x2="318" y2="231" stroke="#7b7bff" stroke-opacity="0.25" stroke-width="1.1"/>
<line x1="372" y1="145" x2="322" y2="308" stroke="#7b7bff" stroke-opacity="0.07" stroke-width="1.1"/>
<line x1="372" y1="145" x2="475" y2="316" stroke="#7b7bff" stroke-opacity="0.06" stroke-width="1.1"/>
<line x1="372" y1="145" x2="379" y2="283" stroke="#7b7bff" stroke-opacity="0.15" stroke-width="1.1"/>
<line x1="372" y1="145" x2="194" y2="229" stroke="#7b7bff" stroke-opacity="0.06" stroke-width="1.1"/>
<line x1="714" y1="346" x2="697" y2="511" stroke="#7b7bff" stroke-opacity="0.08" stroke-width="1.1"/>
<line x1="714" y1="346" x2="776" y2="310" stroke="#7b7bff" stroke-opacity="0.32" stroke-width="1.1"/>
<line x1="714" y1="346" x2="644" y2="417" stroke="#7b7bff" stroke-opacity="0.25" stroke-width="1.1"/>
<line x1="714" y1="346" x2="577" y2="346" stroke="#7b7bff" stroke-opacity="0.16" stroke-width="1.1"/>
<line x1="714" y1="346" x2="844" y2="267" stroke="#7b7bff" stroke-opacity="0.12" stroke-width="1.1"/>
<line x1="505" y1="395" x2="329" y2="363" stroke="#7b7bff" stroke-opacity="0.06" stroke-width="1.1"/>
<line x1="505" y1="395" x2="475" y2="316" stroke="#7b7bff" stroke-opacity="0.29" stroke-width="1.1"/>
<line x1="505" y1="395" x2="644" y2="417" stroke="#7b7bff" stroke-opacity="0.15" stroke-width="1.1"/>
<line x1="505" y1="395" x2="431" y2="360" stroke="#7b7bff" stroke-opacity="0.30" stroke-width="1.1"/>
<line x1="505" y1="395" x2="379" y2="283" stroke="#7b7bff" stroke-opacity="0.08" stroke-width="1.1"/>
<line x1="505" y1="395" x2="577" y2="346" stroke="#7b7bff" stroke-opacity="0.28" stroke-width="1.1"/>
<line x1="822" y1="706" x2="942" y2="635" stroke="#7b7bff" stroke-opacity="0.15" stroke-width="1.1"/>
<line x1="822" y1="706" x2="895" y2="697" stroke="#7b7bff" stroke-opacity="0.32" stroke-width="1.1"/>
<line x1="822" y1="706" x2="792" y2="598" stroke="#7b7bff" stroke-opacity="0.22" stroke-width="1.1"/>
<line x1="378" y1="637" x2="217" y2="666" stroke="#7b7bff" stroke-opacity="0.09" stroke-width="1.1"/>
<line x1="378" y1="637" x2="203" y2="663" stroke="#7b7bff" stroke-opacity="0.06" stroke-width="1.1"/>
<line x1="378" y1="637" x2="296" y2="650" stroke="#7b7bff" stroke-opacity="0.29" stroke-width="1.1"/>
<line x1="697" y1="511" x2="644" y2="417" stroke="#7b7bff" stroke-opacity="0.23" stroke-width="1.1"/>
<line x1="697" y1="511" x2="792" y2="598" stroke="#7b7bff" stroke-opacity="0.18" stroke-width="1.1"/>
<line x1="949" y1="172" x2="844" y2="267" stroke="#7b7bff" stroke-opacity="0.15" stroke-width="1.1"/>
<line x1="329" y1="363" x2="318" y2="231" stroke="#7b7bff" stroke-opacity="0.17" stroke-width="1.1"/>
<line x1="329" y1="363" x2="322" y2="308" stroke="#7b7bff" stroke-opacity="0.36" stroke-width="1.1"/>
<line x1="329" y1="363" x2="475" y2="316" stroke="#7b7bff" stroke-opacity="0.12" stroke-width="1.1"/>
<line x1="329" y1="363" x2="431" y2="360" stroke="#7b7bff" stroke-opacity="0.25" stroke-width="1.1"/>
<line x1="329" y1="363" x2="379" y2="283" stroke="#7b7bff" stroke-opacity="0.26" stroke-width="1.1"/>
<line x1="329" y1="363" x2="194" y2="229" stroke="#7b7bff" stroke-opacity="0.06" stroke-width="1.1"/>
<line x1="318" y1="231" x2="322" y2="308" stroke="#7b7bff" stroke-opacity="0.31" stroke-width="1.1"/>
<line x1="318" y1="231" x2="475" y2="316" stroke="#7b7bff" stroke-opacity="0.06" stroke-width="1.1"/>
<line x1="318" y1="231" x2="431" y2="360" stroke="#7b7bff" stroke-opacity="0.07" stroke-width="1.1"/>
<line x1="318" y1="231" x2="379" y2="283" stroke="#7b7bff" stroke-opacity="0.30" stroke-width="1.1"/>
<line x1="318" y1="231" x2="194" y2="229" stroke="#7b7bff" stroke-opacity="0.19" stroke-width="1.1"/>
<line x1="217" y1="666" x2="124" y2="615" stroke="#7b7bff" stroke-opacity="0.23" stroke-width="1.1"/>
<line x1="217" y1="666" x2="203" y2="663" stroke="#7b7bff" stroke-opacity="0.46" stroke-width="1.1"/>
<line x1="217" y1="666" x2="296" y2="650" stroke="#7b7bff" stroke-opacity="0.30" stroke-width="1.1"/>
<line x1="942" y1="635" x2="895" y2="697" stroke="#7b7bff" stroke-opacity="0.30" stroke-width="1.1"/>
<line x1="942" y1="635" x2="792" y2="598" stroke="#7b7bff" stroke-opacity="0.11" stroke-width="1.1"/>
<line x1="776" y1="310" x2="644" y2="417" stroke="#7b7bff" stroke-opacity="0.08" stroke-width="1.1"/>
<line x1="776" y1="310" x2="844" y2="267" stroke="#7b7bff" stroke-opacity="0.30" stroke-width="1.1"/>
<line x1="322" y1="308" x2="475" y2="316" stroke="#7b7bff" stroke-opacity="0.12" stroke-width="1.1"/>
<line x1="322" y1="308" x2="431" y2="360" stroke="#7b7bff" stroke-opacity="0.20" stroke-width="1.1"/>
<line x1="322" y1="308" x2="379" y2="283" stroke="#7b7bff" stroke-opacity="0.34" stroke-width="1.1"/>
<line x1="322" y1="308" x2="194" y2="229" stroke="#7b7bff" stroke-opacity="0.12" stroke-width="1.1"/>
<line x1="46" y1="111" x2="194" y2="229" stroke="#7b7bff" stroke-opacity="0.06" stroke-width="1.1"/>
<line x1="475" y1="316" x2="644" y2="417" stroke="#7b7bff" stroke-opacity="0.06" stroke-width="1.1"/>
<line x1="475" y1="316" x2="431" y2="360" stroke="#7b7bff" stroke-opacity="0.34" stroke-width="1.1"/>
<line x1="475" y1="316" x2="379" y2="283" stroke="#7b7bff" stroke-opacity="0.25" stroke-width="1.1"/>
<line x1="475" y1="316" x2="577" y2="346" stroke="#7b7bff" stroke-opacity="0.23" stroke-width="1.1"/>
<line x1="644" y1="417" x2="577" y2="346" stroke="#7b7bff" stroke-opacity="0.26" stroke-width="1.1"/>
<line x1="124" y1="615" x2="203" y2="663" stroke="#7b7bff" stroke-opacity="0.27" stroke-width="1.1"/>
<line x1="124" y1="615" x2="296" y2="650" stroke="#7b7bff" stroke-opacity="0.06" stroke-width="1.1"/>
<line x1="431" y1="360" x2="379" y2="283" stroke="#7b7bff" stroke-opacity="0.27" stroke-width="1.1"/>
<line x1="431" y1="360" x2="577" y2="346" stroke="#7b7bff" stroke-opacity="0.13" stroke-width="1.1"/>
<line x1="379" y1="283" x2="194" y2="229" stroke="#7b7bff" stroke-opacity="0.06" stroke-width="1.1"/>
<line x1="895" y1="697" x2="792" y2="598" stroke="#7b7bff" stroke-opacity="0.14" stroke-width="1.1"/>
<line x1="203" y1="663" x2="296" y2="650" stroke="#7b7bff" stroke-opacity="0.27" stroke-width="1.1"/>
<circle cx="97" cy="330" r="16" fill="#7b7bff" opacity="0.28" filter="url(#gl)"/>
<circle cx="97" cy="330" r="3.4" fill="#7b7bff" opacity="1"/>
<circle cx="261" cy="338" r="2.0" fill="#22d3ee" opacity="0.7"/>
<circle cx="271" cy="624" r="2.0" fill="#7b7bff" opacity="0.7"/>
<circle cx="557" cy="544" r="2.0" fill="#22d3ee" opacity="0.7"/>
<circle cx="901" cy="371" r="2.0" fill="#7b7bff" opacity="0.7"/>
<circle cx="470" cy="118" r="16" fill="#22d3ee" opacity="0.28" filter="url(#gl)"/>
<circle cx="470" cy="118" r="3.4" fill="#22d3ee" opacity="1"/>
<circle cx="767" cy="78" r="2.0" fill="#7b7bff" opacity="0.7"/>
<circle cx="372" cy="145" r="2.0" fill="#22d3ee" opacity="0.7"/>
<circle cx="714" cy="346" r="2.0" fill="#7b7bff" opacity="0.7"/>
<circle cx="505" cy="395" r="2.0" fill="#22d3ee" opacity="0.7"/>
<circle cx="822" cy="706" r="16" fill="#7b7bff" opacity="0.28" filter="url(#gl)"/>
<circle cx="822" cy="706" r="3.4" fill="#7b7bff" opacity="1"/>
<circle cx="378" cy="637" r="2.0" fill="#22d3ee" opacity="0.7"/>
<circle cx="697" cy="511" r="2.0" fill="#7b7bff" opacity="0.7"/>
<circle cx="949" cy="172" r="2.0" fill="#22d3ee" opacity="0.7"/>
<circle cx="329" cy="363" r="2.0" fill="#7b7bff" opacity="0.7"/>
<circle cx="318" cy="231" r="16" fill="#22d3ee" opacity="0.28" filter="url(#gl)"/>
<circle cx="318" cy="231" r="3.4" fill="#22d3ee" opacity="1"/>
<circle cx="217" cy="666" r="2.0" fill="#7b7bff" opacity="0.7"/>
<circle cx="942" cy="635" r="2.0" fill="#22d3ee" opacity="0.7"/>
<circle cx="776" cy="310" r="2.0" fill="#7b7bff" opacity="0.7"/>
<circle cx="322" cy="308" r="2.0" fill="#22d3ee" opacity="0.7"/>
<circle cx="46" cy="111" r="16" fill="#7b7bff" opacity="0.28" filter="url(#gl)"/>
<circle cx="46" cy="111" r="3.4" fill="#7b7bff" opacity="1"/>
<circle cx="475" cy="316" r="2.0" fill="#22d3ee" opacity="0.7"/>
<circle cx="644" cy="417" r="2.0" fill="#7b7bff" opacity="0.7"/>
<circle cx="124" cy="615" r="2.0" fill="#22d3ee" opacity="0.7"/>
<circle cx="431" cy="360" r="2.0" fill="#7b7bff" opacity="0.7"/>
<circle cx="379" cy="283" r="16" fill="#22d3ee" opacity="0.28" filter="url(#gl)"/>
<circle cx="379" cy="283" r="3.4" fill="#22d3ee" opacity="1"/>
<circle cx="895" cy="697" r="2.0" fill="#7b7bff" opacity="0.7"/>
<circle cx="203" cy="663" r="2.0" fill="#22d3ee" opacity="0.7"/>
<circle cx="792" cy="598" r="2.0" fill="#7b7bff" opacity="0.7"/>
<circle cx="296" cy="650" r="2.0" fill="#22d3ee" opacity="0.7"/>
<circle cx="577" cy="346" r="16" fill="#7b7bff" opacity="0.28" filter="url(#gl)"/>
<circle cx="577" cy="346" r="3.4" fill="#7b7bff" opacity="1"/>
<circle cx="63" cy="387" r="2.0" fill="#22d3ee" opacity="0.7"/>
<circle cx="194" cy="229" r="2.0" fill="#7b7bff" opacity="0.7"/>
<circle cx="844" cy="267" r="2.0" fill="#22d3ee" opacity="0.7"/>
</svg>