<svg xmlns="http://www.w3.org/2000/svg" viewBox="0 0 1600 520" preserveAspectRatio="xMidYMid slice">
<defs>
<radialGradient id="g1" cx="20%" cy="16%" r="75%"><stop offset="0%" stop-color="#22d3ee" stop-opacity="0.72"/><stop offset="42%" stop-color="#22d3ee" stop-opacity="0.20"/><stop offset="100%" stop-color="#22d3ee" stop-opacity="0"/></radialGradient>
<radialGradient id="g2" cx="86%" cy="88%" r="72%"><stop offset="0%" stop-color="#52b78e" stop-opacity="0.60"/><stop offset="45%" stop-color="#52b78e" stop-opacity="0.14"/><stop offset="100%" stop-color="#52b78e" stop-opacity="0"/></radialGradient>
<linearGradient id="bg" x1="0" y1="0" x2="1" y2="1"><stop offset="0%" stop-color="#0c1830"/><stop offset="55%" stop-color="#091324"/><stop offset="100%" stop-color="#070d18"/></linearGradient>
<filter id="gl"><feGaussianBlur stdDeviation="7"/></filter>
<pattern id="grid" width="44" height="44" patternUnits="userSpaceOnUse"><path d="M44 0H0V44" fill="none" stroke="#7fc8ff" stroke-opacity="0.06"/></pattern>
</defs>
<rect width="1600" height="520" fill="url(#bg)"/>
<rect width="1600" height="520" fill="url(#grid)"/>
<rect width="1600" height="520" fill="url(#g1)"/>
<rect width="1600" height="520" fill="url(#g2)"/>
<line x1="1197" y1="329" x2="1066" y2="485" stroke="#22d3ee" stroke-opacity="0.18" stroke-width="1.1"/>
<line x1="1197" y1="329" x2="967" y2="430" stroke="#22d3ee" stroke-opacity="0.11" stroke-width="1.1"/>
<line x1="1197" y1="329" x2="1113" y2="38" stroke="#22d3ee" stroke-opacity="0.06" stroke-width="1.1"/>
<line x1="1197" y1="329" x2="1399" y2="437" stroke="#22d3ee" stroke-opacity="0.14" stroke-width="1.1"/>
<line x1="1197" y1="329" x2="1207" y2="39" stroke="#22d3ee" stroke-opacity="0.06" stroke-width="1.1"/>
<line x1="1197" y1="329" x2="1238" y2="116" stroke="#22d3ee" stroke-opacity="0.16" stroke-width="1.1"/>
<line x1="1197" y1="329" x2="1026" y2="113" stroke="#22d3ee" stroke-opacity="0.07" stroke-width="1.1"/>
<line x1="1197" y1="329" x2="1067" y2="479" stroke="#22d3ee" stroke-opacity="0.19" stroke-width="1.1"/>
<line x1="1197" y1="329" x2="1026" y2="244" stroke="#22d3ee" stroke-opacity="0.20" stroke-width="1.1"/>
<line x1="664" y1="116" x2="691" y2="428" stroke="#22d3ee" stroke-opacity="0.06" stroke-width="1.1"/>
<line x1="664" y1="116" x2="539" y2="82" stroke="#22d3ee" stroke-opacity="0.30" stroke-width="1.1"/>
<line x1="664" y1="116" x2="747" y2="363" stroke="#22d3ee" stroke-opacity="0.09" stroke-width="1.1"/>
<line x1="664" y1="116" x2="422" y2="142" stroke="#22d3ee" stroke-opacity="0.12" stroke-width="1.1"/>
<line x1="664" y1="116" x2="455" y2="43" stroke="#22d3ee" stroke-opacity="0.16" stroke-width="1.1"/>
<line x1="664" y1="116" x2="440" y2="105" stroke="#22d3ee" stroke-opacity="0.15" stroke-width="1.1"/>
<line x1="664" y1="116" x2="574" y2="48" stroke="#22d3ee" stroke-opacity="0.32" stroke-width="1.1"/>
<line x1="664" y1="116" x2="832" y2="295" stroke="#22d3ee" stroke-opacity="0.12" stroke-width="1.1"/>
<line x1="664" y1="116" x2="574" y2="96" stroke="#22d3ee" stroke-opacity="0.36" stroke-width="1.1"/>
<line x1="664" y1="116" x2="884" y2="188" stroke="#22d3ee" stroke-opacity="0.14" stroke-width="1.1"/>
<line x1="664" y1="116" x2="931" y2="28" stroke="#22d3ee" stroke-opacity="0.06" stroke-width="1.1"/>
<line x1="664" y1="116" x2="503" y2="334" stroke="#22d3ee" stroke-opacity="0.08" stroke-width="1.1"/>
<line x1="664" y1="116" x2="957" y2="33" stroke="#22d3ee" stroke-opacity="0.06" stroke-width="1.1"/>
<line x1="1066" y1="485" x2="967" y2="430" stroke="#22d3ee" stroke-opacity="0.32" stroke-width="1.1"/>
<line x1="1066" y1="485" x2="835" y2="436" stroke="#22d3ee" stroke-opacity="0.13" stroke-width="1.1"/>
<line x1="1066" y1="485" x2="757" y2="433" stroke="#22d3ee" stroke-opacity="0.06" stroke-width="1.1"/>
<line x1="1066" y1="485" x2="832" y2="295" stroke="#22d3ee" stroke-opacity="0.06" stroke-width="1.1"/>
<line x1="1066" y1="485" x2="1067" y2="479" stroke="#22d3ee" stroke-opacity="0.49" stroke-width="1.1"/>
<line x1="1066" y1="485" x2="1026" y2="244" stroke="#22d3ee" stroke-opacity="0.12" stroke-width="1.1"/>
<line x1="691" y1="428" x2="967" y2="430" stroke="#22d3ee" stroke-opacity="0.07" stroke-width="1.1"/>
<line x1="691" y1="428" x2="835" y2="436" stroke="#22d3ee" stroke-opacity="0.28" stroke-width="1.1"/>
<line x1="691" y1="428" x2="747" y2="363" stroke="#22d3ee" stroke-opacity="0.37" stroke-width="1.1"/>
<line x1="691" y1="428" x2="757" y2="433" stroke="#22d3ee" stroke-opacity="0.40" stroke-width="1.1"/>
<line x1="691" y1="428" x2="487" y2="435" stroke="#22d3ee" stroke-opacity="0.18" stroke-width="1.1"/>
<line x1="691" y1="428" x2="832" y2="295" stroke="#22d3ee" stroke-opacity="0.20" stroke-width="1.1"/>
<line x1="691" y1="428" x2="884" y2="188" stroke="#22d3ee" stroke-opacity="0.06" stroke-width="1.1"/>
<line x1="691" y1="428" x2="567" y2="486" stroke="#22d3ee" stroke-opacity="0.29" stroke-width="1.1"/>
<line x1="691" y1="428" x2="634" y2="489" stroke="#22d3ee" stroke-opacity="0.37" stroke-width="1.1"/>
<line x1="691" y1="428" x2="503" y2="334" stroke="#22d3ee" stroke-opacity="0.17" stroke-width="1.1"/>
<line x1="102" y1="273" x2="351" y2="257" stroke="#22d3ee" stroke-opacity="0.11" stroke-width="1.1"/>
<line x1="102" y1="273" x2="240" y2="126" stroke="#22d3ee" stroke-opacity="0.19" stroke-width="1.1"/>
<line x1="102" y1="273" x2="341" y2="204" stroke="#22d3ee" stroke-opacity="0.11" stroke-width="1.1"/>
<line x1="102" y1="273" x2="206" y2="460" stroke="#22d3ee" stroke-opacity="0.17" stroke-width="1.1"/>
<line x1="102" y1="273" x2="302" y2="434" stroke="#22d3ee" stroke-opacity="0.10" stroke-width="1.1"/>
<line x1="102" y1="273" x2="326" y2="287" stroke="#22d3ee" stroke-opacity="0.15" stroke-width="1.1"/>
<line x1="102" y1="273" x2="249" y2="47" stroke="#22d3ee" stroke-opacity="0.08" stroke-width="1.1"/>
<line x1="102" y1="273" x2="71" y2="187" stroke="#22d3ee" stroke-opacity="0.36" stroke-width="1.1"/>
<line x1="102" y1="273" x2="200" y2="291" stroke="#22d3ee" stroke-opacity="0.34" stroke-width="1.1"/>
<line x1="102" y1="273" x2="284" y2="27" stroke="#22d3ee" stroke-opacity="0.06" stroke-width="1.1"/>
<line x1="102" y1="273" x2="141" y2="333" stroke="#22d3ee" stroke-opacity="0.39" stroke-width="1.1"/>
<line x1="351" y1="257" x2="539" y2="82" stroke="#22d3ee" stroke-opacity="0.10" stroke-width="1.1"/>
<line x1="351" y1="257" x2="422" y2="142" stroke="#22d3ee" stroke-opacity="0.29" stroke-width="1.1"/>
<line x1="351" y1="257" x2="455" y2="43" stroke="#22d3ee" stroke-opacity="0.13" stroke-width="1.1"/>
<line x1="351" y1="257" x2="440" y2="105" stroke="#22d3ee" stroke-opacity="0.22" stroke-width="1.1"/>
<line x1="351" y1="257" x2="240" y2="126" stroke="#22d3ee" stroke-opacity="0.23" stroke-width="1.1"/>
<line x1="351" y1="257" x2="487" y2="435" stroke="#22d3ee" stroke-opacity="0.15" stroke-width="1.1"/>
<line x1="351" y1="257" x2="574" y2="48" stroke="#22d3ee" stroke-opacity="0.06" stroke-width="1.1"/>
<line x1="351" y1="257" x2="341" y2="204" stroke="#22d3ee" stroke-opacity="0.42" stroke-width="1.1"/>
<line x1="351" y1="257" x2="574" y2="96" stroke="#22d3ee" stroke-opacity="0.07" stroke-width="1.1"/>
<line x1="351" y1="257" x2="567" y2="486" stroke="#22d3ee" stroke-opacity="0.06" stroke-width="1.1"/>
<line x1="351" y1="257" x2="206" y2="460" stroke="#22d3ee" stroke-opacity="0.11" stroke-width="1.1"/>
<line x1="351" y1="257" x2="302" y2="434" stroke="#22d3ee" stroke-opacity="0.21" stroke-width="1.1"/>
<line x1="351" y1="257" x2="503" y2="334" stroke="#22d3ee" stroke-opacity="0.23" stroke-width="1.1"/>
<line x1="351" y1="257" x2="326" y2="287" stroke="#22d3ee" stroke-opacity="0.44" stroke-width="1.1"/>
<line x1="351" y1="257" x2="249" y2="47" stroke="#22d3ee" stroke-opacity="0.13" stroke-width="1.1"/>
<line x1="351" y1="257" x2="71" y2="187" stroke="#22d3ee" stroke-opacity="0.06" stroke-width="1.1"/>
<line x1="351" y1="257" x2="200" y2="291" stroke="#22d3ee" stroke-opacity="0.26" stroke-width="1.1"/>
<line x1="351" y1="257" x2="284" y2="27" stroke="#22d3ee" stroke-opacity="0.13" stroke-width="1.1"/>
<line x1="351" y1="257" x2="141" y2="333" stroke="#22d3ee" stroke-opacity="0.15" stroke-width="1.1"/>
<line x1="967" y1="430" x2="835" y2="436" stroke="#22d3ee" stroke-opacity="0.29" stroke-width="1.1"/>
<line x1="967" y1="430" x2="747" y2="363" stroke="#22d3ee" stroke-opacity="0.14" stroke-width="1.1"/>
<line x1="967" y1="430" x2="757" y2="433" stroke="#22d3ee" stroke-opacity="0.17" stroke-width="1.1"/>
<line x1="967" y1="430" x2="832" y2="295" stroke="#22d3ee" stroke-opacity="0.20" stroke-width="1.1"/>
<line x1="967" y1="430" x2="884" y2="188" stroke="#22d3ee" stroke-opacity="0.10" stroke-width="1.1"/>
<line x1="967" y1="430" x2="1067" y2="479" stroke="#22d3ee" stroke-opacity="0.33" stroke-width="1.1"/>
<line x1="967" y1="430" x2="1026" y2="244" stroke="#22d3ee" stroke-opacity="0.19" stroke-width="1.1"/>
<line x1="835" y1="436" x2="747" y2="363" stroke="#22d3ee" stroke-opacity="0.32" stroke-width="1.1"/>
<line x1="835" y1="436" x2="757" y2="433" stroke="#22d3ee" stroke-opacity="0.38" stroke-width="1.1"/>
<line x1="835" y1="436" x2="832" y2="295" stroke="#22d3ee" stroke-opacity="0.28" stroke-width="1.1"/>
<line x1="835" y1="436" x2="884" y2="188" stroke="#22d3ee" stroke-opacity="0.10" stroke-width="1.1"/>
<line x1="835" y1="436" x2="567" y2="486" stroke="#22d3ee" stroke-opacity="0.07" stroke-width="1.1"/>
<line x1="835" y1="436" x2="634" y2="489" stroke="#22d3ee" stroke-opacity="0.18" stroke-width="1.1"/>
<line x1="835" y1="436" x2="1067" y2="479" stroke="#22d3ee" stroke-opacity="0.13" stroke-width="1.1"/>
<line x1="835" y1="436" x2="1026" y2="244" stroke="#22d3ee" stroke-opacity="0.08" stroke-width="1.1"/>
<line x1="539" y1="82" x2="422" y2="142" stroke="#22d3ee" stroke-opacity="0.29" stroke-width="1.1"/>
<line x1="539" y1="82" x2="455" y2="43" stroke="#22d3ee" stroke-opacity="0.35" stroke-width="1.1"/>
<line x1="539" y1="82" x2="440" y2="105" stroke="#22d3ee" stroke-opacity="0.34" stroke-width="1.1"/>
<line x1="539" y1="82" x2="240" y2="126" stroke="#22d3ee" stroke-opacity="0.06" stroke-width="1.1"/>
<line x1="539" y1="82" x2="574" y2="48" stroke="#22d3ee" stroke-opacity="0.42" stroke-width="1.1"/>
<line x1="539" y1="82" x2="341" y2="204" stroke="#22d3ee" stroke-opacity="0.14" stroke-width="1.1"/>
<line x1="539" y1="82" x2="574" y2="96" stroke="#22d3ee" stroke-opacity="0.44" stroke-width="1.1"/>
<line x1="539" y1="82" x2="503" y2="334" stroke="#22d3ee" stroke-opacity="0.10" stroke-width="1.1"/>
<line x1="539" y1="82" x2="326" y2="287" stroke="#22d3ee" stroke-opacity="0.06" stroke-width="1.1"/>
<line x1="539" y1="82" x2="249" y2="47" stroke="#22d3ee" stroke-opacity="0.06" stroke-width="1.1"/>
<line x1="539" y1="82" x2="284" y2="27" stroke="#22d3ee" stroke-opacity="0.09" stroke-width="1.1"/>
<line x1="747" y1="363" x2="757" y2="433" stroke="#22d3ee" stroke-opacity="0.39" stroke-width="1.1"/>
<line x1="747" y1="363" x2="487" y2="435" stroke="#22d3ee" stroke-opacity="0.08" stroke-width="1.1"/>
<line x1="747" y1="363" x2="832" y2="295" stroke="#22d3ee" stroke-opacity="0.33" stroke-width="1.1"/>
<line x1="747" y1="363" x2="574" y2="96" stroke="#22d3ee" stroke-opacity="0.06" stroke-width="1.1"/>
<line x1="747" y1="363" x2="884" y2="188" stroke="#22d3ee" stroke-opacity="0.15" stroke-width="1.1"/>
<line x1="747" y1="363" x2="567" y2="486" stroke="#22d3ee" stroke-opacity="0.16" stroke-width="1.1"/>
<line x1="747" y1="363" x2="634" y2="489" stroke="#22d3ee" stroke-opacity="0.24" stroke-width="1.1"/>
<line x1="747" y1="363" x2="503" y2="334" stroke="#22d3ee" stroke-opacity="0.11" stroke-width="1.1"/>
<line x1="747" y1="363" x2="1026" y2="244" stroke="#22d3ee" stroke-opacity="0.06" stroke-width="1.1"/>
<line x1="1113" y1="38" x2="1207" y2="39" stroke="#22d3ee" stroke-opacity="0.35" stroke-width="1.1"/>
<line x1="1113" y1="38" x2="1424" y2="80" stroke="#22d3ee" stroke-opacity="0.06" stroke-width="1.1"/>
<line x1="1113" y1="38" x2="1238" y2="116" stroke="#22d3ee" stroke-opacity="0.27" stroke-width="1.1"/>
<line x1="1113" y1="38" x2="1026" y2="113" stroke="#22d3ee" stroke-opacity="0.32" stroke-width="1.1"/>
<line x1="1113" y1="38" x2="884" y2="188" stroke="#22d3ee" stroke-opacity="0.07" stroke-width="1.1"/>
<line x1="1113" y1="38" x2="931" y2="28" stroke="#22d3ee" stroke-opacity="0.22" stroke-width="1.1"/>
<line x1="1113" y1="38" x2="1026" y2="244" stroke="#22d3ee" stroke-opacity="0.15" stroke-width="1.1"/>
<line x1="1113" y1="38" x2="957" y2="33" stroke="#22d3ee" stroke-opacity="0.26" stroke-width="1.1"/>
<line x1="422" y1="142" x2="455" y2="43" stroke="#22d3ee" stroke-opacity="0.34" stroke-width="1.1"/>
<line x1="422" y1="142" x2="440" y2="105" stroke="#22d3ee" stroke-opacity="0.44" stroke-width="1.1"/>
<line x1="422" y1="142" x2="240" y2="126" stroke="#22d3ee" stroke-opacity="0.21" stroke-width="1.1"/>
<line x1="422" y1="142" x2="487" y2="435" stroke="#22d3ee" stroke-opacity="0.06" stroke-width="1.1"/>
<line x1="422" y1="142" x2="574" y2="48" stroke="#22d3ee" stroke-opacity="0.22" stroke-width="1.1"/>
<line x1="422" y1="142" x2="341" y2="204" stroke="#22d3ee" stroke-opacity="0.34" stroke-width="1.1"/>
<line x1="422" y1="142" x2="574" y2="96" stroke="#22d3ee" stroke-opacity="0.25" stroke-width="1.1"/>
<line x1="422" y1="142" x2="302" y2="434" stroke="#22d3ee" stroke-opacity="0.06" stroke-width="1.1"/>
<line x1="422" y1="142" x2="503" y2="334" stroke="#22d3ee" stroke-opacity="0.18" stroke-width="1.1"/>
<line x1="422" y1="142" x2="326" y2="287" stroke="#22d3ee" stroke-opacity="0.23" stroke-width="1.1"/>
<line x1="422" y1="142" x2="249" y2="47" stroke="#22d3ee" stroke-opacity="0.19" stroke-width="1.1"/>
<line x1="422" y1="142" x2="200" y2="291" stroke="#22d3ee" stroke-opacity="0.08" stroke-width="1.1"/>
<line x1="422" y1="142" x2="284" y2="27" stroke="#22d3ee" stroke-opacity="0.22" stroke-width="1.1"/>
<line x1="757" y1="433" x2="487" y2="435" stroke="#22d3ee" stroke-opacity="0.08" stroke-width="1.1"/>
<line x1="757" y1="433" x2="832" y2="295" stroke="#22d3ee" stroke-opacity="0.25" stroke-width="1.1"/>
<line x1="757" y1="433" x2="884" y2="188" stroke="#22d3ee" stroke-opacity="0.07" stroke-width="1.1"/>
<line x1="757" y1="433" x2="567" y2="486" stroke="#22d3ee" stroke-opacity="0.19" stroke-width="1.1"/>
<line x1="757" y1="433" x2="634" y2="489" stroke="#22d3ee" stroke-opacity="0.29" stroke-width="1.1"/>
<line x1="757" y1="433" x2="1067" y2="479" stroke="#22d3ee" stroke-opacity="0.06" stroke-width="1.1"/>
<line x1="757" y1="433" x2="503" y2="334" stroke="#22d3ee" stroke-opacity="0.07" stroke-width="1.1"/>
<line x1="455" y1="43" x2="440" y2="105" stroke="#22d3ee" stroke-opacity="0.40" stroke-width="1.1"/>
<line x1="455" y1="43" x2="240" y2="126" stroke="#22d3ee" stroke-opacity="0.14" stroke-width="1.1"/>
<line x1="455" y1="43" x2="574" y2="48" stroke="#22d3ee" stroke-opacity="0.32" stroke-width="1.1"/>
<line x1="455" y1="43" x2="341" y2="204" stroke="#22d3ee" stroke-opacity="0.19" stroke-width="1.1"/>
<line x1="455" y1="43" x2="574" y2="96" stroke="#22d3ee" stroke-opacity="0.30" stroke-width="1.1"/>
<line x1="455" y1="43" x2="503" y2="334" stroke="#22d3ee" stroke-opacity="0.06" stroke-width="1.1"/>
<line x1="455" y1="43" x2="326" y2="287" stroke="#22d3ee" stroke-opacity="0.07" stroke-width="1.1"/>
<line x1="455" y1="43" x2="249" y2="47" stroke="#22d3ee" stroke-opacity="0.18" stroke-width="1.1"/>
<line x1="455" y1="43" x2="284" y2="27" stroke="#22d3ee" stroke-opacity="0.23" stroke-width="1.1"/>
<line x1="1399" y1="437" x2="1527" y2="168" stroke="#22d3ee" stroke-opacity="0.06" stroke-width="1.1"/>
<line x1="1399" y1="437" x2="1487" y2="485" stroke="#22d3ee" stroke-opacity="0.34" stroke-width="1.1"/>
<line x1="1207" y1="39" x2="1424" y2="80" stroke="#22d3ee" stroke-opacity="0.15" stroke-width="1.1"/>
<line x1="1207" y1="39" x2="1238" y2="116" stroke="#22d3ee" stroke-opacity="0.37" stroke-width="1.1"/>
<line x1="1207" y1="39" x2="1026" y2="113" stroke="#22d3ee" stroke-opacity="0.19" stroke-width="1.1"/>
<line x1="1207" y1="39" x2="931" y2="28" stroke="#22d3ee" stroke-opacity="0.07" stroke-width="1.1"/>
<line x1="1207" y1="39" x2="1463" y2="82" stroke="#22d3ee" stroke-opacity="0.10" stroke-width="1.1"/>
<line x1="1207" y1="39" x2="1026" y2="244" stroke="#22d3ee" stroke-opacity="0.07" stroke-width="1.1"/>
<line x1="1207" y1="39" x2="957" y2="33" stroke="#22d3ee" stroke-opacity="0.11" stroke-width="1.1"/>
<line x1="440" y1="105" x2="240" y2="126" stroke="#22d3ee" stroke-opacity="0.19" stroke-width="1.1"/>
<line x1="440" y1="105" x2="574" y2="48" stroke="#22d3ee" stroke-opacity="0.27" stroke-width="1.1"/>
<line x1="440" y1="105" x2="341" y2="204" stroke="#22d3ee" stroke-opacity="0.28" stroke-width="1.1"/>
<line x1="440" y1="105" x2="574" y2="96" stroke="#22d3ee" stroke-opacity="0.29" stroke-width="1.1"/>
<line x1="440" y1="105" x2="503" y2="334" stroke="#22d3ee" stroke-opacity="0.13" stroke-width="1.1"/>
<line x1="440" y1="105" x2="326" y2="287" stroke="#22d3ee" stroke-opacity="0.16" stroke-width="1.1"/>
<line x1="440" y1="105" x2="249" y2="47" stroke="#22d3ee" stroke-opacity="0.19" stroke-width="1.1"/>
<line x1="440" y1="105" x2="200" y2="291" stroke="#22d3ee" stroke-opacity="0.06" stroke-width="1.1"/>
<line x1="440" y1="105" x2="284" y2="27" stroke="#22d3ee" stroke-opacity="0.23" stroke-width="1.1"/>
<line x1="1424" y1="80" x2="1238" y2="116" stroke="#22d3ee" stroke-opacity="0.20" stroke-width="1.1"/>
<line x1="1424" y1="80" x2="1527" y2="168" stroke="#22d3ee" stroke-opacity="0.29" stroke-width="1.1"/>
<line x1="1424" y1="80" x2="1548" y2="137" stroke="#22d3ee" stroke-opacity="0.29" stroke-width="1.1"/>
<line x1="1424" y1="80" x2="1463" y2="82" stroke="#22d3ee" stroke-opacity="0.44" stroke-width="1.1"/>
<line x1="240" y1="126" x2="341" y2="204" stroke="#22d3ee" stroke-opacity="0.30" stroke-width="1.1"/>
<line x1="240" y1="126" x2="302" y2="434" stroke="#22d3ee" stroke-opacity="0.06" stroke-width="1.1"/>
<line x1="240" y1="126" x2="326" y2="287" stroke="#22d3ee" stroke-opacity="0.21" stroke-width="1.1"/>
<line x1="240" y1="126" x2="249" y2="47" stroke="#22d3ee" stroke-opacity="0.37" stroke-width="1.1"/>
<line x1="240" y1="126" x2="71" y2="187" stroke="#22d3ee" stroke-opacity="0.22" stroke-width="1.1"/>
<line x1="240" y1="126" x2="200" y2="291" stroke="#22d3ee" stroke-opacity="0.23" stroke-width="1.1"/>
<line x1="240" y1="126" x2="284" y2="27" stroke="#22d3ee" stroke-opacity="0.33" stroke-width="1.1"/>
<line x1="240" y1="126" x2="141" y2="333" stroke="#22d3ee" stroke-opacity="0.14" stroke-width="1.1"/>
<line x1="1238" y1="116" x2="1527" y2="168" stroke="#22d3ee" stroke-opacity="0.06" stroke-width="1.1"/>
<line x1="1238" y1="116" x2="1026" y2="113" stroke="#22d3ee" stroke-opacity="0.17" stroke-width="1.1"/>
<line x1="1238" y1="116" x2="1548" y2="137" stroke="#22d3ee" stroke-opacity="0.06" stroke-width="1.1"/>
<line x1="1238" y1="116" x2="931" y2="28" stroke="#22d3ee" stroke-opacity="0.06" stroke-width="1.1"/>
<line x1="1238" y1="116" x2="1463" y2="82" stroke="#22d3ee" stroke-opacity="0.14" stroke-width="1.1"/>
<line x1="1238" y1="116" x2="1026" y2="244" stroke="#22d3ee" stroke-opacity="0.11" stroke-width="1.1"/>
<line x1="1238" y1="116" x2="957" y2="33" stroke="#22d3ee" stroke-opacity="0.06" stroke-width="1.1"/>
<line x1="1527" y1="168" x2="1548" y2="137" stroke="#22d3ee" stroke-opacity="0.44" stroke-width="1.1"/>
<line x1="1527" y1="168" x2="1487" y2="485" stroke="#22d3ee" stroke-opacity="0.06" stroke-width="1.1"/>
<line x1="1527" y1="168" x2="1463" y2="82" stroke="#22d3ee" stroke-opacity="0.33" stroke-width="1.1"/>
<line x1="1026" y1="113" x2="832" y2="295" stroke="#22d3ee" stroke-opacity="0.08" stroke-width="1.1"/>
<line x1="1026" y1="113" x2="884" y2="188" stroke="#22d3ee" stroke-opacity="0.25" stroke-width="1.1"/>
<line x1="1026" y1="113" x2="931" y2="28" stroke="#22d3ee" stroke-opacity="0.30" stroke-width="1.1"/>
<line x1="1026" y1="113" x2="1026" y2="244" stroke="#22d3ee" stroke-opacity="0.30" stroke-width="1.1"/>
<line x1="1026" y1="113" x2="957" y2="33" stroke="#22d3ee" stroke-opacity="0.34" stroke-width="1.1"/>
<line x1="487" y1="435" x2="341" y2="204" stroke="#22d3ee" stroke-opacity="0.07" stroke-width="1.1"/>
<line x1="487" y1="435" x2="567" y2="486" stroke="#22d3ee" stroke-opacity="0.35" stroke-width="1.1"/>
<line x1="487" y1="435" x2="634" y2="489" stroke="#22d3ee" stroke-opacity="0.25" stroke-width="1.1"/>
<line x1="487" y1="435" x2="206" y2="460" stroke="#22d3ee" stroke-opacity="0.06" stroke-width="1.1"/>
<line x1="487" y1="435" x2="302" y2="434" stroke="#22d3ee" stroke-opacity="0.21" stroke-width="1.1"/>
<line x1="487" y1="435" x2="503" y2="334" stroke="#22d3ee" stroke-opacity="0.34" stroke-width="1.1"/>
<line x1="487" y1="435" x2="326" y2="287" stroke="#22d3ee" stroke-opacity="0.16" stroke-width="1.1"/>
<line x1="1548" y1="137" x2="1463" y2="82" stroke="#22d3ee" stroke-opacity="0.34" stroke-width="1.1"/>
<line x1="574" y1="48" x2="341" y2="204" stroke="#22d3ee" stroke-opacity="0.06" stroke-width="1.1"/>
<line x1="574" y1="48" x2="574" y2="96" stroke="#22d3ee" stroke-opacity="0.42" stroke-width="1.1"/>
<line x1="574" y1="48" x2="503" y2="334" stroke="#22d3ee" stroke-opacity="0.06" stroke-width="1.1"/>
<line x1="574" y1="48" x2="284" y2="27" stroke="#22d3ee" stroke-opacity="0.06" stroke-width="1.1"/>
<line x1="341" y1="204" x2="574" y2="96" stroke="#22d3ee" stroke-opacity="0.10" stroke-width="1.1"/>
<line x1="341" y1="204" x2="206" y2="460" stroke="#22d3ee" stroke-opacity="0.06" stroke-width="1.1"/>
<line x1="341" y1="204" x2="302" y2="434" stroke="#22d3ee" stroke-opacity="0.14" stroke-width="1.1"/>
<line x1="341" y1="204" x2="503" y2="334" stroke="#22d3ee" stroke-opacity="0.18" stroke-width="1.1"/>
<line x1="341" y1="204" x2="326" y2="287" stroke="#22d3ee" stroke-opacity="0.37" stroke-width="1.1"/>
<line x1="341" y1="204" x2="249" y2="47" stroke="#22d3ee" stroke-opacity="0.22" stroke-width="1.1"/>
<line x1="341" y1="204" x2="71" y2="187" stroke="#22d3ee" stroke-opacity="0.08" stroke-width="1.1"/>
<line x1="341" y1="204" x2="200" y2="291" stroke="#22d3ee" stroke-opacity="0.24" stroke-width="1.1"/>
<line x1="341" y1="204" x2="284" y2="27" stroke="#22d3ee" stroke-opacity="0.21" stroke-width="1.1"/>
<line x1="341" y1="204" x2="141" y2="333" stroke="#22d3ee" stroke-opacity="0.13" stroke-width="1.1"/>
<line x1="832" y1="295" x2="884" y2="188" stroke="#22d3ee" stroke-opacity="0.31" stroke-width="1.1"/>
<line x1="832" y1="295" x2="931" y2="28" stroke="#22d3ee" stroke-opacity="0.06" stroke-width="1.1"/>
<line x1="832" y1="295" x2="634" y2="489" stroke="#22d3ee" stroke-opacity="0.07" stroke-width="1.1"/>
<line x1="832" y1="295" x2="1067" y2="479" stroke="#22d3ee" stroke-opacity="0.06" stroke-width="1.1"/>
<line x1="832" y1="295" x2="1026" y2="244" stroke="#22d3ee" stroke-opacity="0.19" stroke-width="1.1"/>
<line x1="832" y1="295" x2="957" y2="33" stroke="#22d3ee" stroke-opacity="0.06" stroke-width="1.1"/>
<line x1="574" y1="96" x2="503" y2="334" stroke="#22d3ee" stroke-opacity="0.11" stroke-width="1.1"/>
<line x1="574" y1="96" x2="326" y2="287" stroke="#22d3ee" stroke-opacity="0.06" stroke-width="1.1"/>
<line x1="574" y1="96" x2="284" y2="27" stroke="#22d3ee" stroke-opacity="0.06" stroke-width="1.1"/>
<line x1="884" y1="188" x2="931" y2="28" stroke="#22d3ee" stroke-opacity="0.24" stroke-width="1.1"/>
<line x1="884" y1="188" x2="1026" y2="244" stroke="#22d3ee" stroke-opacity="0.26" stroke-width="1.1"/>
<line x1="884" y1="188" x2="957" y2="33" stroke="#22d3ee" stroke-opacity="0.23" stroke-width="1.1"/>
<line x1="567" y1="486" x2="634" y2="489" stroke="#22d3ee" stroke-opacity="0.39" stroke-width="1.1"/>
<line x1="567" y1="486" x2="302" y2="434" stroke="#22d3ee" stroke-opacity="0.08" stroke-width="1.1"/>
<line x1="567" y1="486" x2="503" y2="334" stroke="#22d3ee" stroke-opacity="0.24" stroke-width="1.1"/>
<line x1="567" y1="486" x2="326" y2="287" stroke="#22d3ee" stroke-opacity="0.06" stroke-width="1.1"/>
<line x1="931" y1="28" x2="1026" y2="244" stroke="#22d3ee" stroke-opacity="0.13" stroke-width="1.1"/>
<line x1="931" y1="28" x2="957" y2="33" stroke="#22d3ee" stroke-opacity="0.46" stroke-width="1.1"/>
<line x1="634" y1="489" x2="503" y2="334" stroke="#22d3ee" stroke-opacity="0.18" stroke-width="1.1"/>
<line x1="206" y1="460" x2="302" y2="434" stroke="#22d3ee" stroke-opacity="0.34" stroke-width="1.1"/>
<line x1="206" y1="460" x2="326" y2="287" stroke="#22d3ee" stroke-opacity="0.17" stroke-width="1.1"/>
<line x1="206" y1="460" x2="71" y2="187" stroke="#22d3ee" stroke-opacity="0.06" stroke-width="1.1"/>
<line x1="206" y1="460" x2="200" y2="291" stroke="#22d3ee" stroke-opacity="0.24" stroke-width="1.1"/>
<line x1="206" y1="460" x2="141" y2="333" stroke="#22d3ee" stroke-opacity="0.28" stroke-width="1.1"/>
<line x1="302" y1="434" x2="503" y2="334" stroke="#22d3ee" stroke-opacity="0.15" stroke-width="1.1"/>
<line x1="302" y1="434" x2="326" y2="287" stroke="#22d3ee" stroke-opacity="0.27" stroke-width="1.1"/>
<line x1="302" y1="434" x2="200" y2="291" stroke="#22d3ee" stroke-opacity="0.23" stroke-width="1.1"/>
<line x1="302" y1="434" x2="141" y2="333" stroke="#22d3ee" stroke-opacity="0.20" stroke-width="1.1"/>
<line x1="1067" y1="479" x2="1026" y2="244" stroke="#22d3ee" stroke-opacity="0.13" stroke-width="1.1"/>
<line x1="503" y1="334" x2="326" y2="287" stroke="#22d3ee" stroke-opacity="0.22" stroke-width="1.1"/>
<line x1="503" y1="334" x2="200" y2="291" stroke="#22d3ee" stroke-opacity="0.06" stroke-width="1.1"/>
<line x1="326" y1="287" x2="249" y2="47" stroke="#22d3ee" stroke-opacity="0.11" stroke-width="1.1"/>
<line x1="326" y1="287" x2="71" y2="187" stroke="#22d3ee" stroke-opacity="0.07" stroke-width="1.1"/>
<line x1="326" y1="287" x2="200" y2="291" stroke="#22d3ee" stroke-opacity="0.30" stroke-width="1.1"/>
<line x1="326" y1="287" x2="284" y2="27" stroke="#22d3ee" stroke-opacity="0.09" stroke-width="1.1"/>
<line x1="326" y1="287" x2="141" y2="333" stroke="#22d3ee" stroke-opacity="0.20" stroke-width="1.1"/>
<line x1="249" y1="47" x2="71" y2="187" stroke="#22d3ee" stroke-opacity="0.15" stroke-width="1.1"/>
<line x1="249" y1="47" x2="200" y2="291" stroke="#22d3ee" stroke-opacity="0.11" stroke-width="1.1"/>
<line x1="249" y1="47" x2="284" y2="27" stroke="#22d3ee" stroke-opacity="0.44" stroke-width="1.1"/>
<line x1="249" y1="47" x2="141" y2="333" stroke="#22d3ee" stroke-opacity="0.06" stroke-width="1.1"/>
<line x1="71" y1="187" x2="200" y2="291" stroke="#22d3ee" stroke-opacity="0.24" stroke-width="1.1"/>
<line x1="71" y1="187" x2="284" y2="27" stroke="#22d3ee" stroke-opacity="0.08" stroke-width="1.1"/>
<line x1="71" y1="187" x2="141" y2="333" stroke="#22d3ee" stroke-opacity="0.25" stroke-width="1.1"/>
<line x1="1026" y1="244" x2="957" y2="33" stroke="#22d3ee" stroke-opacity="0.15" stroke-width="1.1"/>
<line x1="200" y1="291" x2="284" y2="27" stroke="#22d3ee" stroke-opacity="0.07" stroke-width="1.1"/>
<line x1="200" y1="291" x2="141" y2="333" stroke="#22d3ee" stroke-opacity="0.39" stroke-width="1.1"/>
<circle cx="1197" cy="329" r="16" fill="#22d3ee" opacity="0.28" filter="url(#gl)"/>
<circle cx="1197" cy="329" r="3.4" fill="#22d3ee" opacity="1"/>
<circle cx="664" cy="116" r="2.0" fill="#52b78e" opacity="0.7"/>
<circle cx="1066" cy="485" r="2.0" fill="#22d3ee" opacity="0.7"/>
<circle cx="691" cy="428" r="2.0" fill="#52b78e" opacity="0.7"/>
<circle cx="102" cy="273" r="2.0" fill="#22d3ee" opacity="0.7"/>
<circle cx="351" cy="257" r="16" fill="#52b78e" opacity="0.28" filter="url(#gl)"/>
<circle cx="351" cy="257" r="3.4" fill="#52b78e" opacity="1"/>
<circle cx="967" cy="430" r="2.0" fill="#22d3ee" opacity="0.7"/>
<circle cx="835" cy="436" r="2.0" fill="#52b78e" opacity="0.7"/>
<circle cx="539" cy="82" r="2.0" fill="#22d3ee" opacity="0.7"/>
<circle cx="747" cy="363" r="2.0" fill="#52b78e" opacity="0.7"/>
<circle cx="1113" cy="38" r="16" fill="#22d3ee" opacity="0.28" filter="url(#gl)"/>
<circle cx="1113" cy="38" r="3.4" fill="#22d3ee" opacity="1"/>
<circle cx="422" cy="142" r="2.0" fill="#52b78e" opacity="0.7"/>
<circle cx="757" cy="433" r="2.0" fill="#22d3ee" opacity="0.7"/>
<circle cx="455" cy="43" r="2.0" fill="#52b78e" opacity="0.7"/>
<circle cx="1399" cy="437" r="2.0" fill="#22d3ee" opacity="0.7"/>
<circle cx="1207" cy="39" r="16" fill="#52b78e" opacity="0.28" filter="url(#gl)"/>
<circle cx="1207" cy="39" r="3.4" fill="#52b78e" opacity="1"/>
<circle cx="440" cy="105" r="2.0" fill="#22d3ee" opacity="0.7"/>
<circle cx="1424" cy="80" r="2.0" fill="#52b78e" opacity="0.7"/>
<circle cx="240" cy="126" r="2.0" fill="#22d3ee" opacity="0.7"/>
<circle cx="1238" cy="116" r="2.0" fill="#52b78e" opacity="0.7"/>
<circle cx="1527" cy="168" r="16" fill="#22d3ee" opacity="0.28" filter="url(#gl)"/>
<circle cx="1527" cy="168" r="3.4" fill="#22d3ee" opacity="1"/>
<circle cx="1026" cy="113" r="2.0" fill="#52b78e" opacity="0.7"/>
<circle cx="487" cy="435" r="2.0" fill="#22d3ee" opacity="0.7"/>
<circle cx="1548" cy="137" r="2.0" fill="#52b78e" opacity="0.7"/>
<circle cx="574" cy="48" r="2.0" fill="#22d3ee" opacity="0.7"/>
<circle cx="341" cy="204" r="16" fill="#52b78e" opacity="0.28" filter="url(#gl)"/>
<circle cx="341" cy="204" r="3.4" fill="#52b78e" opacity="1"/>
<circle cx="832" cy="295" r="2.0" fill="#22d3ee" opacity="0.7"/>
<circle cx="574" cy="96" r="2.0" fill="#52b78e" opacity="0.7"/>
<circle cx="884" cy="188" r="2.0" fill="#22d3ee" opacity="0.7"/>
<circle cx="567" cy="486" r="2.0" fill="#52b78e" opacity="0.7"/>
<circle cx="931" cy="28" r="16" fill="#22d3ee" opacity="0.28" filter="url(#gl)"/>
<circle cx="931" cy="28" r="3.4" fill="#22d3ee" opacity="1"/>
<circle cx="1487" cy="485" r="2.0" fill="#52b78e" opacity="0.7"/>
<circle cx="634" cy="489" r="2.0" fill="#22d3ee" opacity="0.7"/>
<circle cx="206" cy="460" r="2.0" fill="#52b78e" opacity="0.7"/>
<circle cx="302" cy="434" r="2.0" fill="#22d3ee" opacity="0.7"/>
<circle cx="1067" cy="479" r="16" fill="#52b78e" opacity="0.28" filter="url(#gl)"/>
<circle cx="1067" cy="479" r="3.4" fill="#52b78e" opacity="1"/>
<circle cx="503" cy="334" r="2.0" fill="#22d3ee" opacity="0.7"/>
<circle cx="1463" cy="82" r="2.0" fill="#52b78e" opacity="0.7"/>
<circle cx="326" cy="287" r="2.0" fill="#22d3ee" opacity="0.7"/>
<circle cx="249" cy="47" r="2.0" fill="#52b78e" opacity="0.7"/>
<circle cx="71" cy="187" r="16" fill="#22d3ee" opacity="0.28" filter="url(#gl)"/>
<circle cx="71" cy="187" r="3.4" fill="#22d3ee" opacity="1"/>
<circle cx="1026" cy="244" r="2.0" fill="#52b78e" opacity="0.7"/>
<circle cx="957" cy="33" r="2.0" fill="#22d3ee" opacity="0.7"/>
<circle cx="200" cy="291" r="2.0" fill="#52b78e" opacity="0.7"/>
<circle cx="284" cy="27" r="2.0" fill="#22d3ee" opacity="0.7"/>
<circle cx="141" cy="333" r="16" fill="#52b78e" opacity="0.28" filter="url(#gl)"/>
<circle cx="141" cy="333" r="3.4" fill="#52b78e" opacity="1"/>
</svg>