<svg xmlns="http://www.w3.org/2000/svg" viewBox="0 0 1600 520" preserveAspectRatio="xMidYMid slice">
<defs>
<radialGradient id="g1" cx="20%" cy="16%" r="75%"><stop offset="0%" stop-color="#2b8fe0" stop-opacity="0.72"/><stop offset="42%" stop-color="#2b8fe0" stop-opacity="0.20"/><stop offset="100%" stop-color="#2b8fe0" stop-opacity="0"/></radialGradient>
<radialGradient id="g2" cx="86%" cy="88%" r="72%"><stop offset="0%" stop-color="#22d3ee" stop-opacity="0.60"/><stop offset="45%" stop-color="#22d3ee" stop-opacity="0.14"/><stop offset="100%" stop-color="#22d3ee" stop-opacity="0"/></radialGradient>
<linearGradient id="bg" x1="0" y1="0" x2="1" y2="1"><stop offset="0%" stop-color="#0c1830"/><stop offset="55%" stop-color="#091324"/><stop offset="100%" stop-color="#070d18"/></linearGradient>
<filter id="gl"><feGaussianBlur stdDeviation="7"/></filter>
<pattern id="grid" width="44" height="44" patternUnits="userSpaceOnUse"><path d="M44 0H0V44" fill="none" stroke="#7fc8ff" stroke-opacity="0.06"/></pattern>
</defs>
<rect width="1600" height="520" fill="url(#bg)"/>
<rect width="1600" height="520" fill="url(#grid)"/>
<rect width="1600" height="520" fill="url(#g1)"/>
<rect width="1600" height="520" fill="url(#g2)"/>
<line x1="149" y1="177" x2="54" y2="156" stroke="#2b8fe0" stroke-opacity="0.35" stroke-width="1.1"/>
<line x1="149" y1="177" x2="449" y2="107" stroke="#2b8fe0" stroke-opacity="0.06" stroke-width="1.1"/>
<line x1="149" y1="177" x2="94" y2="296" stroke="#2b8fe0" stroke-opacity="0.29" stroke-width="1.1"/>
<line x1="149" y1="177" x2="165" y2="329" stroke="#2b8fe0" stroke-opacity="0.26" stroke-width="1.1"/>
<line x1="149" y1="177" x2="190" y2="300" stroke="#2b8fe0" stroke-opacity="0.30" stroke-width="1.1"/>
<line x1="149" y1="177" x2="68" y2="219" stroke="#2b8fe0" stroke-opacity="0.36" stroke-width="1.1"/>
<line x1="149" y1="177" x2="337" y2="302" stroke="#2b8fe0" stroke-opacity="0.15" stroke-width="1.1"/>
<line x1="149" y1="177" x2="52" y2="126" stroke="#2b8fe0" stroke-opacity="0.33" stroke-width="1.1"/>
<line x1="149" y1="177" x2="291" y2="412" stroke="#2b8fe0" stroke-opacity="0.07" stroke-width="1.1"/>
<line x1="149" y1="177" x2="218" y2="181" stroke="#2b8fe0" stroke-opacity="0.39" stroke-width="1.1"/>
<line x1="149" y1="177" x2="79" y2="23" stroke="#2b8fe0" stroke-opacity="0.24" stroke-width="1.1"/>
<line x1="54" y1="156" x2="94" y2="296" stroke="#2b8fe0" stroke-opacity="0.27" stroke-width="1.1"/>
<line x1="54" y1="156" x2="165" y2="329" stroke="#2b8fe0" stroke-opacity="0.18" stroke-width="1.1"/>
<line x1="54" y1="156" x2="190" y2="300" stroke="#2b8fe0" stroke-opacity="0.19" stroke-width="1.1"/>
<line x1="54" y1="156" x2="68" y2="219" stroke="#2b8fe0" stroke-opacity="0.40" stroke-width="1.1"/>
<line x1="54" y1="156" x2="337" y2="302" stroke="#2b8fe0" stroke-opacity="0.06" stroke-width="1.1"/>
<line x1="54" y1="156" x2="52" y2="126" stroke="#2b8fe0" stroke-opacity="0.45" stroke-width="1.1"/>
<line x1="54" y1="156" x2="218" y2="181" stroke="#2b8fe0" stroke-opacity="0.24" stroke-width="1.1"/>
<line x1="54" y1="156" x2="79" y2="23" stroke="#2b8fe0" stroke-opacity="0.29" stroke-width="1.1"/>
<line x1="1180" y1="353" x2="900" y2="249" stroke="#2b8fe0" stroke-opacity="0.06" stroke-width="1.1"/>
<line x1="1180" y1="353" x2="1094" y2="111" stroke="#2b8fe0" stroke-opacity="0.10" stroke-width="1.1"/>
<line x1="1180" y1="353" x2="1181" y2="339" stroke="#2b8fe0" stroke-opacity="0.48" stroke-width="1.1"/>
<line x1="1180" y1="353" x2="1193" y2="393" stroke="#2b8fe0" stroke-opacity="0.43" stroke-width="1.1"/>
<line x1="1180" y1="353" x2="1075" y2="161" stroke="#2b8fe0" stroke-opacity="0.16" stroke-width="1.1"/>
<line x1="1180" y1="353" x2="1374" y2="111" stroke="#2b8fe0" stroke-opacity="0.06" stroke-width="1.1"/>
<line x1="1180" y1="353" x2="1316" y2="474" stroke="#2b8fe0" stroke-opacity="0.22" stroke-width="1.1"/>
<line x1="1180" y1="353" x2="938" y2="173" stroke="#2b8fe0" stroke-opacity="0.06" stroke-width="1.1"/>
<line x1="1180" y1="353" x2="1096" y2="185" stroke="#2b8fe0" stroke-opacity="0.21" stroke-width="1.1"/>
<line x1="1180" y1="353" x2="1208" y2="255" stroke="#2b8fe0" stroke-opacity="0.34" stroke-width="1.1"/>
<line x1="1180" y1="353" x2="940" y2="294" stroke="#2b8fe0" stroke-opacity="0.11" stroke-width="1.1"/>
<line x1="1180" y1="353" x2="1143" y2="255" stroke="#2b8fe0" stroke-opacity="0.34" stroke-width="1.1"/>
<line x1="1180" y1="353" x2="1357" y2="191" stroke="#2b8fe0" stroke-opacity="0.12" stroke-width="1.1"/>
<line x1="1180" y1="353" x2="1233" y2="218" stroke="#2b8fe0" stroke-opacity="0.27" stroke-width="1.1"/>
<line x1="1180" y1="353" x2="1466" y2="488" stroke="#2b8fe0" stroke-opacity="0.06" stroke-width="1.1"/>
<line x1="1180" y1="353" x2="1380" y2="228" stroke="#2b8fe0" stroke-opacity="0.13" stroke-width="1.1"/>
<line x1="755" y1="381" x2="726" y2="434" stroke="#2b8fe0" stroke-opacity="0.41" stroke-width="1.1"/>
<line x1="755" y1="381" x2="900" y2="249" stroke="#2b8fe0" stroke-opacity="0.19" stroke-width="1.1"/>
<line x1="755" y1="381" x2="854" y2="124" stroke="#2b8fe0" stroke-opacity="0.07" stroke-width="1.1"/>
<line x1="755" y1="381" x2="661" y2="278" stroke="#2b8fe0" stroke-opacity="0.28" stroke-width="1.1"/>
<line x1="755" y1="381" x2="852" y2="448" stroke="#2b8fe0" stroke-opacity="0.32" stroke-width="1.1"/>
<line x1="755" y1="381" x2="666" y2="361" stroke="#2b8fe0" stroke-opacity="0.36" stroke-width="1.1"/>
<line x1="755" y1="381" x2="678" y2="483" stroke="#2b8fe0" stroke-opacity="0.30" stroke-width="1.1"/>
<line x1="755" y1="381" x2="809" y2="141" stroke="#2b8fe0" stroke-opacity="0.12" stroke-width="1.1"/>
<line x1="755" y1="381" x2="938" y2="173" stroke="#2b8fe0" stroke-opacity="0.07" stroke-width="1.1"/>
<line x1="755" y1="381" x2="940" y2="294" stroke="#2b8fe0" stroke-opacity="0.18" stroke-width="1.1"/>
<line x1="755" y1="381" x2="608" y2="439" stroke="#2b8fe0" stroke-opacity="0.25" stroke-width="1.1"/>
<line x1="755" y1="381" x2="818" y2="396" stroke="#2b8fe0" stroke-opacity="0.40" stroke-width="1.1"/>
<line x1="755" y1="381" x2="790" y2="241" stroke="#2b8fe0" stroke-opacity="0.27" stroke-width="1.1"/>
<line x1="726" y1="434" x2="900" y2="249" stroke="#2b8fe0" stroke-opacity="0.10" stroke-width="1.1"/>
<line x1="726" y1="434" x2="661" y2="278" stroke="#2b8fe0" stroke-opacity="0.24" stroke-width="1.1"/>
<line x1="726" y1="434" x2="852" y2="448" stroke="#2b8fe0" stroke-opacity="0.30" stroke-width="1.1"/>
<line x1="726" y1="434" x2="666" y2="361" stroke="#2b8fe0" stroke-opacity="0.35" stroke-width="1.1"/>
<line x1="726" y1="434" x2="678" y2="483" stroke="#2b8fe0" stroke-opacity="0.39" stroke-width="1.1"/>
<line x1="726" y1="434" x2="809" y2="141" stroke="#2b8fe0" stroke-opacity="0.06" stroke-width="1.1"/>
<line x1="726" y1="434" x2="940" y2="294" stroke="#2b8fe0" stroke-opacity="0.10" stroke-width="1.1"/>
<line x1="726" y1="434" x2="608" y2="439" stroke="#2b8fe0" stroke-opacity="0.32" stroke-width="1.1"/>
<line x1="726" y1="434" x2="818" y2="396" stroke="#2b8fe0" stroke-opacity="0.35" stroke-width="1.1"/>
<line x1="726" y1="434" x2="790" y2="241" stroke="#2b8fe0" stroke-opacity="0.18" stroke-width="1.1"/>
<line x1="965" y1="88" x2="900" y2="249" stroke="#2b8fe0" stroke-opacity="0.23" stroke-width="1.1"/>
<line x1="965" y1="88" x2="854" y2="124" stroke="#2b8fe0" stroke-opacity="0.32" stroke-width="1.1"/>
<line x1="965" y1="88" x2="1094" y2="111" stroke="#2b8fe0" stroke-opacity="0.30" stroke-width="1.1"/>
<line x1="965" y1="88" x2="1075" y2="161" stroke="#2b8fe0" stroke-opacity="0.29" stroke-width="1.1"/>
<line x1="965" y1="88" x2="809" y2="141" stroke="#2b8fe0" stroke-opacity="0.24" stroke-width="1.1"/>
<line x1="965" y1="88" x2="938" y2="173" stroke="#2b8fe0" stroke-opacity="0.36" stroke-width="1.1"/>
<line x1="965" y1="88" x2="1096" y2="185" stroke="#2b8fe0" stroke-opacity="0.25" stroke-width="1.1"/>
<line x1="965" y1="88" x2="1208" y2="255" stroke="#2b8fe0" stroke-opacity="0.06" stroke-width="1.1"/>
<line x1="965" y1="88" x2="940" y2="294" stroke="#2b8fe0" stroke-opacity="0.18" stroke-width="1.1"/>
<line x1="965" y1="88" x2="837" y2="24" stroke="#2b8fe0" stroke-opacity="0.28" stroke-width="1.1"/>
<line x1="965" y1="88" x2="1143" y2="255" stroke="#2b8fe0" stroke-opacity="0.12" stroke-width="1.1"/>
<line x1="965" y1="88" x2="790" y2="241" stroke="#2b8fe0" stroke-opacity="0.14" stroke-width="1.1"/>
<line x1="965" y1="88" x2="1233" y2="218" stroke="#2b8fe0" stroke-opacity="0.06" stroke-width="1.1"/>
<line x1="900" y1="249" x2="854" y2="124" stroke="#2b8fe0" stroke-opacity="0.29" stroke-width="1.1"/>
<line x1="900" y1="249" x2="1094" y2="111" stroke="#2b8fe0" stroke-opacity="0.13" stroke-width="1.1"/>
<line x1="900" y1="249" x2="1181" y2="339" stroke="#2b8fe0" stroke-opacity="0.06" stroke-width="1.1"/>
<line x1="900" y1="249" x2="661" y2="278" stroke="#2b8fe0" stroke-opacity="0.12" stroke-width="1.1"/>
<line x1="900" y1="249" x2="1075" y2="161" stroke="#2b8fe0" stroke-opacity="0.19" stroke-width="1.1"/>
<line x1="900" y1="249" x2="852" y2="448" stroke="#2b8fe0" stroke-opacity="0.18" stroke-width="1.1"/>
<line x1="900" y1="249" x2="666" y2="361" stroke="#2b8fe0" stroke-opacity="0.09" stroke-width="1.1"/>
<line x1="900" y1="249" x2="809" y2="141" stroke="#2b8fe0" stroke-opacity="0.28" stroke-width="1.1"/>
<line x1="900" y1="249" x2="938" y2="173" stroke="#2b8fe0" stroke-opacity="0.37" stroke-width="1.1"/>
<line x1="900" y1="249" x2="1096" y2="185" stroke="#2b8fe0" stroke-opacity="0.18" stroke-width="1.1"/>
<line x1="900" y1="249" x2="1208" y2="255" stroke="#2b8fe0" stroke-opacity="0.06" stroke-width="1.1"/>
<line x1="900" y1="249" x2="940" y2="294" stroke="#2b8fe0" stroke-opacity="0.41" stroke-width="1.1"/>
<line x1="900" y1="249" x2="837" y2="24" stroke="#2b8fe0" stroke-opacity="0.13" stroke-width="1.1"/>
<line x1="900" y1="249" x2="818" y2="396" stroke="#2b8fe0" stroke-opacity="0.24" stroke-width="1.1"/>
<line x1="900" y1="249" x2="1143" y2="255" stroke="#2b8fe0" stroke-opacity="0.12" stroke-width="1.1"/>
<line x1="900" y1="249" x2="790" y2="241" stroke="#2b8fe0" stroke-opacity="0.33" stroke-width="1.1"/>
<line x1="854" y1="124" x2="1094" y2="111" stroke="#2b8fe0" stroke-opacity="0.12" stroke-width="1.1"/>
<line x1="854" y1="124" x2="661" y2="278" stroke="#2b8fe0" stroke-opacity="0.11" stroke-width="1.1"/>
<line x1="854" y1="124" x2="1075" y2="161" stroke="#2b8fe0" stroke-opacity="0.15" stroke-width="1.1"/>
<line x1="854" y1="124" x2="666" y2="361" stroke="#2b8fe0" stroke-opacity="0.06" stroke-width="1.1"/>
<line x1="854" y1="124" x2="809" y2="141" stroke="#2b8fe0" stroke-opacity="0.42" stroke-width="1.1"/>
<line x1="854" y1="124" x2="938" y2="173" stroke="#2b8fe0" stroke-opacity="0.35" stroke-width="1.1"/>
<line x1="854" y1="124" x2="1096" y2="185" stroke="#2b8fe0" stroke-opacity="0.11" stroke-width="1.1"/>
<line x1="854" y1="124" x2="940" y2="294" stroke="#2b8fe0" stroke-opacity="0.20" stroke-width="1.1"/>
<line x1="854" y1="124" x2="837" y2="24" stroke="#2b8fe0" stroke-opacity="0.34" stroke-width="1.1"/>
<line x1="854" y1="124" x2="818" y2="396" stroke="#2b8fe0" stroke-opacity="0.07" stroke-width="1.1"/>
<line x1="854" y1="124" x2="1143" y2="255" stroke="#2b8fe0" stroke-opacity="0.06" stroke-width="1.1"/>
<line x1="854" y1="124" x2="790" y2="241" stroke="#2b8fe0" stroke-opacity="0.29" stroke-width="1.1"/>
<line x1="1094" y1="111" x2="1181" y2="339" stroke="#2b8fe0" stroke-opacity="0.12" stroke-width="1.1"/>
<line x1="1094" y1="111" x2="1193" y2="393" stroke="#2b8fe0" stroke-opacity="0.06" stroke-width="1.1"/>
<line x1="1094" y1="111" x2="1075" y2="161" stroke="#2b8fe0" stroke-opacity="0.42" stroke-width="1.1"/>
<line x1="1094" y1="111" x2="1374" y2="111" stroke="#2b8fe0" stroke-opacity="0.06" stroke-width="1.1"/>
<line x1="1094" y1="111" x2="809" y2="141" stroke="#2b8fe0" stroke-opacity="0.06" stroke-width="1.1"/>
<line x1="1094" y1="111" x2="938" y2="173" stroke="#2b8fe0" stroke-opacity="0.24" stroke-width="1.1"/>
<line x1="1094" y1="111" x2="1096" y2="185" stroke="#2b8fe0" stroke-opacity="0.39" stroke-width="1.1"/>
<line x1="1094" y1="111" x2="1208" y2="255" stroke="#2b8fe0" stroke-opacity="0.21" stroke-width="1.1"/>
<line x1="1094" y1="111" x2="940" y2="294" stroke="#2b8fe0" stroke-opacity="0.13" stroke-width="1.1"/>
<line x1="1094" y1="111" x2="837" y2="24" stroke="#2b8fe0" stroke-opacity="0.08" stroke-width="1.1"/>
<line x1="1094" y1="111" x2="1143" y2="255" stroke="#2b8fe0" stroke-opacity="0.26" stroke-width="1.1"/>
<line x1="1094" y1="111" x2="1357" y2="191" stroke="#2b8fe0" stroke-opacity="0.07" stroke-width="1.1"/>
<line x1="1094" y1="111" x2="1233" y2="218" stroke="#2b8fe0" stroke-opacity="0.23" stroke-width="1.1"/>
<line x1="1094" y1="111" x2="1380" y2="228" stroke="#2b8fe0" stroke-opacity="0.06" stroke-width="1.1"/>
<line x1="498" y1="135" x2="449" y2="107" stroke="#2b8fe0" stroke-opacity="0.41" stroke-width="1.1"/>
<line x1="498" y1="135" x2="661" y2="278" stroke="#2b8fe0" stroke-opacity="0.16" stroke-width="1.1"/>
<line x1="498" y1="135" x2="666" y2="361" stroke="#2b8fe0" stroke-opacity="0.06" stroke-width="1.1"/>
<line x1="498" y1="135" x2="809" y2="141" stroke="#2b8fe0" stroke-opacity="0.06" stroke-width="1.1"/>
<line x1="498" y1="135" x2="337" y2="302" stroke="#2b8fe0" stroke-opacity="0.14" stroke-width="1.1"/>
<line x1="498" y1="135" x2="790" y2="241" stroke="#2b8fe0" stroke-opacity="0.06" stroke-width="1.1"/>
<line x1="498" y1="135" x2="218" y2="181" stroke="#2b8fe0" stroke-opacity="0.06" stroke-width="1.1"/>
<line x1="449" y1="107" x2="661" y2="278" stroke="#2b8fe0" stroke-opacity="0.08" stroke-width="1.1"/>
<line x1="449" y1="107" x2="337" y2="302" stroke="#2b8fe0" stroke-opacity="0.15" stroke-width="1.1"/>
<line x1="449" y1="107" x2="218" y2="181" stroke="#2b8fe0" stroke-opacity="0.12" stroke-width="1.1"/>
<line x1="1181" y1="339" x2="1193" y2="393" stroke="#2b8fe0" stroke-opacity="0.41" stroke-width="1.1"/>
<line x1="1181" y1="339" x2="1075" y2="161" stroke="#2b8fe0" stroke-opacity="0.18" stroke-width="1.1"/>
<line x1="1181" y1="339" x2="1374" y2="111" stroke="#2b8fe0" stroke-opacity="0.06" stroke-width="1.1"/>
<line x1="1181" y1="339" x2="1316" y2="474" stroke="#2b8fe0" stroke-opacity="0.20" stroke-width="1.1"/>
<line x1="1181" y1="339" x2="938" y2="173" stroke="#2b8fe0" stroke-opacity="0.06" stroke-width="1.1"/>
<line x1="1181" y1="339" x2="1096" y2="185" stroke="#2b8fe0" stroke-opacity="0.22" stroke-width="1.1"/>
<line x1="1181" y1="339" x2="1208" y2="255" stroke="#2b8fe0" stroke-opacity="0.36" stroke-width="1.1"/>
<line x1="1181" y1="339" x2="940" y2="294" stroke="#2b8fe0" stroke-opacity="0.12" stroke-width="1.1"/>
<line x1="1181" y1="339" x2="1143" y2="255" stroke="#2b8fe0" stroke-opacity="0.36" stroke-width="1.1"/>
<line x1="1181" y1="339" x2="1357" y2="191" stroke="#2b8fe0" stroke-opacity="0.14" stroke-width="1.1"/>
<line x1="1181" y1="339" x2="1233" y2="218" stroke="#2b8fe0" stroke-opacity="0.29" stroke-width="1.1"/>
<line x1="1181" y1="339" x2="1380" y2="228" stroke="#2b8fe0" stroke-opacity="0.14" stroke-width="1.1"/>
<line x1="94" y1="296" x2="165" y2="329" stroke="#2b8fe0" stroke-opacity="0.38" stroke-width="1.1"/>
<line x1="94" y1="296" x2="190" y2="300" stroke="#2b8fe0" stroke-opacity="0.35" stroke-width="1.1"/>
<line x1="94" y1="296" x2="68" y2="219" stroke="#2b8fe0" stroke-opacity="0.37" stroke-width="1.1"/>
<line x1="94" y1="296" x2="337" y2="302" stroke="#2b8fe0" stroke-opacity="0.12" stroke-width="1.1"/>
<line x1="94" y1="296" x2="52" y2="126" stroke="#2b8fe0" stroke-opacity="0.23" stroke-width="1.1"/>
<line x1="94" y1="296" x2="291" y2="412" stroke="#2b8fe0" stroke-opacity="0.14" stroke-width="1.1"/>
<line x1="94" y1="296" x2="218" y2="181" stroke="#2b8fe0" stroke-opacity="0.24" stroke-width="1.1"/>
<line x1="94" y1="296" x2="79" y2="23" stroke="#2b8fe0" stroke-opacity="0.07" stroke-width="1.1"/>
<line x1="165" y1="329" x2="190" y2="300" stroke="#2b8fe0" stroke-opacity="0.44" stroke-width="1.1"/>
<line x1="165" y1="329" x2="68" y2="219" stroke="#2b8fe0" stroke-opacity="0.27" stroke-width="1.1"/>
<line x1="165" y1="329" x2="337" y2="302" stroke="#2b8fe0" stroke-opacity="0.23" stroke-width="1.1"/>
<line x1="165" y1="329" x2="52" y2="126" stroke="#2b8fe0" stroke-opacity="0.14" stroke-width="1.1"/>
<line x1="165" y1="329" x2="291" y2="412" stroke="#2b8fe0" stroke-opacity="0.26" stroke-width="1.1"/>
<line x1="165" y1="329" x2="218" y2="181" stroke="#2b8fe0" stroke-opacity="0.26" stroke-width="1.1"/>
<line x1="165" y1="329" x2="79" y2="23" stroke="#2b8fe0" stroke-opacity="0.06" stroke-width="1.1"/>
<line x1="661" y1="278" x2="852" y2="448" stroke="#2b8fe0" stroke-opacity="0.10" stroke-width="1.1"/>
<line x1="661" y1="278" x2="666" y2="361" stroke="#2b8fe0" stroke-opacity="0.37" stroke-width="1.1"/>
<line x1="661" y1="278" x2="678" y2="483" stroke="#2b8fe0" stroke-opacity="0.18" stroke-width="1.1"/>
<line x1="661" y1="278" x2="809" y2="141" stroke="#2b8fe0" stroke-opacity="0.18" stroke-width="1.1"/>
<line x1="661" y1="278" x2="938" y2="173" stroke="#2b8fe0" stroke-opacity="0.06" stroke-width="1.1"/>
<line x1="661" y1="278" x2="940" y2="294" stroke="#2b8fe0" stroke-opacity="0.06" stroke-width="1.1"/>
<line x1="661" y1="278" x2="837" y2="24" stroke="#2b8fe0" stroke-opacity="0.06" stroke-width="1.1"/>
<line x1="661" y1="278" x2="608" y2="439" stroke="#2b8fe0" stroke-opacity="0.24" stroke-width="1.1"/>
<line x1="661" y1="278" x2="818" y2="396" stroke="#2b8fe0" stroke-opacity="0.19" stroke-width="1.1"/>
<line x1="661" y1="278" x2="790" y2="241" stroke="#2b8fe0" stroke-opacity="0.29" stroke-width="1.1"/>
<line x1="1193" y1="393" x2="1075" y2="161" stroke="#2b8fe0" stroke-opacity="0.09" stroke-width="1.1"/>
<line x1="1193" y1="393" x2="1316" y2="474" stroke="#2b8fe0" stroke-opacity="0.27" stroke-width="1.1"/>
<line x1="1193" y1="393" x2="1096" y2="185" stroke="#2b8fe0" stroke-opacity="0.14" stroke-width="1.1"/>
<line x1="1193" y1="393" x2="1208" y2="255" stroke="#2b8fe0" stroke-opacity="0.28" stroke-width="1.1"/>
<line x1="1193" y1="393" x2="940" y2="294" stroke="#2b8fe0" stroke-opacity="0.07" stroke-width="1.1"/>
<line x1="1193" y1="393" x2="1143" y2="255" stroke="#2b8fe0" stroke-opacity="0.27" stroke-width="1.1"/>
<line x1="1193" y1="393" x2="1357" y2="191" stroke="#2b8fe0" stroke-opacity="0.09" stroke-width="1.1"/>
<line x1="1193" y1="393" x2="1233" y2="218" stroke="#2b8fe0" stroke-opacity="0.22" stroke-width="1.1"/>
<line x1="1193" y1="393" x2="1466" y2="488" stroke="#2b8fe0" stroke-opacity="0.06" stroke-width="1.1"/>
<line x1="1193" y1="393" x2="1380" y2="228" stroke="#2b8fe0" stroke-opacity="0.11" stroke-width="1.1"/>
<line x1="1075" y1="161" x2="1374" y2="111" stroke="#2b8fe0" stroke-opacity="0.06" stroke-width="1.1"/>
<line x1="1075" y1="161" x2="809" y2="141" stroke="#2b8fe0" stroke-opacity="0.08" stroke-width="1.1"/>
<line x1="1075" y1="161" x2="938" y2="173" stroke="#2b8fe0" stroke-opacity="0.28" stroke-width="1.1"/>
<line x1="1075" y1="161" x2="1096" y2="185" stroke="#2b8fe0" stroke-opacity="0.45" stroke-width="1.1"/>
<line x1="1075" y1="161" x2="1208" y2="255" stroke="#2b8fe0" stroke-opacity="0.25" stroke-width="1.1"/>
<line x1="1075" y1="161" x2="940" y2="294" stroke="#2b8fe0" stroke-opacity="0.20" stroke-width="1.1"/>
<line x1="1075" y1="161" x2="837" y2="24" stroke="#2b8fe0" stroke-opacity="0.07" stroke-width="1.1"/>
<line x1="1075" y1="161" x2="1143" y2="255" stroke="#2b8fe0" stroke-opacity="0.32" stroke-width="1.1"/>
<line x1="1075" y1="161" x2="790" y2="241" stroke="#2b8fe0" stroke-opacity="0.06" stroke-width="1.1"/>
<line x1="1075" y1="161" x2="1357" y2="191" stroke="#2b8fe0" stroke-opacity="0.06" stroke-width="1.1"/>
<line x1="1075" y1="161" x2="1233" y2="218" stroke="#2b8fe0" stroke-opacity="0.24" stroke-width="1.1"/>
<line x1="1075" y1="161" x2="1380" y2="228" stroke="#2b8fe0" stroke-opacity="0.06" stroke-width="1.1"/>
<line x1="190" y1="300" x2="68" y2="219" stroke="#2b8fe0" stroke-opacity="0.27" stroke-width="1.1"/>
<line x1="190" y1="300" x2="337" y2="302" stroke="#2b8fe0" stroke-opacity="0.27" stroke-width="1.1"/>
<line x1="190" y1="300" x2="52" y2="126" stroke="#2b8fe0" stroke-opacity="0.15" stroke-width="1.1"/>
<line x1="190" y1="300" x2="291" y2="412" stroke="#2b8fe0" stroke-opacity="0.26" stroke-width="1.1"/>
<line x1="190" y1="300" x2="218" y2="181" stroke="#2b8fe0" stroke-opacity="0.31" stroke-width="1.1"/>
<line x1="190" y1="300" x2="79" y2="23" stroke="#2b8fe0" stroke-opacity="0.06" stroke-width="1.1"/>
<line x1="852" y1="448" x2="666" y2="361" stroke="#2b8fe0" stroke-opacity="0.18" stroke-width="1.1"/>
<line x1="852" y1="448" x2="678" y2="483" stroke="#2b8fe0" stroke-opacity="0.22" stroke-width="1.1"/>
<line x1="852" y1="448" x2="809" y2="141" stroke="#2b8fe0" stroke-opacity="0.06" stroke-width="1.1"/>
<line x1="852" y1="448" x2="938" y2="173" stroke="#2b8fe0" stroke-opacity="0.06" stroke-width="1.1"/>
<line x1="852" y1="448" x2="940" y2="294" stroke="#2b8fe0" stroke-opacity="0.22" stroke-width="1.1"/>
<line x1="852" y1="448" x2="608" y2="439" stroke="#2b8fe0" stroke-opacity="0.12" stroke-width="1.1"/>
<line x1="852" y1="448" x2="818" y2="396" stroke="#2b8fe0" stroke-opacity="0.40" stroke-width="1.1"/>
<line x1="852" y1="448" x2="790" y2="241" stroke="#2b8fe0" stroke-opacity="0.16" stroke-width="1.1"/>
<line x1="1374" y1="111" x2="1096" y2="185" stroke="#2b8fe0" stroke-opacity="0.06" stroke-width="1.1"/>
<line x1="1374" y1="111" x2="1208" y2="255" stroke="#2b8fe0" stroke-opacity="0.16" stroke-width="1.1"/>
<line x1="1374" y1="111" x2="1484" y2="39" stroke="#2b8fe0" stroke-opacity="0.30" stroke-width="1.1"/>
<line x1="1374" y1="111" x2="1143" y2="255" stroke="#2b8fe0" stroke-opacity="0.07" stroke-width="1.1"/>
<line x1="1374" y1="111" x2="1357" y2="191" stroke="#2b8fe0" stroke-opacity="0.37" stroke-width="1.1"/>
<line x1="1374" y1="111" x2="1233" y2="218" stroke="#2b8fe0" stroke-opacity="0.22" stroke-width="1.1"/>
<line x1="1374" y1="111" x2="1380" y2="228" stroke="#2b8fe0" stroke-opacity="0.32" stroke-width="1.1"/>
<line x1="1374" y1="111" x2="1498" y2="184" stroke="#2b8fe0" stroke-opacity="0.28" stroke-width="1.1"/>
<line x1="666" y1="361" x2="678" y2="483" stroke="#2b8fe0" stroke-opacity="0.31" stroke-width="1.1"/>
<line x1="666" y1="361" x2="809" y2="141" stroke="#2b8fe0" stroke-opacity="0.09" stroke-width="1.1"/>
<line x1="666" y1="361" x2="940" y2="294" stroke="#2b8fe0" stroke-opacity="0.06" stroke-width="1.1"/>
<line x1="666" y1="361" x2="608" y2="439" stroke="#2b8fe0" stroke-opacity="0.35" stroke-width="1.1"/>
<line x1="666" y1="361" x2="818" y2="396" stroke="#2b8fe0" stroke-opacity="0.26" stroke-width="1.1"/>
<line x1="666" y1="361" x2="790" y2="241" stroke="#2b8fe0" stroke-opacity="0.23" stroke-width="1.1"/>
<line x1="678" y1="483" x2="608" y2="439" stroke="#2b8fe0" stroke-opacity="0.37" stroke-width="1.1"/>
<line x1="678" y1="483" x2="818" y2="396" stroke="#2b8fe0" stroke-opacity="0.24" stroke-width="1.1"/>
<line x1="678" y1="483" x2="790" y2="241" stroke="#2b8fe0" stroke-opacity="0.08" stroke-width="1.1"/>
<line x1="68" y1="219" x2="337" y2="302" stroke="#2b8fe0" stroke-opacity="0.06" stroke-width="1.1"/>
<line x1="68" y1="219" x2="52" y2="126" stroke="#2b8fe0" stroke-opacity="0.35" stroke-width="1.1"/>
<line x1="68" y1="219" x2="291" y2="412" stroke="#2b8fe0" stroke-opacity="0.06" stroke-width="1.1"/>
<line x1="68" y1="219" x2="218" y2="181" stroke="#2b8fe0" stroke-opacity="0.26" stroke-width="1.1"/>
<line x1="68" y1="219" x2="79" y2="23" stroke="#2b8fe0" stroke-opacity="0.19" stroke-width="1.1"/>
<line x1="1316" y1="474" x2="1208" y2="255" stroke="#2b8fe0" stroke-opacity="0.12" stroke-width="1.1"/>
<line x1="1316" y1="474" x2="1143" y2="255" stroke="#2b8fe0" stroke-opacity="0.06" stroke-width="1.1"/>
<line x1="1316" y1="474" x2="1357" y2="191" stroke="#2b8fe0" stroke-opacity="0.06" stroke-width="1.1"/>
<line x1="1316" y1="474" x2="1233" y2="218" stroke="#2b8fe0" stroke-opacity="0.08" stroke-width="1.1"/>
<line x1="1316" y1="474" x2="1466" y2="488" stroke="#2b8fe0" stroke-opacity="0.26" stroke-width="1.1"/>
<line x1="1316" y1="474" x2="1380" y2="228" stroke="#2b8fe0" stroke-opacity="0.10" stroke-width="1.1"/>
<line x1="1316" y1="474" x2="1532" y2="432" stroke="#2b8fe0" stroke-opacity="0.15" stroke-width="1.1"/>
<line x1="809" y1="141" x2="938" y2="173" stroke="#2b8fe0" stroke-opacity="0.29" stroke-width="1.1"/>
<line x1="809" y1="141" x2="1096" y2="185" stroke="#2b8fe0" stroke-opacity="0.06" stroke-width="1.1"/>
<line x1="809" y1="141" x2="940" y2="294" stroke="#2b8fe0" stroke-opacity="0.19" stroke-width="1.1"/>
<line x1="809" y1="141" x2="837" y2="24" stroke="#2b8fe0" stroke-opacity="0.31" stroke-width="1.1"/>
<line x1="809" y1="141" x2="818" y2="396" stroke="#2b8fe0" stroke-opacity="0.10" stroke-width="1.1"/>
<line x1="809" y1="141" x2="790" y2="241" stroke="#2b8fe0" stroke-opacity="0.34" stroke-width="1.1"/>
<line x1="938" y1="173" x2="1096" y2="185" stroke="#2b8fe0" stroke-opacity="0.25" stroke-width="1.1"/>
<line x1="938" y1="173" x2="1208" y2="255" stroke="#2b8fe0" stroke-opacity="0.06" stroke-width="1.1"/>
<line x1="938" y1="173" x2="940" y2="294" stroke="#2b8fe0" stroke-opacity="0.31" stroke-width="1.1"/>
<line x1="938" y1="173" x2="837" y2="24" stroke="#2b8fe0" stroke-opacity="0.22" stroke-width="1.1"/>
<line x1="938" y1="173" x2="818" y2="396" stroke="#2b8fe0" stroke-opacity="0.11" stroke-width="1.1"/>
<line x1="938" y1="173" x2="1143" y2="255" stroke="#2b8fe0" stroke-opacity="0.15" stroke-width="1.1"/>
<line x1="938" y1="173" x2="790" y2="241" stroke="#2b8fe0" stroke-opacity="0.25" stroke-width="1.1"/>
<line x1="938" y1="173" x2="1233" y2="218" stroke="#2b8fe0" stroke-opacity="0.06" stroke-width="1.1"/>
<line x1="1096" y1="185" x2="1208" y2="255" stroke="#2b8fe0" stroke-opacity="0.29" stroke-width="1.1"/>
<line x1="1096" y1="185" x2="940" y2="294" stroke="#2b8fe0" stroke-opacity="0.20" stroke-width="1.1"/>
<line x1="1096" y1="185" x2="837" y2="24" stroke="#2b8fe0" stroke-opacity="0.06" stroke-width="1.1"/>
<line x1="1096" y1="185" x2="1143" y2="255" stroke="#2b8fe0" stroke-opacity="0.37" stroke-width="1.1"/>
<line x1="1096" y1="185" x2="790" y2="241" stroke="#2b8fe0" stroke-opacity="0.06" stroke-width="1.1"/>
<line x1="1096" y1="185" x2="1357" y2="191" stroke="#2b8fe0" stroke-opacity="0.09" stroke-width="1.1"/>
<line x1="1096" y1="185" x2="1233" y2="218" stroke="#2b8fe0" stroke-opacity="0.28" stroke-width="1.1"/>
<line x1="1096" y1="185" x2="1380" y2="228" stroke="#2b8fe0" stroke-opacity="0.06" stroke-width="1.1"/>
<line x1="337" y1="302" x2="608" y2="439" stroke="#2b8fe0" stroke-opacity="0.06" stroke-width="1.1"/>
<line x1="337" y1="302" x2="291" y2="412" stroke="#2b8fe0" stroke-opacity="0.31" stroke-width="1.1"/>
<line x1="337" y1="302" x2="218" y2="181" stroke="#2b8fe0" stroke-opacity="0.24" stroke-width="1.1"/>
<line x1="1208" y1="255" x2="940" y2="294" stroke="#2b8fe0" stroke-opacity="0.08" stroke-width="1.1"/>
<line x1="1208" y1="255" x2="1143" y2="255" stroke="#2b8fe0" stroke-opacity="0.40" stroke-width="1.1"/>
<line x1="1208" y1="255" x2="1357" y2="191" stroke="#2b8fe0" stroke-opacity="0.25" stroke-width="1.1"/>
<line x1="1208" y1="255" x2="1233" y2="218" stroke="#2b8fe0" stroke-opacity="0.43" stroke-width="1.1"/>
<line x1="1208" y1="255" x2="1380" y2="228" stroke="#2b8fe0" stroke-opacity="0.23" stroke-width="1.1"/>
<line x1="1208" y1="255" x2="1498" y2="184" stroke="#2b8fe0" stroke-opacity="0.06" stroke-width="1.1"/>
<line x1="940" y1="294" x2="837" y2="24" stroke="#2b8fe0" stroke-opacity="0.06" stroke-width="1.1"/>
<line x1="940" y1="294" x2="818" y2="396" stroke="#2b8fe0" stroke-opacity="0.25" stroke-width="1.1"/>
<line x1="940" y1="294" x2="1143" y2="255" stroke="#2b8fe0" stroke-opacity="0.18" stroke-width="1.1"/>
<line x1="940" y1="294" x2="790" y2="241" stroke="#2b8fe0" stroke-opacity="0.25" stroke-width="1.1"/>
<line x1="940" y1="294" x2="1233" y2="218" stroke="#2b8fe0" stroke-opacity="0.06" stroke-width="1.1"/>
<line x1="837" y1="24" x2="790" y2="241" stroke="#2b8fe0" stroke-opacity="0.15" stroke-width="1.1"/>
<line x1="608" y1="439" x2="818" y2="396" stroke="#2b8fe0" stroke-opacity="0.17" stroke-width="1.1"/>
<line x1="608" y1="439" x2="790" y2="241" stroke="#2b8fe0" stroke-opacity="0.08" stroke-width="1.1"/>
<line x1="608" y1="439" x2="291" y2="412" stroke="#2b8fe0" stroke-opacity="0.06" stroke-width="1.1"/>
<line x1="818" y1="396" x2="790" y2="241" stroke="#2b8fe0" stroke-opacity="0.26" stroke-width="1.1"/>
<line x1="1484" y1="39" x2="1357" y2="191" stroke="#2b8fe0" stroke-opacity="0.19" stroke-width="1.1"/>
<line x1="1484" y1="39" x2="1233" y2="218" stroke="#2b8fe0" stroke-opacity="0.06" stroke-width="1.1"/>
<line x1="1484" y1="39" x2="1380" y2="228" stroke="#2b8fe0" stroke-opacity="0.16" stroke-width="1.1"/>
<line x1="1484" y1="39" x2="1498" y2="184" stroke="#2b8fe0" stroke-opacity="0.27" stroke-width="1.1"/>
<line x1="1143" y1="255" x2="1357" y2="191" stroke="#2b8fe0" stroke-opacity="0.15" stroke-width="1.1"/>
<line x1="1143" y1="255" x2="1233" y2="218" stroke="#2b8fe0" stroke-opacity="0.35" stroke-width="1.1"/>
<line x1="1143" y1="255" x2="1380" y2="228" stroke="#2b8fe0" stroke-opacity="0.13" stroke-width="1.1"/>
<line x1="52" y1="126" x2="218" y2="181" stroke="#2b8fe0" stroke-opacity="0.23" stroke-width="1.1"/>
<line x1="52" y1="126" x2="79" y2="23" stroke="#2b8fe0" stroke-opacity="0.33" stroke-width="1.1"/>
<line x1="1357" y1="191" x2="1233" y2="218" stroke="#2b8fe0" stroke-opacity="0.30" stroke-width="1.1"/>
<line x1="1357" y1="191" x2="1466" y2="488" stroke="#2b8fe0" stroke-opacity="0.06" stroke-width="1.1"/>
<line x1="1357" y1="191" x2="1380" y2="228" stroke="#2b8fe0" stroke-opacity="0.43" stroke-width="1.1"/>
<line x1="1357" y1="191" x2="1532" y2="432" stroke="#2b8fe0" stroke-opacity="0.06" stroke-width="1.1"/>
<line x1="1357" y1="191" x2="1498" y2="184" stroke="#2b8fe0" stroke-opacity="0.28" stroke-width="1.1"/>
<line x1="1233" y1="218" x2="1380" y2="228" stroke="#2b8fe0" stroke-opacity="0.27" stroke-width="1.1"/>
<line x1="1233" y1="218" x2="1498" y2="184" stroke="#2b8fe0" stroke-opacity="0.08" stroke-width="1.1"/>
<line x1="1466" y1="488" x2="1380" y2="228" stroke="#2b8fe0" stroke-opacity="0.07" stroke-width="1.1"/>
<line x1="1466" y1="488" x2="1532" y2="432" stroke="#2b8fe0" stroke-opacity="0.36" stroke-width="1.1"/>
<line x1="1466" y1="488" x2="1498" y2="184" stroke="#2b8fe0" stroke-opacity="0.06" stroke-width="1.1"/>
<line x1="291" y1="412" x2="218" y2="181" stroke="#2b8fe0" stroke-opacity="0.12" stroke-width="1.1"/>
<line x1="218" y1="181" x2="79" y2="23" stroke="#2b8fe0" stroke-opacity="0.17" stroke-width="1.1"/>
<line x1="1380" y1="228" x2="1532" y2="432" stroke="#2b8fe0" stroke-opacity="0.10" stroke-width="1.1"/>
<line x1="1380" y1="228" x2="1498" y2="184" stroke="#2b8fe0" stroke-opacity="0.30" stroke-width="1.1"/>
<line x1="1532" y1="432" x2="1498" y2="184" stroke="#2b8fe0" stroke-opacity="0.11" stroke-width="1.1"/>
<circle cx="149" cy="177" r="16" fill="#2b8fe0" opacity="0.28" filter="url(#gl)"/>
<circle cx="149" cy="177" r="3.4" fill="#2b8fe0" opacity="1"/>
<circle cx="54" cy="156" r="2.0" fill="#22d3ee" opacity="0.7"/>
<circle cx="1180" cy="353" r="2.0" fill="#2b8fe0" opacity="0.7"/>
<circle cx="755" cy="381" r="2.0" fill="#22d3ee" opacity="0.7"/>
<circle cx="726" cy="434" r="2.0" fill="#2b8fe0" opacity="0.7"/>
<circle cx="965" cy="88" r="16" fill="#22d3ee" opacity="0.28" filter="url(#gl)"/>
<circle cx="965" cy="88" r="3.4" fill="#22d3ee" opacity="1"/>
<circle cx="900" cy="249" r="2.0" fill="#2b8fe0" opacity="0.7"/>
<circle cx="854" cy="124" r="2.0" fill="#22d3ee" opacity="0.7"/>
<circle cx="1094" cy="111" r="2.0" fill="#2b8fe0" opacity="0.7"/>
<circle cx="498" cy="135" r="2.0" fill="#22d3ee" opacity="0.7"/>
<circle cx="449" cy="107" r="16" fill="#2b8fe0" opacity="0.28" filter="url(#gl)"/>
<circle cx="449" cy="107" r="3.4" fill="#2b8fe0" opacity="1"/>
<circle cx="1181" cy="339" r="2.0" fill="#22d3ee" opacity="0.7"/>
<circle cx="94" cy="296" r="2.0" fill="#2b8fe0" opacity="0.7"/>
<circle cx="165" cy="329" r="2.0" fill="#22d3ee" opacity="0.7"/>
<circle cx="661" cy="278" r="2.0" fill="#2b8fe0" opacity="0.7"/>
<circle cx="1193" cy="393" r="16" fill="#22d3ee" opacity="0.28" filter="url(#gl)"/>
<circle cx="1193" cy="393" r="3.4" fill="#22d3ee" opacity="1"/>
<circle cx="1075" cy="161" r="2.0" fill="#2b8fe0" opacity="0.7"/>
<circle cx="190" cy="300" r="2.0" fill="#22d3ee" opacity="0.7"/>
<circle cx="852" cy="448" r="2.0" fill="#2b8fe0" opacity="0.7"/>
<circle cx="1374" cy="111" r="2.0" fill="#22d3ee" opacity="0.7"/>
<circle cx="666" cy="361" r="16" fill="#2b8fe0" opacity="0.28" filter="url(#gl)"/>
<circle cx="666" cy="361" r="3.4" fill="#2b8fe0" opacity="1"/>
<circle cx="678" cy="483" r="2.0" fill="#22d3ee" opacity="0.7"/>
<circle cx="68" cy="219" r="2.0" fill="#2b8fe0" opacity="0.7"/>
<circle cx="1316" cy="474" r="2.0" fill="#22d3ee" opacity="0.7"/>
<circle cx="809" cy="141" r="2.0" fill="#2b8fe0" opacity="0.7"/>
<circle cx="938" cy="173" r="16" fill="#22d3ee" opacity="0.28" filter="url(#gl)"/>
<circle cx="938" cy="173" r="3.4" fill="#22d3ee" opacity="1"/>
<circle cx="1096" cy="185" r="2.0" fill="#2b8fe0" opacity="0.7"/>
<circle cx="337" cy="302" r="2.0" fill="#22d3ee" opacity="0.7"/>
<circle cx="1208" cy="255" r="2.0" fill="#2b8fe0" opacity="0.7"/>
<circle cx="940" cy="294" r="2.0" fill="#22d3ee" opacity="0.7"/>
<circle cx="837" cy="24" r="16" fill="#2b8fe0" opacity="0.28" filter="url(#gl)"/>
<circle cx="837" cy="24" r="3.4" fill="#2b8fe0" opacity="1"/>
<circle cx="608" cy="439" r="2.0" fill="#22d3ee" opacity="0.7"/>
<circle cx="818" cy="396" r="2.0" fill="#2b8fe0" opacity="0.7"/>
<circle cx="1484" cy="39" r="2.0" fill="#22d3ee" opacity="0.7"/>
<circle cx="1143" cy="255" r="2.0" fill="#2b8fe0" opacity="0.7"/>
<circle cx="52" cy="126" r="16" fill="#22d3ee" opacity="0.28" filter="url(#gl)"/>
<circle cx="52" cy="126" r="3.4" fill="#22d3ee" opacity="1"/>
<circle cx="790" cy="241" r="2.0" fill="#2b8fe0" opacity="0.7"/>
<circle cx="1357" cy="191" r="2.0" fill="#22d3ee" opacity="0.7"/>
<circle cx="1233" cy="218" r="2.0" fill="#2b8fe0" opacity="0.7"/>
<circle cx="1466" cy="488" r="2.0" fill="#22d3ee" opacity="0.7"/>
<circle cx="291" cy="412" r="16" fill="#2b8fe0" opacity="0.28" filter="url(#gl)"/>
<circle cx="291" cy="412" r="3.4" fill="#2b8fe0" opacity="1"/>
<circle cx="218" cy="181" r="2.0" fill="#22d3ee" opacity="0.7"/>
<circle cx="1380" cy="228" r="2.0" fill="#2b8fe0" opacity="0.7"/>
<circle cx="79" cy="23" r="2.0" fill="#22d3ee" opacity="0.7"/>
<circle cx="1532" cy="432" r="2.0" fill="#2b8fe0" opacity="0.7"/>
<circle cx="1498" cy="184" r="16" fill="#22d3ee" opacity="0.28" filter="url(#gl)"/>
<circle cx="1498" cy="184" r="3.4" fill="#22d3ee" opacity="1"/>
</svg>