<svg xmlns="http://www.w3.org/2000/svg" viewBox="0 0 1000 750" preserveAspectRatio="xMidYMid slice">
<defs>
<radialGradient id="g1" cx="20%" cy="16%" r="75%"><stop offset="0%" stop-color="#7b7bff" stop-opacity="0.72"/><stop offset="42%" stop-color="#7b7bff" stop-opacity="0.20"/><stop offset="100%" stop-color="#7b7bff" stop-opacity="0"/></radialGradient>
<radialGradient id="g2" cx="86%" cy="88%" r="72%"><stop offset="0%" stop-color="#2b8fe0" stop-opacity="0.60"/><stop offset="45%" stop-color="#2b8fe0" stop-opacity="0.14"/><stop offset="100%" stop-color="#2b8fe0" stop-opacity="0"/></radialGradient>
<linearGradient id="bg" x1="0" y1="0" x2="1" y2="1"><stop offset="0%" stop-color="#0c1830"/><stop offset="55%" stop-color="#091324"/><stop offset="100%" stop-color="#070d18"/></linearGradient>
<filter id="gl"><feGaussianBlur stdDeviation="7"/></filter>
<pattern id="grid" width="44" height="44" patternUnits="userSpaceOnUse"><path d="M44 0H0V44" fill="none" stroke="#7fc8ff" stroke-opacity="0.06"/></pattern>
</defs>
<rect width="1000" height="750" fill="url(#bg)"/>
<rect width="1000" height="750" fill="url(#grid)"/>
<rect width="1000" height="750" fill="url(#g1)"/>
<rect width="1000" height="750" fill="url(#g2)"/>
<line x1="509" y1="442" x2="461" y2="607" stroke="#7b7bff" stroke-opacity="0.07" stroke-width="1.1"/>
<line x1="509" y1="442" x2="386" y2="464" stroke="#7b7bff" stroke-opacity="0.19" stroke-width="1.1"/>
<line x1="509" y1="442" x2="520" y2="342" stroke="#7b7bff" stroke-opacity="0.25" stroke-width="1.1"/>
<line x1="509" y1="442" x2="537" y2="624" stroke="#7b7bff" stroke-opacity="0.06" stroke-width="1.1"/>
<line x1="509" y1="442" x2="612" y2="348" stroke="#7b7bff" stroke-opacity="0.15" stroke-width="1.1"/>
<line x1="509" y1="442" x2="482" y2="260" stroke="#7b7bff" stroke-opacity="0.06" stroke-width="1.1"/>
<line x1="509" y1="442" x2="703" y2="458" stroke="#7b7bff" stroke-opacity="0.06" stroke-width="1.1"/>
<line x1="314" y1="672" x2="461" y2="607" stroke="#7b7bff" stroke-opacity="0.10" stroke-width="1.1"/>
<line x1="314" y1="672" x2="394" y2="702" stroke="#7b7bff" stroke-opacity="0.29" stroke-width="1.1"/>
<line x1="314" y1="672" x2="402" y2="704" stroke="#7b7bff" stroke-opacity="0.26" stroke-width="1.1"/>
<line x1="314" y1="672" x2="458" y2="698" stroke="#7b7bff" stroke-opacity="0.13" stroke-width="1.1"/>
<line x1="716" y1="555" x2="720" y2="439" stroke="#7b7bff" stroke-opacity="0.21" stroke-width="1.1"/>
<line x1="716" y1="555" x2="537" y2="624" stroke="#7b7bff" stroke-opacity="0.06" stroke-width="1.1"/>
<line x1="716" y1="555" x2="681" y2="605" stroke="#7b7bff" stroke-opacity="0.35" stroke-width="1.1"/>
<line x1="716" y1="555" x2="788" y2="714" stroke="#7b7bff" stroke-opacity="0.06" stroke-width="1.1"/>
<line x1="716" y1="555" x2="760" y2="687" stroke="#7b7bff" stroke-opacity="0.15" stroke-width="1.1"/>
<line x1="716" y1="555" x2="630" y2="615" stroke="#7b7bff" stroke-opacity="0.24" stroke-width="1.1"/>
<line x1="716" y1="555" x2="703" y2="458" stroke="#7b7bff" stroke-opacity="0.25" stroke-width="1.1"/>
<line x1="461" y1="607" x2="386" y2="464" stroke="#7b7bff" stroke-opacity="0.10" stroke-width="1.1"/>
<line x1="461" y1="607" x2="394" y2="702" stroke="#7b7bff" stroke-opacity="0.21" stroke-width="1.1"/>
<line x1="461" y1="607" x2="537" y2="624" stroke="#7b7bff" stroke-opacity="0.30" stroke-width="1.1"/>
<line x1="461" y1="607" x2="402" y2="704" stroke="#7b7bff" stroke-opacity="0.22" stroke-width="1.1"/>
<line x1="461" y1="607" x2="458" y2="698" stroke="#7b7bff" stroke-opacity="0.27" stroke-width="1.1"/>
<line x1="461" y1="607" x2="630" y2="615" stroke="#7b7bff" stroke-opacity="0.08" stroke-width="1.1"/>
<line x1="720" y1="439" x2="763" y2="355" stroke="#7b7bff" stroke-opacity="0.27" stroke-width="1.1"/>
<line x1="720" y1="439" x2="906" y2="460" stroke="#7b7bff" stroke-opacity="0.06" stroke-width="1.1"/>
<line x1="720" y1="439" x2="675" y2="294" stroke="#7b7bff" stroke-opacity="0.12" stroke-width="1.1"/>
<line x1="720" y1="439" x2="831" y2="316" stroke="#7b7bff" stroke-opacity="0.09" stroke-width="1.1"/>
<line x1="720" y1="439" x2="612" y2="348" stroke="#7b7bff" stroke-opacity="0.15" stroke-width="1.1"/>
<line x1="720" y1="439" x2="681" y2="605" stroke="#7b7bff" stroke-opacity="0.07" stroke-width="1.1"/>
<line x1="720" y1="439" x2="630" y2="615" stroke="#7b7bff" stroke-opacity="0.06" stroke-width="1.1"/>
<line x1="720" y1="439" x2="703" y2="458" stroke="#7b7bff" stroke-opacity="0.44" stroke-width="1.1"/>
<line x1="130" y1="341" x2="164" y2="257" stroke="#7b7bff" stroke-opacity="0.27" stroke-width="1.1"/>
<line x1="130" y1="341" x2="107" y2="441" stroke="#7b7bff" stroke-opacity="0.24" stroke-width="1.1"/>
<line x1="130" y1="341" x2="312" y2="364" stroke="#7b7bff" stroke-opacity="0.06" stroke-width="1.1"/>
<line x1="130" y1="341" x2="222" y2="490" stroke="#7b7bff" stroke-opacity="0.06" stroke-width="1.1"/>
<line x1="130" y1="341" x2="78" y2="465" stroke="#7b7bff" stroke-opacity="0.16" stroke-width="1.1"/>
<line x1="942" y1="415" x2="763" y2="355" stroke="#7b7bff" stroke-opacity="0.06" stroke-width="1.1"/>
<line x1="942" y1="415" x2="906" y2="460" stroke="#7b7bff" stroke-opacity="0.36" stroke-width="1.1"/>
<line x1="942" y1="415" x2="831" y2="316" stroke="#7b7bff" stroke-opacity="0.13" stroke-width="1.1"/>
<line x1="942" y1="415" x2="916" y2="588" stroke="#7b7bff" stroke-opacity="0.06" stroke-width="1.1"/>
<line x1="386" y1="464" x2="520" y2="342" stroke="#7b7bff" stroke-opacity="0.06" stroke-width="1.1"/>
<line x1="386" y1="464" x2="312" y2="364" stroke="#7b7bff" stroke-opacity="0.19" stroke-width="1.1"/>
<line x1="386" y1="464" x2="222" y2="490" stroke="#7b7bff" stroke-opacity="0.09" stroke-width="1.1"/>
<line x1="164" y1="257" x2="107" y2="441" stroke="#7b7bff" stroke-opacity="0.06" stroke-width="1.1"/>
<line x1="164" y1="257" x2="312" y2="364" stroke="#7b7bff" stroke-opacity="0.06" stroke-width="1.1"/>
<line x1="763" y1="355" x2="906" y2="460" stroke="#7b7bff" stroke-opacity="0.06" stroke-width="1.1"/>
<line x1="763" y1="355" x2="675" y2="294" stroke="#7b7bff" stroke-opacity="0.23" stroke-width="1.1"/>
<line x1="763" y1="355" x2="831" y2="316" stroke="#7b7bff" stroke-opacity="0.30" stroke-width="1.1"/>
<line x1="763" y1="355" x2="612" y2="348" stroke="#7b7bff" stroke-opacity="0.12" stroke-width="1.1"/>
<line x1="763" y1="355" x2="724" y2="203" stroke="#7b7bff" stroke-opacity="0.11" stroke-width="1.1"/>
<line x1="763" y1="355" x2="703" y2="458" stroke="#7b7bff" stroke-opacity="0.20" stroke-width="1.1"/>
<line x1="394" y1="702" x2="537" y2="624" stroke="#7b7bff" stroke-opacity="0.09" stroke-width="1.1"/>
<line x1="394" y1="702" x2="402" y2="704" stroke="#7b7bff" stroke-opacity="0.48" stroke-width="1.1"/>
<line x1="394" y1="702" x2="458" y2="698" stroke="#7b7bff" stroke-opacity="0.34" stroke-width="1.1"/>
<line x1="520" y1="342" x2="494" y2="225" stroke="#7b7bff" stroke-opacity="0.20" stroke-width="1.1"/>
<line x1="520" y1="342" x2="675" y2="294" stroke="#7b7bff" stroke-opacity="0.10" stroke-width="1.1"/>
<line x1="520" y1="342" x2="612" y2="348" stroke="#7b7bff" stroke-opacity="0.27" stroke-width="1.1"/>
<line x1="520" y1="342" x2="482" y2="260" stroke="#7b7bff" stroke-opacity="0.28" stroke-width="1.1"/>
<line x1="520" y1="342" x2="530" y2="195" stroke="#7b7bff" stroke-opacity="0.13" stroke-width="1.1"/>
<line x1="107" y1="441" x2="222" y2="490" stroke="#7b7bff" stroke-opacity="0.19" stroke-width="1.1"/>
<line x1="107" y1="441" x2="78" y2="465" stroke="#7b7bff" stroke-opacity="0.41" stroke-width="1.1"/>
<line x1="494" y1="225" x2="675" y2="294" stroke="#7b7bff" stroke-opacity="0.06" stroke-width="1.1"/>
<line x1="494" y1="225" x2="612" y2="348" stroke="#7b7bff" stroke-opacity="0.07" stroke-width="1.1"/>
<line x1="494" y1="225" x2="482" y2="260" stroke="#7b7bff" stroke-opacity="0.41" stroke-width="1.1"/>
<line x1="494" y1="225" x2="530" y2="195" stroke="#7b7bff" stroke-opacity="0.38" stroke-width="1.1"/>
<line x1="906" y1="460" x2="831" y2="316" stroke="#7b7bff" stroke-opacity="0.09" stroke-width="1.1"/>
<line x1="906" y1="460" x2="916" y2="588" stroke="#7b7bff" stroke-opacity="0.18" stroke-width="1.1"/>
<line x1="537" y1="624" x2="402" y2="704" stroke="#7b7bff" stroke-opacity="0.11" stroke-width="1.1"/>
<line x1="537" y1="624" x2="458" y2="698" stroke="#7b7bff" stroke-opacity="0.23" stroke-width="1.1"/>
<line x1="537" y1="624" x2="681" y2="605" stroke="#7b7bff" stroke-opacity="0.14" stroke-width="1.1"/>
<line x1="537" y1="624" x2="630" y2="615" stroke="#7b7bff" stroke-opacity="0.27" stroke-width="1.1"/>
<line x1="402" y1="704" x2="458" y2="698" stroke="#7b7bff" stroke-opacity="0.36" stroke-width="1.1"/>
<line x1="675" y1="294" x2="831" y2="316" stroke="#7b7bff" stroke-opacity="0.11" stroke-width="1.1"/>
<line x1="675" y1="294" x2="612" y2="348" stroke="#7b7bff" stroke-opacity="0.29" stroke-width="1.1"/>
<line x1="675" y1="294" x2="482" y2="260" stroke="#7b7bff" stroke-opacity="0.06" stroke-width="1.1"/>
<line x1="675" y1="294" x2="724" y2="203" stroke="#7b7bff" stroke-opacity="0.24" stroke-width="1.1"/>
<line x1="675" y1="294" x2="703" y2="458" stroke="#7b7bff" stroke-opacity="0.08" stroke-width="1.1"/>
<line x1="675" y1="294" x2="530" y2="195" stroke="#7b7bff" stroke-opacity="0.06" stroke-width="1.1"/>
<line x1="458" y1="698" x2="630" y2="615" stroke="#7b7bff" stroke-opacity="0.06" stroke-width="1.1"/>
<line x1="602" y1="39" x2="530" y2="195" stroke="#7b7bff" stroke-opacity="0.07" stroke-width="1.1"/>
<line x1="831" y1="316" x2="724" y2="203" stroke="#7b7bff" stroke-opacity="0.11" stroke-width="1.1"/>
<line x1="831" y1="316" x2="703" y2="458" stroke="#7b7bff" stroke-opacity="0.06" stroke-width="1.1"/>
<line x1="312" y1="364" x2="222" y2="490" stroke="#7b7bff" stroke-opacity="0.11" stroke-width="1.1"/>
<line x1="312" y1="364" x2="482" y2="260" stroke="#7b7bff" stroke-opacity="0.06" stroke-width="1.1"/>
<line x1="222" y1="490" x2="78" y2="465" stroke="#7b7bff" stroke-opacity="0.13" stroke-width="1.1"/>
<line x1="612" y1="348" x2="482" y2="260" stroke="#7b7bff" stroke-opacity="0.11" stroke-width="1.1"/>
<line x1="612" y1="348" x2="724" y2="203" stroke="#7b7bff" stroke-opacity="0.06" stroke-width="1.1"/>
<line x1="612" y1="348" x2="703" y2="458" stroke="#7b7bff" stroke-opacity="0.14" stroke-width="1.1"/>
<line x1="612" y1="348" x2="530" y2="195" stroke="#7b7bff" stroke-opacity="0.07" stroke-width="1.1"/>
<line x1="482" y1="260" x2="530" y2="195" stroke="#7b7bff" stroke-opacity="0.30" stroke-width="1.1"/>
<line x1="681" y1="605" x2="788" y2="714" stroke="#7b7bff" stroke-opacity="0.12" stroke-width="1.1"/>
<line x1="681" y1="605" x2="760" y2="687" stroke="#7b7bff" stroke-opacity="0.21" stroke-width="1.1"/>
<line x1="681" y1="605" x2="630" y2="615" stroke="#7b7bff" stroke-opacity="0.37" stroke-width="1.1"/>
<line x1="681" y1="605" x2="703" y2="458" stroke="#7b7bff" stroke-opacity="0.13" stroke-width="1.1"/>
<line x1="788" y1="714" x2="760" y2="687" stroke="#7b7bff" stroke-opacity="0.40" stroke-width="1.1"/>
<line x1="788" y1="714" x2="630" y2="615" stroke="#7b7bff" stroke-opacity="0.06" stroke-width="1.1"/>
<line x1="788" y1="714" x2="916" y2="588" stroke="#7b7bff" stroke-opacity="0.06" stroke-width="1.1"/>
<line x1="760" y1="687" x2="630" y2="615" stroke="#7b7bff" stroke-opacity="0.13" stroke-width="1.1"/>
<line x1="760" y1="687" x2="916" y2="588" stroke="#7b7bff" stroke-opacity="0.06" stroke-width="1.1"/>
<line x1="630" y1="615" x2="703" y2="458" stroke="#7b7bff" stroke-opacity="0.07" stroke-width="1.1"/>
<line x1="724" y1="203" x2="530" y2="195" stroke="#7b7bff" stroke-opacity="0.06" stroke-width="1.1"/>
<circle cx="509" cy="442" r="16" fill="#7b7bff" opacity="0.28" filter="url(#gl)"/>
<circle cx="509" cy="442" r="3.4" fill="#7b7bff" opacity="1"/>
<circle cx="314" cy="672" r="2.0" fill="#2b8fe0" opacity="0.7"/>
<circle cx="716" cy="555" r="2.0" fill="#7b7bff" opacity="0.7"/>
<circle cx="461" cy="607" r="2.0" fill="#2b8fe0" opacity="0.7"/>
<circle cx="720" cy="439" r="2.0" fill="#7b7bff" opacity="0.7"/>
<circle cx="130" cy="341" r="16" fill="#2b8fe0" opacity="0.28" filter="url(#gl)"/>
<circle cx="130" cy="341" r="3.4" fill="#2b8fe0" opacity="1"/>
<circle cx="942" cy="415" r="2.0" fill="#7b7bff" opacity="0.7"/>
<circle cx="386" cy="464" r="2.0" fill="#2b8fe0" opacity="0.7"/>
<circle cx="164" cy="257" r="2.0" fill="#7b7bff" opacity="0.7"/>
<circle cx="763" cy="355" r="2.0" fill="#2b8fe0" opacity="0.7"/>
<circle cx="394" cy="702" r="16" fill="#7b7bff" opacity="0.28" filter="url(#gl)"/>
<circle cx="394" cy="702" r="3.4" fill="#7b7bff" opacity="1"/>
<circle cx="520" cy="342" r="2.0" fill="#2b8fe0" opacity="0.7"/>
<circle cx="107" cy="441" r="2.0" fill="#7b7bff" opacity="0.7"/>
<circle cx="494" cy="225" r="2.0" fill="#2b8fe0" opacity="0.7"/>
<circle cx="906" cy="460" r="2.0" fill="#7b7bff" opacity="0.7"/>
<circle cx="537" cy="624" r="16" fill="#2b8fe0" opacity="0.28" filter="url(#gl)"/>
<circle cx="537" cy="624" r="3.4" fill="#2b8fe0" opacity="1"/>
<circle cx="402" cy="704" r="2.0" fill="#7b7bff" opacity="0.7"/>
<circle cx="675" cy="294" r="2.0" fill="#2b8fe0" opacity="0.7"/>
<circle cx="458" cy="698" r="2.0" fill="#7b7bff" opacity="0.7"/>
<circle cx="602" cy="39" r="2.0" fill="#2b8fe0" opacity="0.7"/>
<circle cx="831" cy="316" r="16" fill="#7b7bff" opacity="0.28" filter="url(#gl)"/>
<circle cx="831" cy="316" r="3.4" fill="#7b7bff" opacity="1"/>
<circle cx="312" cy="364" r="2.0" fill="#2b8fe0" opacity="0.7"/>
<circle cx="222" cy="490" r="2.0" fill="#7b7bff" opacity="0.7"/>
<circle cx="612" cy="348" r="2.0" fill="#2b8fe0" opacity="0.7"/>
<circle cx="482" cy="260" r="2.0" fill="#7b7bff" opacity="0.7"/>
<circle cx="681" cy="605" r="16" fill="#2b8fe0" opacity="0.28" filter="url(#gl)"/>
<circle cx="681" cy="605" r="3.4" fill="#2b8fe0" opacity="1"/>
<circle cx="78" cy="465" r="2.0" fill="#7b7bff" opacity="0.7"/>
<circle cx="788" cy="714" r="2.0" fill="#2b8fe0" opacity="0.7"/>
<circle cx="760" cy="687" r="2.0" fill="#7b7bff" opacity="0.7"/>
<circle cx="630" cy="615" r="2.0" fill="#2b8fe0" opacity="0.7"/>
<circle cx="724" cy="203" r="16" fill="#7b7bff" opacity="0.28" filter="url(#gl)"/>
<circle cx="724" cy="203" r="3.4" fill="#7b7bff" opacity="1"/>
<circle cx="703" cy="458" r="2.0" fill="#2b8fe0" opacity="0.7"/>
<circle cx="530" cy="195" r="2.0" fill="#7b7bff" opacity="0.7"/>
<circle cx="916" cy="588" r="2.0" fill="#2b8fe0" opacity="0.7"/>
</svg>