<svg xmlns="http://www.w3.org/2000/svg" viewBox="0 0 1000 750" preserveAspectRatio="xMidYMid slice">
<defs>
<radialGradient id="g1" cx="20%" cy="16%" r="75%"><stop offset="0%" stop-color="#22d3ee" stop-opacity="0.72"/><stop offset="42%" stop-color="#22d3ee" stop-opacity="0.20"/><stop offset="100%" stop-color="#22d3ee" stop-opacity="0"/></radialGradient>
<radialGradient id="g2" cx="86%" cy="88%" r="72%"><stop offset="0%" stop-color="#5cb2f5" stop-opacity="0.60"/><stop offset="45%" stop-color="#5cb2f5" stop-opacity="0.14"/><stop offset="100%" stop-color="#5cb2f5" stop-opacity="0"/></radialGradient>
<linearGradient id="bg" x1="0" y1="0" x2="1" y2="1"><stop offset="0%" stop-color="#0c1830"/><stop offset="55%" stop-color="#091324"/><stop offset="100%" stop-color="#070d18"/></linearGradient>
<filter id="gl"><feGaussianBlur stdDeviation="7"/></filter>
<pattern id="grid" width="44" height="44" patternUnits="userSpaceOnUse"><path d="M44 0H0V44" fill="none" stroke="#7fc8ff" stroke-opacity="0.06"/></pattern>
</defs>
<rect width="1000" height="750" fill="url(#bg)"/>
<rect width="1000" height="750" fill="url(#grid)"/>
<rect width="1000" height="750" fill="url(#g1)"/>
<rect width="1000" height="750" fill="url(#g2)"/>
<line x1="414" y1="404" x2="386" y2="309" stroke="#22d3ee" stroke-opacity="0.25" stroke-width="1.1"/>
<line x1="414" y1="404" x2="585" y2="403" stroke="#22d3ee" stroke-opacity="0.07" stroke-width="1.1"/>
<line x1="414" y1="404" x2="249" y2="344" stroke="#22d3ee" stroke-opacity="0.06" stroke-width="1.1"/>
<line x1="840" y1="152" x2="680" y2="255" stroke="#22d3ee" stroke-opacity="0.06" stroke-width="1.1"/>
<line x1="840" y1="152" x2="931" y2="104" stroke="#22d3ee" stroke-opacity="0.24" stroke-width="1.1"/>
<line x1="840" y1="152" x2="819" y2="60" stroke="#22d3ee" stroke-opacity="0.26" stroke-width="1.1"/>
<line x1="840" y1="152" x2="965" y2="276" stroke="#22d3ee" stroke-opacity="0.06" stroke-width="1.1"/>
<line x1="242" y1="50" x2="140" y2="36" stroke="#22d3ee" stroke-opacity="0.24" stroke-width="1.1"/>
<line x1="242" y1="50" x2="96" y2="95" stroke="#22d3ee" stroke-opacity="0.12" stroke-width="1.1"/>
<line x1="242" y1="50" x2="207" y2="208" stroke="#22d3ee" stroke-opacity="0.10" stroke-width="1.1"/>
<line x1="242" y1="50" x2="263" y2="64" stroke="#22d3ee" stroke-opacity="0.44" stroke-width="1.1"/>
<line x1="242" y1="50" x2="440" y2="56" stroke="#22d3ee" stroke-opacity="0.06" stroke-width="1.1"/>
<line x1="242" y1="50" x2="178" y2="184" stroke="#22d3ee" stroke-opacity="0.13" stroke-width="1.1"/>
<line x1="242" y1="50" x2="217" y2="107" stroke="#22d3ee" stroke-opacity="0.35" stroke-width="1.1"/>
<line x1="140" y1="36" x2="96" y2="95" stroke="#22d3ee" stroke-opacity="0.32" stroke-width="1.1"/>
<line x1="140" y1="36" x2="207" y2="208" stroke="#22d3ee" stroke-opacity="0.06" stroke-width="1.1"/>
<line x1="140" y1="36" x2="263" y2="64" stroke="#22d3ee" stroke-opacity="0.18" stroke-width="1.1"/>
<line x1="140" y1="36" x2="178" y2="184" stroke="#22d3ee" stroke-opacity="0.12" stroke-width="1.1"/>
<line x1="140" y1="36" x2="217" y2="107" stroke="#22d3ee" stroke-opacity="0.24" stroke-width="1.1"/>
<line x1="177" y1="384" x2="63" y2="296" stroke="#22d3ee" stroke-opacity="0.14" stroke-width="1.1"/>
<line x1="177" y1="384" x2="207" y2="208" stroke="#22d3ee" stroke-opacity="0.06" stroke-width="1.1"/>
<line x1="177" y1="384" x2="249" y2="344" stroke="#22d3ee" stroke-opacity="0.29" stroke-width="1.1"/>
<line x1="960" y1="509" x2="811" y2="465" stroke="#22d3ee" stroke-opacity="0.11" stroke-width="1.1"/>
<line x1="960" y1="509" x2="776" y2="502" stroke="#22d3ee" stroke-opacity="0.06" stroke-width="1.1"/>
<line x1="386" y1="309" x2="249" y2="344" stroke="#22d3ee" stroke-opacity="0.15" stroke-width="1.1"/>
<line x1="680" y1="255" x2="610" y2="107" stroke="#22d3ee" stroke-opacity="0.09" stroke-width="1.1"/>
<line x1="680" y1="255" x2="644" y2="257" stroke="#22d3ee" stroke-opacity="0.41" stroke-width="1.1"/>
<line x1="680" y1="255" x2="585" y2="403" stroke="#22d3ee" stroke-opacity="0.06" stroke-width="1.1"/>
<line x1="680" y1="255" x2="638" y2="405" stroke="#22d3ee" stroke-opacity="0.11" stroke-width="1.1"/>
<line x1="99" y1="611" x2="44" y2="550" stroke="#22d3ee" stroke-opacity="0.29" stroke-width="1.1"/>
<line x1="610" y1="107" x2="440" y2="56" stroke="#22d3ee" stroke-opacity="0.06" stroke-width="1.1"/>
<line x1="610" y1="107" x2="644" y2="257" stroke="#22d3ee" stroke-opacity="0.12" stroke-width="1.1"/>
<line x1="610" y1="107" x2="600" y2="71" stroke="#22d3ee" stroke-opacity="0.41" stroke-width="1.1"/>
<line x1="96" y1="95" x2="207" y2="208" stroke="#22d3ee" stroke-opacity="0.10" stroke-width="1.1"/>
<line x1="96" y1="95" x2="263" y2="64" stroke="#22d3ee" stroke-opacity="0.07" stroke-width="1.1"/>
<line x1="96" y1="95" x2="178" y2="184" stroke="#22d3ee" stroke-opacity="0.20" stroke-width="1.1"/>
<line x1="96" y1="95" x2="217" y2="107" stroke="#22d3ee" stroke-opacity="0.20" stroke-width="1.1"/>
<line x1="931" y1="104" x2="819" y2="60" stroke="#22d3ee" stroke-opacity="0.20" stroke-width="1.1"/>
<line x1="931" y1="104" x2="965" y2="276" stroke="#22d3ee" stroke-opacity="0.06" stroke-width="1.1"/>
<line x1="618" y1="699" x2="479" y2="663" stroke="#22d3ee" stroke-opacity="0.14" stroke-width="1.1"/>
<line x1="618" y1="699" x2="663" y2="594" stroke="#22d3ee" stroke-opacity="0.21" stroke-width="1.1"/>
<line x1="618" y1="699" x2="701" y2="539" stroke="#22d3ee" stroke-opacity="0.06" stroke-width="1.1"/>
<line x1="63" y1="296" x2="207" y2="208" stroke="#22d3ee" stroke-opacity="0.08" stroke-width="1.1"/>
<line x1="63" y1="296" x2="249" y2="344" stroke="#22d3ee" stroke-opacity="0.06" stroke-width="1.1"/>
<line x1="63" y1="296" x2="178" y2="184" stroke="#22d3ee" stroke-opacity="0.10" stroke-width="1.1"/>
<line x1="479" y1="663" x2="663" y2="594" stroke="#22d3ee" stroke-opacity="0.06" stroke-width="1.1"/>
<line x1="479" y1="663" x2="355" y2="596" stroke="#22d3ee" stroke-opacity="0.15" stroke-width="1.1"/>
<line x1="479" y1="663" x2="350" y2="608" stroke="#22d3ee" stroke-opacity="0.15" stroke-width="1.1"/>
<line x1="207" y1="208" x2="263" y2="64" stroke="#22d3ee" stroke-opacity="0.11" stroke-width="1.1"/>
<line x1="207" y1="208" x2="249" y2="344" stroke="#22d3ee" stroke-opacity="0.14" stroke-width="1.1"/>
<line x1="207" y1="208" x2="178" y2="184" stroke="#22d3ee" stroke-opacity="0.40" stroke-width="1.1"/>
<line x1="207" y1="208" x2="217" y2="107" stroke="#22d3ee" stroke-opacity="0.25" stroke-width="1.1"/>
<line x1="263" y1="64" x2="440" y2="56" stroke="#22d3ee" stroke-opacity="0.06" stroke-width="1.1"/>
<line x1="263" y1="64" x2="178" y2="184" stroke="#22d3ee" stroke-opacity="0.13" stroke-width="1.1"/>
<line x1="263" y1="64" x2="217" y2="107" stroke="#22d3ee" stroke-opacity="0.34" stroke-width="1.1"/>
<line x1="663" y1="594" x2="701" y2="539" stroke="#22d3ee" stroke-opacity="0.33" stroke-width="1.1"/>
<line x1="663" y1="594" x2="811" y2="465" stroke="#22d3ee" stroke-opacity="0.06" stroke-width="1.1"/>
<line x1="663" y1="594" x2="776" y2="502" stroke="#22d3ee" stroke-opacity="0.14" stroke-width="1.1"/>
<line x1="663" y1="594" x2="638" y2="405" stroke="#22d3ee" stroke-opacity="0.06" stroke-width="1.1"/>
<line x1="440" y1="56" x2="600" y2="71" stroke="#22d3ee" stroke-opacity="0.10" stroke-width="1.1"/>
<line x1="701" y1="539" x2="811" y2="465" stroke="#22d3ee" stroke-opacity="0.17" stroke-width="1.1"/>
<line x1="701" y1="539" x2="585" y2="403" stroke="#22d3ee" stroke-opacity="0.06" stroke-width="1.1"/>
<line x1="701" y1="539" x2="776" y2="502" stroke="#22d3ee" stroke-opacity="0.29" stroke-width="1.1"/>
<line x1="701" y1="539" x2="638" y2="405" stroke="#22d3ee" stroke-opacity="0.13" stroke-width="1.1"/>
<line x1="644" y1="257" x2="585" y2="403" stroke="#22d3ee" stroke-opacity="0.11" stroke-width="1.1"/>
<line x1="644" y1="257" x2="638" y2="405" stroke="#22d3ee" stroke-opacity="0.13" stroke-width="1.1"/>
<line x1="644" y1="257" x2="600" y2="71" stroke="#22d3ee" stroke-opacity="0.06" stroke-width="1.1"/>
<line x1="811" y1="465" x2="776" y2="502" stroke="#22d3ee" stroke-opacity="0.37" stroke-width="1.1"/>
<line x1="811" y1="465" x2="638" y2="405" stroke="#22d3ee" stroke-opacity="0.06" stroke-width="1.1"/>
<line x1="585" y1="403" x2="638" y2="405" stroke="#22d3ee" stroke-opacity="0.37" stroke-width="1.1"/>
<line x1="249" y1="344" x2="178" y2="184" stroke="#22d3ee" stroke-opacity="0.06" stroke-width="1.1"/>
<line x1="776" y1="502" x2="638" y2="405" stroke="#22d3ee" stroke-opacity="0.08" stroke-width="1.1"/>
<line x1="355" y1="596" x2="350" y2="608" stroke="#22d3ee" stroke-opacity="0.47" stroke-width="1.1"/>
<line x1="178" y1="184" x2="217" y2="107" stroke="#22d3ee" stroke-opacity="0.28" stroke-width="1.1"/>
<circle cx="414" cy="404" r="16" fill="#22d3ee" opacity="0.28" filter="url(#gl)"/>
<circle cx="414" cy="404" r="3.4" fill="#22d3ee" opacity="1"/>
<circle cx="840" cy="152" r="2.0" fill="#5cb2f5" opacity="0.7"/>
<circle cx="242" cy="50" r="2.0" fill="#22d3ee" opacity="0.7"/>
<circle cx="140" cy="36" r="2.0" fill="#5cb2f5" opacity="0.7"/>
<circle cx="177" cy="384" r="2.0" fill="#22d3ee" opacity="0.7"/>
<circle cx="960" cy="509" r="16" fill="#5cb2f5" opacity="0.28" filter="url(#gl)"/>
<circle cx="960" cy="509" r="3.4" fill="#5cb2f5" opacity="1"/>
<circle cx="386" cy="309" r="2.0" fill="#22d3ee" opacity="0.7"/>
<circle cx="680" cy="255" r="2.0" fill="#5cb2f5" opacity="0.7"/>
<circle cx="99" cy="611" r="2.0" fill="#22d3ee" opacity="0.7"/>
<circle cx="610" cy="107" r="2.0" fill="#5cb2f5" opacity="0.7"/>
<circle cx="96" cy="95" r="16" fill="#22d3ee" opacity="0.28" filter="url(#gl)"/>
<circle cx="96" cy="95" r="3.4" fill="#22d3ee" opacity="1"/>
<circle cx="931" cy="104" r="2.0" fill="#5cb2f5" opacity="0.7"/>
<circle cx="618" cy="699" r="2.0" fill="#22d3ee" opacity="0.7"/>
<circle cx="63" cy="296" r="2.0" fill="#5cb2f5" opacity="0.7"/>
<circle cx="479" cy="663" r="2.0" fill="#22d3ee" opacity="0.7"/>
<circle cx="207" cy="208" r="16" fill="#5cb2f5" opacity="0.28" filter="url(#gl)"/>
<circle cx="207" cy="208" r="3.4" fill="#5cb2f5" opacity="1"/>
<circle cx="263" cy="64" r="2.0" fill="#22d3ee" opacity="0.7"/>
<circle cx="663" cy="594" r="2.0" fill="#5cb2f5" opacity="0.7"/>
<circle cx="440" cy="56" r="2.0" fill="#22d3ee" opacity="0.7"/>
<circle cx="701" cy="539" r="2.0" fill="#5cb2f5" opacity="0.7"/>
<circle cx="644" cy="257" r="16" fill="#22d3ee" opacity="0.28" filter="url(#gl)"/>
<circle cx="644" cy="257" r="3.4" fill="#22d3ee" opacity="1"/>
<circle cx="811" cy="465" r="2.0" fill="#5cb2f5" opacity="0.7"/>
<circle cx="585" cy="403" r="2.0" fill="#22d3ee" opacity="0.7"/>
<circle cx="249" cy="344" r="2.0" fill="#5cb2f5" opacity="0.7"/>
<circle cx="776" cy="502" r="2.0" fill="#22d3ee" opacity="0.7"/>
<circle cx="355" cy="596" r="16" fill="#5cb2f5" opacity="0.28" filter="url(#gl)"/>
<circle cx="355" cy="596" r="3.4" fill="#5cb2f5" opacity="1"/>
<circle cx="819" cy="60" r="2.0" fill="#22d3ee" opacity="0.7"/>
<circle cx="178" cy="184" r="2.0" fill="#5cb2f5" opacity="0.7"/>
<circle cx="44" cy="550" r="2.0" fill="#22d3ee" opacity="0.7"/>
<circle cx="638" cy="405" r="2.0" fill="#5cb2f5" opacity="0.7"/>
<circle cx="965" cy="276" r="16" fill="#22d3ee" opacity="0.28" filter="url(#gl)"/>
<circle cx="965" cy="276" r="3.4" fill="#22d3ee" opacity="1"/>
<circle cx="217" cy="107" r="2.0" fill="#5cb2f5" opacity="0.7"/>
<circle cx="350" cy="608" r="2.0" fill="#22d3ee" opacity="0.7"/>
<circle cx="600" cy="71" r="2.0" fill="#5cb2f5" opacity="0.7"/>
</svg>