<svg xmlns="http://www.w3.org/2000/svg" viewBox="0 0 1000 750" preserveAspectRatio="xMidYMid slice">
<defs>
<radialGradient id="g1" cx="20%" cy="16%" r="75%"><stop offset="0%" stop-color="#5cb2f5" stop-opacity="0.72"/><stop offset="42%" stop-color="#5cb2f5" stop-opacity="0.20"/><stop offset="100%" stop-color="#5cb2f5" stop-opacity="0"/></radialGradient>
<radialGradient id="g2" cx="86%" cy="88%" r="72%"><stop offset="0%" stop-color="#3aa0ff" stop-opacity="0.60"/><stop offset="45%" stop-color="#3aa0ff" stop-opacity="0.14"/><stop offset="100%" stop-color="#3aa0ff" stop-opacity="0"/></radialGradient>
<linearGradient id="bg" x1="0" y1="0" x2="1" y2="1"><stop offset="0%" stop-color="#0c1830"/><stop offset="55%" stop-color="#091324"/><stop offset="100%" stop-color="#070d18"/></linearGradient>
<filter id="gl"><feGaussianBlur stdDeviation="7"/></filter>
<pattern id="grid" width="44" height="44" patternUnits="userSpaceOnUse"><path d="M44 0H0V44" fill="none" stroke="#7fc8ff" stroke-opacity="0.06"/></pattern>
</defs>
<rect width="1000" height="750" fill="url(#bg)"/>
<rect width="1000" height="750" fill="url(#grid)"/>
<rect width="1000" height="750" fill="url(#g1)"/>
<rect width="1000" height="750" fill="url(#g2)"/>
<line x1="410" y1="168" x2="490" y2="321" stroke="#5cb2f5" stroke-opacity="0.07" stroke-width="1.1"/>
<line x1="410" y1="168" x2="606" y2="180" stroke="#5cb2f5" stroke-opacity="0.06" stroke-width="1.1"/>
<line x1="410" y1="168" x2="408" y2="216" stroke="#5cb2f5" stroke-opacity="0.38" stroke-width="1.1"/>
<line x1="410" y1="168" x2="366" y2="179" stroke="#5cb2f5" stroke-opacity="0.39" stroke-width="1.1"/>
<line x1="410" y1="168" x2="430" y2="89" stroke="#5cb2f5" stroke-opacity="0.30" stroke-width="1.1"/>
<line x1="410" y1="168" x2="321" y2="34" stroke="#5cb2f5" stroke-opacity="0.10" stroke-width="1.1"/>
<line x1="410" y1="168" x2="272" y2="309" stroke="#5cb2f5" stroke-opacity="0.06" stroke-width="1.1"/>
<line x1="198" y1="201" x2="37" y2="171" stroke="#5cb2f5" stroke-opacity="0.09" stroke-width="1.1"/>
<line x1="198" y1="201" x2="366" y2="179" stroke="#5cb2f5" stroke-opacity="0.08" stroke-width="1.1"/>
<line x1="198" y1="201" x2="82" y2="176" stroke="#5cb2f5" stroke-opacity="0.20" stroke-width="1.1"/>
<line x1="198" y1="201" x2="272" y2="309" stroke="#5cb2f5" stroke-opacity="0.17" stroke-width="1.1"/>
<line x1="744" y1="203" x2="606" y2="180" stroke="#5cb2f5" stroke-opacity="0.15" stroke-width="1.1"/>
<line x1="744" y1="203" x2="878" y2="288" stroke="#5cb2f5" stroke-opacity="0.10" stroke-width="1.1"/>
<line x1="744" y1="203" x2="829" y2="264" stroke="#5cb2f5" stroke-opacity="0.24" stroke-width="1.1"/>
<line x1="744" y1="203" x2="758" y2="354" stroke="#5cb2f5" stroke-opacity="0.12" stroke-width="1.1"/>
<line x1="744" y1="203" x2="896" y2="141" stroke="#5cb2f5" stroke-opacity="0.09" stroke-width="1.1"/>
<line x1="744" y1="203" x2="651" y2="56" stroke="#5cb2f5" stroke-opacity="0.06" stroke-width="1.1"/>
<line x1="744" y1="203" x2="800" y2="86" stroke="#5cb2f5" stroke-opacity="0.17" stroke-width="1.1"/>
<line x1="744" y1="203" x2="748" y2="274" stroke="#5cb2f5" stroke-opacity="0.32" stroke-width="1.1"/>
<line x1="390" y1="502" x2="395" y2="501" stroke="#5cb2f5" stroke-opacity="0.49" stroke-width="1.1"/>
<line x1="390" y1="502" x2="464" y2="651" stroke="#5cb2f5" stroke-opacity="0.08" stroke-width="1.1"/>
<line x1="390" y1="502" x2="340" y2="391" stroke="#5cb2f5" stroke-opacity="0.20" stroke-width="1.1"/>
<line x1="390" y1="502" x2="219" y2="573" stroke="#5cb2f5" stroke-opacity="0.06" stroke-width="1.1"/>
<line x1="536" y1="677" x2="464" y2="651" stroke="#5cb2f5" stroke-opacity="0.31" stroke-width="1.1"/>
<line x1="536" y1="677" x2="599" y2="704" stroke="#5cb2f5" stroke-opacity="0.33" stroke-width="1.1"/>
<line x1="536" y1="677" x2="683" y2="666" stroke="#5cb2f5" stroke-opacity="0.13" stroke-width="1.1"/>
<line x1="490" y1="321" x2="606" y2="180" stroke="#5cb2f5" stroke-opacity="0.06" stroke-width="1.1"/>
<line x1="490" y1="321" x2="408" y2="216" stroke="#5cb2f5" stroke-opacity="0.17" stroke-width="1.1"/>
<line x1="490" y1="321" x2="366" y2="179" stroke="#5cb2f5" stroke-opacity="0.06" stroke-width="1.1"/>
<line x1="490" y1="321" x2="340" y2="391" stroke="#5cb2f5" stroke-opacity="0.09" stroke-width="1.1"/>
<line x1="606" y1="180" x2="651" y2="56" stroke="#5cb2f5" stroke-opacity="0.17" stroke-width="1.1"/>
<line x1="606" y1="180" x2="430" y2="89" stroke="#5cb2f5" stroke-opacity="0.06" stroke-width="1.1"/>
<line x1="606" y1="180" x2="748" y2="274" stroke="#5cb2f5" stroke-opacity="0.07" stroke-width="1.1"/>
<line x1="878" y1="288" x2="829" y2="264" stroke="#5cb2f5" stroke-opacity="0.36" stroke-width="1.1"/>
<line x1="878" y1="288" x2="920" y2="395" stroke="#5cb2f5" stroke-opacity="0.21" stroke-width="1.1"/>
<line x1="878" y1="288" x2="758" y2="354" stroke="#5cb2f5" stroke-opacity="0.16" stroke-width="1.1"/>
<line x1="878" y1="288" x2="960" y2="399" stroke="#5cb2f5" stroke-opacity="0.16" stroke-width="1.1"/>
<line x1="878" y1="288" x2="896" y2="141" stroke="#5cb2f5" stroke-opacity="0.13" stroke-width="1.1"/>
<line x1="878" y1="288" x2="774" y2="441" stroke="#5cb2f5" stroke-opacity="0.06" stroke-width="1.1"/>
<line x1="878" y1="288" x2="748" y2="274" stroke="#5cb2f5" stroke-opacity="0.17" stroke-width="1.1"/>
<line x1="395" y1="501" x2="464" y2="651" stroke="#5cb2f5" stroke-opacity="0.09" stroke-width="1.1"/>
<line x1="395" y1="501" x2="340" y2="391" stroke="#5cb2f5" stroke-opacity="0.19" stroke-width="1.1"/>
<line x1="395" y1="501" x2="219" y2="573" stroke="#5cb2f5" stroke-opacity="0.06" stroke-width="1.1"/>
<line x1="173" y1="486" x2="52" y2="357" stroke="#5cb2f5" stroke-opacity="0.06" stroke-width="1.1"/>
<line x1="173" y1="486" x2="340" y2="391" stroke="#5cb2f5" stroke-opacity="0.06" stroke-width="1.1"/>
<line x1="173" y1="486" x2="219" y2="573" stroke="#5cb2f5" stroke-opacity="0.25" stroke-width="1.1"/>
<line x1="173" y1="486" x2="153" y2="626" stroke="#5cb2f5" stroke-opacity="0.15" stroke-width="1.1"/>
<line x1="829" y1="264" x2="920" y2="395" stroke="#5cb2f5" stroke-opacity="0.10" stroke-width="1.1"/>
<line x1="829" y1="264" x2="758" y2="354" stroke="#5cb2f5" stroke-opacity="0.21" stroke-width="1.1"/>
<line x1="829" y1="264" x2="960" y2="399" stroke="#5cb2f5" stroke-opacity="0.06" stroke-width="1.1"/>
<line x1="829" y1="264" x2="896" y2="141" stroke="#5cb2f5" stroke-opacity="0.15" stroke-width="1.1"/>
<line x1="829" y1="264" x2="774" y2="441" stroke="#5cb2f5" stroke-opacity="0.06" stroke-width="1.1"/>
<line x1="829" y1="264" x2="800" y2="86" stroke="#5cb2f5" stroke-opacity="0.06" stroke-width="1.1"/>
<line x1="829" y1="264" x2="748" y2="274" stroke="#5cb2f5" stroke-opacity="0.30" stroke-width="1.1"/>
<line x1="920" y1="395" x2="758" y2="354" stroke="#5cb2f5" stroke-opacity="0.08" stroke-width="1.1"/>
<line x1="920" y1="395" x2="960" y2="399" stroke="#5cb2f5" stroke-opacity="0.40" stroke-width="1.1"/>
<line x1="920" y1="395" x2="774" y2="441" stroke="#5cb2f5" stroke-opacity="0.12" stroke-width="1.1"/>
<line x1="758" y1="354" x2="774" y2="441" stroke="#5cb2f5" stroke-opacity="0.28" stroke-width="1.1"/>
<line x1="758" y1="354" x2="748" y2="274" stroke="#5cb2f5" stroke-opacity="0.30" stroke-width="1.1"/>
<line x1="408" y1="216" x2="366" y2="179" stroke="#5cb2f5" stroke-opacity="0.36" stroke-width="1.1"/>
<line x1="408" y1="216" x2="430" y2="89" stroke="#5cb2f5" stroke-opacity="0.18" stroke-width="1.1"/>
<line x1="408" y1="216" x2="340" y2="391" stroke="#5cb2f5" stroke-opacity="0.06" stroke-width="1.1"/>
<line x1="408" y1="216" x2="272" y2="309" stroke="#5cb2f5" stroke-opacity="0.09" stroke-width="1.1"/>
<line x1="37" y1="171" x2="52" y2="357" stroke="#5cb2f5" stroke-opacity="0.06" stroke-width="1.1"/>
<line x1="37" y1="171" x2="82" y2="176" stroke="#5cb2f5" stroke-opacity="0.39" stroke-width="1.1"/>
<line x1="960" y1="399" x2="774" y2="441" stroke="#5cb2f5" stroke-opacity="0.06" stroke-width="1.1"/>
<line x1="464" y1="651" x2="599" y2="704" stroke="#5cb2f5" stroke-opacity="0.14" stroke-width="1.1"/>
<line x1="599" y1="704" x2="683" y2="666" stroke="#5cb2f5" stroke-opacity="0.27" stroke-width="1.1"/>
<line x1="366" y1="179" x2="430" y2="89" stroke="#5cb2f5" stroke-opacity="0.23" stroke-width="1.1"/>
<line x1="366" y1="179" x2="321" y2="34" stroke="#5cb2f5" stroke-opacity="0.12" stroke-width="1.1"/>
<line x1="366" y1="179" x2="272" y2="309" stroke="#5cb2f5" stroke-opacity="0.10" stroke-width="1.1"/>
<line x1="896" y1="141" x2="800" y2="86" stroke="#5cb2f5" stroke-opacity="0.23" stroke-width="1.1"/>
<line x1="896" y1="141" x2="748" y2="274" stroke="#5cb2f5" stroke-opacity="0.06" stroke-width="1.1"/>
<line x1="774" y1="441" x2="748" y2="274" stroke="#5cb2f5" stroke-opacity="0.08" stroke-width="1.1"/>
<line x1="651" y1="56" x2="800" y2="86" stroke="#5cb2f5" stroke-opacity="0.12" stroke-width="1.1"/>
<line x1="52" y1="357" x2="82" y2="176" stroke="#5cb2f5" stroke-opacity="0.06" stroke-width="1.1"/>
<line x1="800" y1="86" x2="748" y2="274" stroke="#5cb2f5" stroke-opacity="0.06" stroke-width="1.1"/>
<line x1="430" y1="89" x2="321" y2="34" stroke="#5cb2f5" stroke-opacity="0.19" stroke-width="1.1"/>
<line x1="340" y1="391" x2="272" y2="309" stroke="#5cb2f5" stroke-opacity="0.23" stroke-width="1.1"/>
<line x1="219" y1="573" x2="153" y2="626" stroke="#5cb2f5" stroke-opacity="0.29" stroke-width="1.1"/>
<circle cx="410" cy="168" r="16" fill="#5cb2f5" opacity="0.28" filter="url(#gl)"/>
<circle cx="410" cy="168" r="3.4" fill="#5cb2f5" opacity="1"/>
<circle cx="198" cy="201" r="2.0" fill="#3aa0ff" opacity="0.7"/>
<circle cx="744" cy="203" r="2.0" fill="#5cb2f5" opacity="0.7"/>
<circle cx="390" cy="502" r="2.0" fill="#3aa0ff" opacity="0.7"/>
<circle cx="536" cy="677" r="2.0" fill="#5cb2f5" opacity="0.7"/>
<circle cx="490" cy="321" r="16" fill="#3aa0ff" opacity="0.28" filter="url(#gl)"/>
<circle cx="490" cy="321" r="3.4" fill="#3aa0ff" opacity="1"/>
<circle cx="606" cy="180" r="2.0" fill="#5cb2f5" opacity="0.7"/>
<circle cx="878" cy="288" r="2.0" fill="#3aa0ff" opacity="0.7"/>
<circle cx="395" cy="501" r="2.0" fill="#5cb2f5" opacity="0.7"/>
<circle cx="173" cy="486" r="2.0" fill="#3aa0ff" opacity="0.7"/>
<circle cx="829" cy="264" r="16" fill="#5cb2f5" opacity="0.28" filter="url(#gl)"/>
<circle cx="829" cy="264" r="3.4" fill="#5cb2f5" opacity="1"/>
<circle cx="920" cy="395" r="2.0" fill="#3aa0ff" opacity="0.7"/>
<circle cx="758" cy="354" r="2.0" fill="#5cb2f5" opacity="0.7"/>
<circle cx="408" cy="216" r="2.0" fill="#3aa0ff" opacity="0.7"/>
<circle cx="37" cy="171" r="2.0" fill="#5cb2f5" opacity="0.7"/>
<circle cx="960" cy="399" r="16" fill="#3aa0ff" opacity="0.28" filter="url(#gl)"/>
<circle cx="960" cy="399" r="3.4" fill="#3aa0ff" opacity="1"/>
<circle cx="464" cy="651" r="2.0" fill="#5cb2f5" opacity="0.7"/>
<circle cx="599" cy="704" r="2.0" fill="#3aa0ff" opacity="0.7"/>
<circle cx="366" cy="179" r="2.0" fill="#5cb2f5" opacity="0.7"/>
<circle cx="896" cy="141" r="2.0" fill="#3aa0ff" opacity="0.7"/>
<circle cx="774" cy="441" r="16" fill="#5cb2f5" opacity="0.28" filter="url(#gl)"/>
<circle cx="774" cy="441" r="3.4" fill="#5cb2f5" opacity="1"/>
<circle cx="954" cy="681" r="2.0" fill="#3aa0ff" opacity="0.7"/>
<circle cx="651" cy="56" r="2.0" fill="#5cb2f5" opacity="0.7"/>
<circle cx="52" cy="357" r="2.0" fill="#3aa0ff" opacity="0.7"/>
<circle cx="800" cy="86" r="2.0" fill="#5cb2f5" opacity="0.7"/>
<circle cx="430" cy="89" r="16" fill="#3aa0ff" opacity="0.28" filter="url(#gl)"/>
<circle cx="430" cy="89" r="3.4" fill="#3aa0ff" opacity="1"/>
<circle cx="321" cy="34" r="2.0" fill="#5cb2f5" opacity="0.7"/>
<circle cx="340" cy="391" r="2.0" fill="#3aa0ff" opacity="0.7"/>
<circle cx="219" cy="573" r="2.0" fill="#5cb2f5" opacity="0.7"/>
<circle cx="82" cy="176" r="2.0" fill="#3aa0ff" opacity="0.7"/>
<circle cx="272" cy="309" r="16" fill="#5cb2f5" opacity="0.28" filter="url(#gl)"/>
<circle cx="272" cy="309" r="3.4" fill="#5cb2f5" opacity="1"/>
<circle cx="748" cy="274" r="2.0" fill="#3aa0ff" opacity="0.7"/>
<circle cx="683" cy="666" r="2.0" fill="#5cb2f5" opacity="0.7"/>
<circle cx="153" cy="626" r="2.0" fill="#3aa0ff" opacity="0.7"/>
</svg>