<svg xmlns="http://www.w3.org/2000/svg" viewBox="0 0 1000 750" preserveAspectRatio="xMidYMid slice">
<defs>
<radialGradient id="g1" cx="20%" cy="16%" r="75%"><stop offset="0%" stop-color="#3aa0ff" stop-opacity="0.72"/><stop offset="42%" stop-color="#3aa0ff" stop-opacity="0.20"/><stop offset="100%" stop-color="#3aa0ff" stop-opacity="0"/></radialGradient>
<radialGradient id="g2" cx="86%" cy="88%" r="72%"><stop offset="0%" stop-color="#52b78e" stop-opacity="0.60"/><stop offset="45%" stop-color="#52b78e" stop-opacity="0.14"/><stop offset="100%" stop-color="#52b78e" stop-opacity="0"/></radialGradient>
<linearGradient id="bg" x1="0" y1="0" x2="1" y2="1"><stop offset="0%" stop-color="#0c1830"/><stop offset="55%" stop-color="#091324"/><stop offset="100%" stop-color="#070d18"/></linearGradient>
<filter id="gl"><feGaussianBlur stdDeviation="7"/></filter>
<pattern id="grid" width="44" height="44" patternUnits="userSpaceOnUse"><path d="M44 0H0V44" fill="none" stroke="#7fc8ff" stroke-opacity="0.06"/></pattern>
</defs>
<rect width="1000" height="750" fill="url(#bg)"/>
<rect width="1000" height="750" fill="url(#grid)"/>
<rect width="1000" height="750" fill="url(#g1)"/>
<rect width="1000" height="750" fill="url(#g2)"/>
<line x1="781" y1="255" x2="752" y2="295" stroke="#3aa0ff" stroke-opacity="0.38" stroke-width="1.1"/>
<line x1="256" y1="598" x2="167" y2="465" stroke="#3aa0ff" stroke-opacity="0.10" stroke-width="1.1"/>
<line x1="256" y1="598" x2="192" y2="591" stroke="#3aa0ff" stroke-opacity="0.34" stroke-width="1.1"/>
<line x1="256" y1="598" x2="112" y2="567" stroke="#3aa0ff" stroke-opacity="0.13" stroke-width="1.1"/>
<line x1="256" y1="598" x2="218" y2="416" stroke="#3aa0ff" stroke-opacity="0.06" stroke-width="1.1"/>
<line x1="256" y1="598" x2="102" y2="609" stroke="#3aa0ff" stroke-opacity="0.11" stroke-width="1.1"/>
<line x1="256" y1="598" x2="105" y2="569" stroke="#3aa0ff" stroke-opacity="0.11" stroke-width="1.1"/>
<line x1="256" y1="598" x2="448" y2="566" stroke="#3aa0ff" stroke-opacity="0.06" stroke-width="1.1"/>
<line x1="256" y1="598" x2="367" y2="713" stroke="#3aa0ff" stroke-opacity="0.10" stroke-width="1.1"/>
<line x1="256" y1="598" x2="141" y2="710" stroke="#3aa0ff" stroke-opacity="0.10" stroke-width="1.1"/>
<line x1="138" y1="359" x2="167" y2="465" stroke="#3aa0ff" stroke-opacity="0.22" stroke-width="1.1"/>
<line x1="138" y1="359" x2="202" y2="252" stroke="#3aa0ff" stroke-opacity="0.19" stroke-width="1.1"/>
<line x1="138" y1="359" x2="218" y2="416" stroke="#3aa0ff" stroke-opacity="0.25" stroke-width="1.1"/>
<line x1="138" y1="359" x2="119" y2="348" stroke="#3aa0ff" stroke-opacity="0.45" stroke-width="1.1"/>
<line x1="554" y1="452" x2="501" y2="617" stroke="#3aa0ff" stroke-opacity="0.07" stroke-width="1.1"/>
<line x1="554" y1="452" x2="507" y2="607" stroke="#3aa0ff" stroke-opacity="0.10" stroke-width="1.1"/>
<line x1="554" y1="452" x2="441" y2="516" stroke="#3aa0ff" stroke-opacity="0.18" stroke-width="1.1"/>
<line x1="554" y1="452" x2="448" y2="566" stroke="#3aa0ff" stroke-opacity="0.11" stroke-width="1.1"/>
<line x1="554" y1="452" x2="474" y2="539" stroke="#3aa0ff" stroke-opacity="0.20" stroke-width="1.1"/>
<line x1="167" y1="465" x2="192" y2="591" stroke="#3aa0ff" stroke-opacity="0.18" stroke-width="1.1"/>
<line x1="167" y1="465" x2="112" y2="567" stroke="#3aa0ff" stroke-opacity="0.21" stroke-width="1.1"/>
<line x1="167" y1="465" x2="218" y2="416" stroke="#3aa0ff" stroke-opacity="0.32" stroke-width="1.1"/>
<line x1="167" y1="465" x2="102" y2="609" stroke="#3aa0ff" stroke-opacity="0.10" stroke-width="1.1"/>
<line x1="167" y1="465" x2="119" y2="348" stroke="#3aa0ff" stroke-opacity="0.18" stroke-width="1.1"/>
<line x1="167" y1="465" x2="105" y2="569" stroke="#3aa0ff" stroke-opacity="0.20" stroke-width="1.1"/>
<line x1="501" y1="617" x2="507" y2="607" stroke="#3aa0ff" stroke-opacity="0.47" stroke-width="1.1"/>
<line x1="501" y1="617" x2="441" y2="516" stroke="#3aa0ff" stroke-opacity="0.21" stroke-width="1.1"/>
<line x1="501" y1="617" x2="448" y2="566" stroke="#3aa0ff" stroke-opacity="0.32" stroke-width="1.1"/>
<line x1="501" y1="617" x2="474" y2="539" stroke="#3aa0ff" stroke-opacity="0.29" stroke-width="1.1"/>
<line x1="501" y1="617" x2="367" y2="713" stroke="#3aa0ff" stroke-opacity="0.09" stroke-width="1.1"/>
<line x1="57" y1="690" x2="192" y2="591" stroke="#3aa0ff" stroke-opacity="0.08" stroke-width="1.1"/>
<line x1="57" y1="690" x2="112" y2="567" stroke="#3aa0ff" stroke-opacity="0.16" stroke-width="1.1"/>
<line x1="57" y1="690" x2="102" y2="609" stroke="#3aa0ff" stroke-opacity="0.27" stroke-width="1.1"/>
<line x1="57" y1="690" x2="105" y2="569" stroke="#3aa0ff" stroke-opacity="0.17" stroke-width="1.1"/>
<line x1="57" y1="690" x2="141" y2="710" stroke="#3aa0ff" stroke-opacity="0.28" stroke-width="1.1"/>
<line x1="192" y1="591" x2="112" y2="567" stroke="#3aa0ff" stroke-opacity="0.29" stroke-width="1.1"/>
<line x1="192" y1="591" x2="218" y2="416" stroke="#3aa0ff" stroke-opacity="0.06" stroke-width="1.1"/>
<line x1="192" y1="591" x2="102" y2="609" stroke="#3aa0ff" stroke-opacity="0.27" stroke-width="1.1"/>
<line x1="192" y1="591" x2="105" y2="569" stroke="#3aa0ff" stroke-opacity="0.27" stroke-width="1.1"/>
<line x1="192" y1="591" x2="141" y2="710" stroke="#3aa0ff" stroke-opacity="0.18" stroke-width="1.1"/>
<line x1="507" y1="607" x2="441" y2="516" stroke="#3aa0ff" stroke-opacity="0.22" stroke-width="1.1"/>
<line x1="507" y1="607" x2="448" y2="566" stroke="#3aa0ff" stroke-opacity="0.32" stroke-width="1.1"/>
<line x1="507" y1="607" x2="474" y2="539" stroke="#3aa0ff" stroke-opacity="0.31" stroke-width="1.1"/>
<line x1="507" y1="607" x2="367" y2="713" stroke="#3aa0ff" stroke-opacity="0.06" stroke-width="1.1"/>
<line x1="202" y1="252" x2="210" y2="86" stroke="#3aa0ff" stroke-opacity="0.08" stroke-width="1.1"/>
<line x1="202" y1="252" x2="218" y2="416" stroke="#3aa0ff" stroke-opacity="0.09" stroke-width="1.1"/>
<line x1="202" y1="252" x2="119" y2="348" stroke="#3aa0ff" stroke-opacity="0.18" stroke-width="1.1"/>
<line x1="112" y1="567" x2="218" y2="416" stroke="#3aa0ff" stroke-opacity="0.06" stroke-width="1.1"/>
<line x1="112" y1="567" x2="102" y2="609" stroke="#3aa0ff" stroke-opacity="0.39" stroke-width="1.1"/>
<line x1="112" y1="567" x2="105" y2="569" stroke="#3aa0ff" stroke-opacity="0.48" stroke-width="1.1"/>
<line x1="112" y1="567" x2="141" y2="710" stroke="#3aa0ff" stroke-opacity="0.14" stroke-width="1.1"/>
<line x1="532" y1="171" x2="536" y2="103" stroke="#3aa0ff" stroke-opacity="0.33" stroke-width="1.1"/>
<line x1="532" y1="171" x2="549" y2="114" stroke="#3aa0ff" stroke-opacity="0.35" stroke-width="1.1"/>
<line x1="532" y1="171" x2="529" y2="181" stroke="#3aa0ff" stroke-opacity="0.47" stroke-width="1.1"/>
<line x1="532" y1="171" x2="496" y2="57" stroke="#3aa0ff" stroke-opacity="0.20" stroke-width="1.1"/>
<line x1="218" y1="416" x2="119" y2="348" stroke="#3aa0ff" stroke-opacity="0.20" stroke-width="1.1"/>
<line x1="218" y1="416" x2="105" y2="569" stroke="#3aa0ff" stroke-opacity="0.06" stroke-width="1.1"/>
<line x1="441" y1="516" x2="448" y2="566" stroke="#3aa0ff" stroke-opacity="0.37" stroke-width="1.1"/>
<line x1="441" y1="516" x2="474" y2="539" stroke="#3aa0ff" stroke-opacity="0.40" stroke-width="1.1"/>
<line x1="102" y1="609" x2="105" y2="569" stroke="#3aa0ff" stroke-opacity="0.40" stroke-width="1.1"/>
<line x1="102" y1="609" x2="141" y2="710" stroke="#3aa0ff" stroke-opacity="0.23" stroke-width="1.1"/>
<line x1="953" y1="540" x2="881" y2="505" stroke="#3aa0ff" stroke-opacity="0.30" stroke-width="1.1"/>
<line x1="729" y1="616" x2="823" y2="702" stroke="#3aa0ff" stroke-opacity="0.18" stroke-width="1.1"/>
<line x1="729" y1="616" x2="736" y2="683" stroke="#3aa0ff" stroke-opacity="0.33" stroke-width="1.1"/>
<line x1="729" y1="616" x2="881" y2="505" stroke="#3aa0ff" stroke-opacity="0.06" stroke-width="1.1"/>
<line x1="105" y1="569" x2="141" y2="710" stroke="#3aa0ff" stroke-opacity="0.14" stroke-width="1.1"/>
<line x1="536" y1="103" x2="549" y2="114" stroke="#3aa0ff" stroke-opacity="0.46" stroke-width="1.1"/>
<line x1="536" y1="103" x2="529" y2="181" stroke="#3aa0ff" stroke-opacity="0.30" stroke-width="1.1"/>
<line x1="536" y1="103" x2="496" y2="57" stroke="#3aa0ff" stroke-opacity="0.35" stroke-width="1.1"/>
<line x1="448" y1="566" x2="474" y2="539" stroke="#3aa0ff" stroke-opacity="0.41" stroke-width="1.1"/>
<line x1="448" y1="566" x2="367" y2="713" stroke="#3aa0ff" stroke-opacity="0.08" stroke-width="1.1"/>
<line x1="549" y1="114" x2="529" y2="181" stroke="#3aa0ff" stroke-opacity="0.32" stroke-width="1.1"/>
<line x1="549" y1="114" x2="496" y2="57" stroke="#3aa0ff" stroke-opacity="0.31" stroke-width="1.1"/>
<line x1="911" y1="69" x2="920" y2="54" stroke="#3aa0ff" stroke-opacity="0.46" stroke-width="1.1"/>
<line x1="823" y1="702" x2="736" y2="683" stroke="#3aa0ff" stroke-opacity="0.28" stroke-width="1.1"/>
<line x1="529" y1="181" x2="496" y2="57" stroke="#3aa0ff" stroke-opacity="0.18" stroke-width="1.1"/>
<circle cx="781" cy="255" r="16" fill="#3aa0ff" opacity="0.28" filter="url(#gl)"/>
<circle cx="781" cy="255" r="3.4" fill="#3aa0ff" opacity="1"/>
<circle cx="256" cy="598" r="2.0" fill="#52b78e" opacity="0.7"/>
<circle cx="138" cy="359" r="2.0" fill="#3aa0ff" opacity="0.7"/>
<circle cx="554" cy="452" r="2.0" fill="#52b78e" opacity="0.7"/>
<circle cx="167" cy="465" r="2.0" fill="#3aa0ff" opacity="0.7"/>
<circle cx="501" cy="617" r="16" fill="#52b78e" opacity="0.28" filter="url(#gl)"/>
<circle cx="501" cy="617" r="3.4" fill="#52b78e" opacity="1"/>
<circle cx="57" cy="690" r="2.0" fill="#3aa0ff" opacity="0.7"/>
<circle cx="192" cy="591" r="2.0" fill="#52b78e" opacity="0.7"/>
<circle cx="507" cy="607" r="2.0" fill="#3aa0ff" opacity="0.7"/>
<circle cx="202" cy="252" r="2.0" fill="#52b78e" opacity="0.7"/>
<circle cx="112" cy="567" r="16" fill="#3aa0ff" opacity="0.28" filter="url(#gl)"/>
<circle cx="112" cy="567" r="3.4" fill="#3aa0ff" opacity="1"/>
<circle cx="532" cy="171" r="2.0" fill="#52b78e" opacity="0.7"/>
<circle cx="210" cy="86" r="2.0" fill="#3aa0ff" opacity="0.7"/>
<circle cx="218" cy="416" r="2.0" fill="#52b78e" opacity="0.7"/>
<circle cx="441" cy="516" r="2.0" fill="#3aa0ff" opacity="0.7"/>
<circle cx="102" cy="609" r="16" fill="#52b78e" opacity="0.28" filter="url(#gl)"/>
<circle cx="102" cy="609" r="3.4" fill="#52b78e" opacity="1"/>
<circle cx="953" cy="540" r="2.0" fill="#3aa0ff" opacity="0.7"/>
<circle cx="729" cy="616" r="2.0" fill="#52b78e" opacity="0.7"/>
<circle cx="119" cy="348" r="2.0" fill="#3aa0ff" opacity="0.7"/>
<circle cx="105" cy="569" r="2.0" fill="#52b78e" opacity="0.7"/>
<circle cx="536" cy="103" r="16" fill="#3aa0ff" opacity="0.28" filter="url(#gl)"/>
<circle cx="536" cy="103" r="3.4" fill="#3aa0ff" opacity="1"/>
<circle cx="448" cy="566" r="2.0" fill="#52b78e" opacity="0.7"/>
<circle cx="549" cy="114" r="2.0" fill="#3aa0ff" opacity="0.7"/>
<circle cx="911" cy="69" r="2.0" fill="#52b78e" opacity="0.7"/>
<circle cx="823" cy="702" r="2.0" fill="#3aa0ff" opacity="0.7"/>
<circle cx="736" cy="683" r="16" fill="#52b78e" opacity="0.28" filter="url(#gl)"/>
<circle cx="736" cy="683" r="3.4" fill="#52b78e" opacity="1"/>
<circle cx="529" cy="181" r="2.0" fill="#3aa0ff" opacity="0.7"/>
<circle cx="474" cy="539" r="2.0" fill="#52b78e" opacity="0.7"/>
<circle cx="752" cy="295" r="2.0" fill="#3aa0ff" opacity="0.7"/>
<circle cx="920" cy="54" r="2.0" fill="#52b78e" opacity="0.7"/>
<circle cx="496" cy="57" r="16" fill="#3aa0ff" opacity="0.28" filter="url(#gl)"/>
<circle cx="496" cy="57" r="3.4" fill="#3aa0ff" opacity="1"/>
<circle cx="367" cy="713" r="2.0" fill="#52b78e" opacity="0.7"/>
<circle cx="141" cy="710" r="2.0" fill="#3aa0ff" opacity="0.7"/>
<circle cx="881" cy="505" r="2.0" fill="#52b78e" opacity="0.7"/>
</svg>