<svg xmlns="http://www.w3.org/2000/svg" viewBox="0 0 1000 750" preserveAspectRatio="xMidYMid slice">
<defs>
<radialGradient id="g1" cx="20%" cy="16%" r="75%"><stop offset="0%" stop-color="#22d3ee" stop-opacity="0.72"/><stop offset="42%" stop-color="#22d3ee" stop-opacity="0.20"/><stop offset="100%" stop-color="#22d3ee" stop-opacity="0"/></radialGradient>
<radialGradient id="g2" cx="86%" cy="88%" r="72%"><stop offset="0%" stop-color="#2b8fe0" stop-opacity="0.60"/><stop offset="45%" stop-color="#2b8fe0" stop-opacity="0.14"/><stop offset="100%" stop-color="#2b8fe0" stop-opacity="0"/></radialGradient>
<linearGradient id="bg" x1="0" y1="0" x2="1" y2="1"><stop offset="0%" stop-color="#0c1830"/><stop offset="55%" stop-color="#091324"/><stop offset="100%" stop-color="#070d18"/></linearGradient>
<filter id="gl"><feGaussianBlur stdDeviation="7"/></filter>
<pattern id="grid" width="44" height="44" patternUnits="userSpaceOnUse"><path d="M44 0H0V44" fill="none" stroke="#7fc8ff" stroke-opacity="0.06"/></pattern>
</defs>
<rect width="1000" height="750" fill="url(#bg)"/>
<rect width="1000" height="750" fill="url(#grid)"/>
<rect width="1000" height="750" fill="url(#g1)"/>
<rect width="1000" height="750" fill="url(#g2)"/>
<line x1="455" y1="416" x2="507" y2="435" stroke="#22d3ee" stroke-opacity="0.36" stroke-width="1.1"/>
<line x1="455" y1="416" x2="645" y2="455" stroke="#22d3ee" stroke-opacity="0.06" stroke-width="1.1"/>
<line x1="455" y1="416" x2="444" y2="611" stroke="#22d3ee" stroke-opacity="0.06" stroke-width="1.1"/>
<line x1="455" y1="416" x2="518" y2="472" stroke="#22d3ee" stroke-opacity="0.29" stroke-width="1.1"/>
<line x1="455" y1="416" x2="500" y2="487" stroke="#22d3ee" stroke-opacity="0.29" stroke-width="1.1"/>
<line x1="455" y1="416" x2="460" y2="222" stroke="#22d3ee" stroke-opacity="0.06" stroke-width="1.1"/>
<line x1="899" y1="351" x2="820" y2="518" stroke="#22d3ee" stroke-opacity="0.06" stroke-width="1.1"/>
<line x1="899" y1="351" x2="750" y2="306" stroke="#22d3ee" stroke-opacity="0.11" stroke-width="1.1"/>
<line x1="899" y1="351" x2="826" y2="297" stroke="#22d3ee" stroke-opacity="0.27" stroke-width="1.1"/>
<line x1="899" y1="351" x2="886" y2="354" stroke="#22d3ee" stroke-opacity="0.47" stroke-width="1.1"/>
<line x1="899" y1="351" x2="952" y2="304" stroke="#22d3ee" stroke-opacity="0.32" stroke-width="1.1"/>
<line x1="899" y1="351" x2="762" y2="216" stroke="#22d3ee" stroke-opacity="0.06" stroke-width="1.1"/>
<line x1="507" y1="435" x2="622" y2="577" stroke="#22d3ee" stroke-opacity="0.06" stroke-width="1.1"/>
<line x1="507" y1="435" x2="645" y2="455" stroke="#22d3ee" stroke-opacity="0.15" stroke-width="1.1"/>
<line x1="507" y1="435" x2="444" y2="611" stroke="#22d3ee" stroke-opacity="0.06" stroke-width="1.1"/>
<line x1="507" y1="435" x2="518" y2="472" stroke="#22d3ee" stroke-opacity="0.40" stroke-width="1.1"/>
<line x1="507" y1="435" x2="500" y2="487" stroke="#22d3ee" stroke-opacity="0.37" stroke-width="1.1"/>
<line x1="204" y1="383" x2="118" y2="239" stroke="#22d3ee" stroke-opacity="0.08" stroke-width="1.1"/>
<line x1="204" y1="383" x2="209" y2="197" stroke="#22d3ee" stroke-opacity="0.06" stroke-width="1.1"/>
<line x1="204" y1="383" x2="58" y2="350" stroke="#22d3ee" stroke-opacity="0.13" stroke-width="1.1"/>
<line x1="204" y1="383" x2="99" y2="464" stroke="#22d3ee" stroke-opacity="0.17" stroke-width="1.1"/>
<line x1="204" y1="383" x2="112" y2="259" stroke="#22d3ee" stroke-opacity="0.12" stroke-width="1.1"/>
<line x1="204" y1="383" x2="141" y2="200" stroke="#22d3ee" stroke-opacity="0.06" stroke-width="1.1"/>
<line x1="622" y1="577" x2="645" y2="455" stroke="#22d3ee" stroke-opacity="0.19" stroke-width="1.1"/>
<line x1="622" y1="577" x2="444" y2="611" stroke="#22d3ee" stroke-opacity="0.06" stroke-width="1.1"/>
<line x1="622" y1="577" x2="518" y2="472" stroke="#22d3ee" stroke-opacity="0.13" stroke-width="1.1"/>
<line x1="622" y1="577" x2="500" y2="487" stroke="#22d3ee" stroke-opacity="0.12" stroke-width="1.1"/>
<line x1="118" y1="239" x2="209" y2="197" stroke="#22d3ee" stroke-opacity="0.25" stroke-width="1.1"/>
<line x1="118" y1="239" x2="58" y2="350" stroke="#22d3ee" stroke-opacity="0.18" stroke-width="1.1"/>
<line x1="118" y1="239" x2="31" y2="175" stroke="#22d3ee" stroke-opacity="0.23" stroke-width="1.1"/>
<line x1="118" y1="239" x2="112" y2="259" stroke="#22d3ee" stroke-opacity="0.45" stroke-width="1.1"/>
<line x1="118" y1="239" x2="141" y2="200" stroke="#22d3ee" stroke-opacity="0.39" stroke-width="1.1"/>
<line x1="118" y1="239" x2="125" y2="71" stroke="#22d3ee" stroke-opacity="0.08" stroke-width="1.1"/>
<line x1="115" y1="589" x2="99" y2="464" stroke="#22d3ee" stroke-opacity="0.19" stroke-width="1.1"/>
<line x1="682" y1="59" x2="527" y2="71" stroke="#22d3ee" stroke-opacity="0.11" stroke-width="1.1"/>
<line x1="682" y1="59" x2="762" y2="216" stroke="#22d3ee" stroke-opacity="0.06" stroke-width="1.1"/>
<line x1="953" y1="696" x2="968" y2="717" stroke="#22d3ee" stroke-opacity="0.44" stroke-width="1.1"/>
<line x1="953" y1="696" x2="931" y2="615" stroke="#22d3ee" stroke-opacity="0.29" stroke-width="1.1"/>
<line x1="953" y1="696" x2="936" y2="553" stroke="#22d3ee" stroke-opacity="0.14" stroke-width="1.1"/>
<line x1="645" y1="455" x2="518" y2="472" stroke="#22d3ee" stroke-opacity="0.18" stroke-width="1.1"/>
<line x1="645" y1="455" x2="500" y2="487" stroke="#22d3ee" stroke-opacity="0.13" stroke-width="1.1"/>
<line x1="645" y1="455" x2="820" y2="518" stroke="#22d3ee" stroke-opacity="0.06" stroke-width="1.1"/>
<line x1="645" y1="455" x2="750" y2="306" stroke="#22d3ee" stroke-opacity="0.06" stroke-width="1.1"/>
<line x1="178" y1="40" x2="209" y2="197" stroke="#22d3ee" stroke-opacity="0.10" stroke-width="1.1"/>
<line x1="178" y1="40" x2="302" y2="78" stroke="#22d3ee" stroke-opacity="0.18" stroke-width="1.1"/>
<line x1="178" y1="40" x2="31" y2="175" stroke="#22d3ee" stroke-opacity="0.06" stroke-width="1.1"/>
<line x1="178" y1="40" x2="141" y2="200" stroke="#22d3ee" stroke-opacity="0.09" stroke-width="1.1"/>
<line x1="178" y1="40" x2="125" y2="71" stroke="#22d3ee" stroke-opacity="0.35" stroke-width="1.1"/>
<line x1="527" y1="71" x2="460" y2="222" stroke="#22d3ee" stroke-opacity="0.09" stroke-width="1.1"/>
<line x1="209" y1="197" x2="326" y2="188" stroke="#22d3ee" stroke-opacity="0.21" stroke-width="1.1"/>
<line x1="209" y1="197" x2="302" y2="78" stroke="#22d3ee" stroke-opacity="0.12" stroke-width="1.1"/>
<line x1="209" y1="197" x2="31" y2="175" stroke="#22d3ee" stroke-opacity="0.06" stroke-width="1.1"/>
<line x1="209" y1="197" x2="112" y2="259" stroke="#22d3ee" stroke-opacity="0.21" stroke-width="1.1"/>
<line x1="209" y1="197" x2="141" y2="200" stroke="#22d3ee" stroke-opacity="0.33" stroke-width="1.1"/>
<line x1="209" y1="197" x2="125" y2="71" stroke="#22d3ee" stroke-opacity="0.12" stroke-width="1.1"/>
<line x1="58" y1="350" x2="31" y2="175" stroke="#22d3ee" stroke-opacity="0.06" stroke-width="1.1"/>
<line x1="58" y1="350" x2="99" y2="464" stroke="#22d3ee" stroke-opacity="0.20" stroke-width="1.1"/>
<line x1="58" y1="350" x2="112" y2="259" stroke="#22d3ee" stroke-opacity="0.24" stroke-width="1.1"/>
<line x1="58" y1="350" x2="141" y2="200" stroke="#22d3ee" stroke-opacity="0.07" stroke-width="1.1"/>
<line x1="444" y1="611" x2="518" y2="472" stroke="#22d3ee" stroke-opacity="0.11" stroke-width="1.1"/>
<line x1="444" y1="611" x2="500" y2="487" stroke="#22d3ee" stroke-opacity="0.16" stroke-width="1.1"/>
<line x1="518" y1="472" x2="500" y2="487" stroke="#22d3ee" stroke-opacity="0.44" stroke-width="1.1"/>
<line x1="460" y1="222" x2="326" y2="188" stroke="#22d3ee" stroke-opacity="0.16" stroke-width="1.1"/>
<line x1="968" y1="717" x2="931" y2="615" stroke="#22d3ee" stroke-opacity="0.23" stroke-width="1.1"/>
<line x1="968" y1="717" x2="936" y2="553" stroke="#22d3ee" stroke-opacity="0.08" stroke-width="1.1"/>
<line x1="820" y1="518" x2="931" y2="615" stroke="#22d3ee" stroke-opacity="0.13" stroke-width="1.1"/>
<line x1="820" y1="518" x2="886" y2="354" stroke="#22d3ee" stroke-opacity="0.06" stroke-width="1.1"/>
<line x1="820" y1="518" x2="936" y2="553" stroke="#22d3ee" stroke-opacity="0.20" stroke-width="1.1"/>
<line x1="326" y1="188" x2="302" y2="78" stroke="#22d3ee" stroke-opacity="0.22" stroke-width="1.1"/>
<line x1="326" y1="188" x2="141" y2="200" stroke="#22d3ee" stroke-opacity="0.06" stroke-width="1.1"/>
<line x1="302" y1="78" x2="125" y2="71" stroke="#22d3ee" stroke-opacity="0.06" stroke-width="1.1"/>
<line x1="750" y1="306" x2="826" y2="297" stroke="#22d3ee" stroke-opacity="0.31" stroke-width="1.1"/>
<line x1="750" y1="306" x2="886" y2="354" stroke="#22d3ee" stroke-opacity="0.14" stroke-width="1.1"/>
<line x1="750" y1="306" x2="762" y2="216" stroke="#22d3ee" stroke-opacity="0.27" stroke-width="1.1"/>
<line x1="826" y1="297" x2="886" y2="354" stroke="#22d3ee" stroke-opacity="0.29" stroke-width="1.1"/>
<line x1="826" y1="297" x2="952" y2="304" stroke="#22d3ee" stroke-opacity="0.19" stroke-width="1.1"/>
<line x1="826" y1="297" x2="762" y2="216" stroke="#22d3ee" stroke-opacity="0.24" stroke-width="1.1"/>
<line x1="931" y1="615" x2="936" y2="553" stroke="#22d3ee" stroke-opacity="0.35" stroke-width="1.1"/>
<line x1="31" y1="175" x2="112" y2="259" stroke="#22d3ee" stroke-opacity="0.21" stroke-width="1.1"/>
<line x1="31" y1="175" x2="141" y2="200" stroke="#22d3ee" stroke-opacity="0.22" stroke-width="1.1"/>
<line x1="31" y1="175" x2="125" y2="71" stroke="#22d3ee" stroke-opacity="0.15" stroke-width="1.1"/>
<line x1="886" y1="354" x2="952" y2="304" stroke="#22d3ee" stroke-opacity="0.29" stroke-width="1.1"/>
<line x1="886" y1="354" x2="762" y2="216" stroke="#22d3ee" stroke-opacity="0.06" stroke-width="1.1"/>
<line x1="112" y1="259" x2="141" y2="200" stroke="#22d3ee" stroke-opacity="0.33" stroke-width="1.1"/>
<line x1="112" y1="259" x2="125" y2="71" stroke="#22d3ee" stroke-opacity="0.06" stroke-width="1.1"/>
<line x1="141" y1="200" x2="125" y2="71" stroke="#22d3ee" stroke-opacity="0.18" stroke-width="1.1"/>
<circle cx="455" cy="416" r="16" fill="#22d3ee" opacity="0.28" filter="url(#gl)"/>
<circle cx="455" cy="416" r="3.4" fill="#22d3ee" opacity="1"/>
<circle cx="899" cy="351" r="2.0" fill="#2b8fe0" opacity="0.7"/>
<circle cx="507" cy="435" r="2.0" fill="#22d3ee" opacity="0.7"/>
<circle cx="204" cy="383" r="2.0" fill="#2b8fe0" opacity="0.7"/>
<circle cx="622" cy="577" r="2.0" fill="#22d3ee" opacity="0.7"/>
<circle cx="118" cy="239" r="16" fill="#2b8fe0" opacity="0.28" filter="url(#gl)"/>
<circle cx="118" cy="239" r="3.4" fill="#2b8fe0" opacity="1"/>
<circle cx="115" cy="589" r="2.0" fill="#22d3ee" opacity="0.7"/>
<circle cx="682" cy="59" r="2.0" fill="#2b8fe0" opacity="0.7"/>
<circle cx="953" cy="696" r="2.0" fill="#22d3ee" opacity="0.7"/>
<circle cx="645" cy="455" r="2.0" fill="#2b8fe0" opacity="0.7"/>
<circle cx="178" cy="40" r="16" fill="#22d3ee" opacity="0.28" filter="url(#gl)"/>
<circle cx="178" cy="40" r="3.4" fill="#22d3ee" opacity="1"/>
<circle cx="527" cy="71" r="2.0" fill="#2b8fe0" opacity="0.7"/>
<circle cx="209" cy="197" r="2.0" fill="#22d3ee" opacity="0.7"/>
<circle cx="58" cy="350" r="2.0" fill="#2b8fe0" opacity="0.7"/>
<circle cx="444" cy="611" r="2.0" fill="#22d3ee" opacity="0.7"/>
<circle cx="518" cy="472" r="16" fill="#2b8fe0" opacity="0.28" filter="url(#gl)"/>
<circle cx="518" cy="472" r="3.4" fill="#2b8fe0" opacity="1"/>
<circle cx="500" cy="487" r="2.0" fill="#22d3ee" opacity="0.7"/>
<circle cx="460" cy="222" r="2.0" fill="#2b8fe0" opacity="0.7"/>
<circle cx="968" cy="717" r="2.0" fill="#22d3ee" opacity="0.7"/>
<circle cx="820" cy="518" r="2.0" fill="#2b8fe0" opacity="0.7"/>
<circle cx="326" cy="188" r="16" fill="#22d3ee" opacity="0.28" filter="url(#gl)"/>
<circle cx="326" cy="188" r="3.4" fill="#22d3ee" opacity="1"/>
<circle cx="302" cy="78" r="2.0" fill="#2b8fe0" opacity="0.7"/>
<circle cx="750" cy="306" r="2.0" fill="#22d3ee" opacity="0.7"/>
<circle cx="826" cy="297" r="2.0" fill="#2b8fe0" opacity="0.7"/>
<circle cx="931" cy="615" r="2.0" fill="#22d3ee" opacity="0.7"/>
<circle cx="31" cy="175" r="16" fill="#2b8fe0" opacity="0.28" filter="url(#gl)"/>
<circle cx="31" cy="175" r="3.4" fill="#2b8fe0" opacity="1"/>
<circle cx="886" cy="354" r="2.0" fill="#22d3ee" opacity="0.7"/>
<circle cx="952" cy="304" r="2.0" fill="#2b8fe0" opacity="0.7"/>
<circle cx="99" cy="464" r="2.0" fill="#22d3ee" opacity="0.7"/>
<circle cx="762" cy="216" r="2.0" fill="#2b8fe0" opacity="0.7"/>
<circle cx="112" cy="259" r="16" fill="#22d3ee" opacity="0.28" filter="url(#gl)"/>
<circle cx="112" cy="259" r="3.4" fill="#22d3ee" opacity="1"/>
<circle cx="936" cy="553" r="2.0" fill="#2b8fe0" opacity="0.7"/>
<circle cx="141" cy="200" r="2.0" fill="#22d3ee" opacity="0.7"/>
<circle cx="125" cy="71" r="2.0" fill="#2b8fe0" opacity="0.7"/>
</svg>