<svg xmlns="http://www.w3.org/2000/svg" viewBox="0 0 1000 750" preserveAspectRatio="xMidYMid slice">
<defs>
<radialGradient id="g1" cx="20%" cy="16%" r="75%"><stop offset="0%" stop-color="#22d3ee" stop-opacity="0.72"/><stop offset="42%" stop-color="#22d3ee" stop-opacity="0.20"/><stop offset="100%" stop-color="#22d3ee" stop-opacity="0"/></radialGradient>
<radialGradient id="g2" cx="86%" cy="88%" r="72%"><stop offset="0%" stop-color="#2b8fe0" stop-opacity="0.60"/><stop offset="45%" stop-color="#2b8fe0" stop-opacity="0.14"/><stop offset="100%" stop-color="#2b8fe0" stop-opacity="0"/></radialGradient>
<linearGradient id="bg" x1="0" y1="0" x2="1" y2="1"><stop offset="0%" stop-color="#0c1830"/><stop offset="55%" stop-color="#091324"/><stop offset="100%" stop-color="#070d18"/></linearGradient>
<filter id="gl"><feGaussianBlur stdDeviation="7"/></filter>
<pattern id="grid" width="44" height="44" patternUnits="userSpaceOnUse"><path d="M44 0H0V44" fill="none" stroke="#7fc8ff" stroke-opacity="0.06"/></pattern>
</defs>
<rect width="1000" height="750" fill="url(#bg)"/>
<rect width="1000" height="750" fill="url(#grid)"/>
<rect width="1000" height="750" fill="url(#g1)"/>
<rect width="1000" height="750" fill="url(#g2)"/>
<line x1="404" y1="161" x2="385" y2="296" stroke="#22d3ee" stroke-opacity="0.16" stroke-width="1.1"/>
<line x1="404" y1="161" x2="389" y2="126" stroke="#22d3ee" stroke-opacity="0.41" stroke-width="1.1"/>
<line x1="404" y1="161" x2="433" y2="245" stroke="#22d3ee" stroke-opacity="0.28" stroke-width="1.1"/>
<line x1="404" y1="161" x2="373" y2="47" stroke="#22d3ee" stroke-opacity="0.21" stroke-width="1.1"/>
<line x1="404" y1="161" x2="467" y2="277" stroke="#22d3ee" stroke-opacity="0.17" stroke-width="1.1"/>
<line x1="404" y1="161" x2="395" y2="269" stroke="#22d3ee" stroke-opacity="0.23" stroke-width="1.1"/>
<line x1="404" y1="161" x2="567" y2="262" stroke="#22d3ee" stroke-opacity="0.06" stroke-width="1.1"/>
<line x1="878" y1="462" x2="831" y2="503" stroke="#22d3ee" stroke-opacity="0.34" stroke-width="1.1"/>
<line x1="878" y1="462" x2="947" y2="477" stroke="#22d3ee" stroke-opacity="0.32" stroke-width="1.1"/>
<line x1="878" y1="462" x2="925" y2="571" stroke="#22d3ee" stroke-opacity="0.20" stroke-width="1.1"/>
<line x1="878" y1="462" x2="932" y2="582" stroke="#22d3ee" stroke-opacity="0.17" stroke-width="1.1"/>
<line x1="878" y1="462" x2="901" y2="597" stroke="#22d3ee" stroke-opacity="0.16" stroke-width="1.1"/>
<line x1="525" y1="511" x2="501" y2="369" stroke="#22d3ee" stroke-opacity="0.14" stroke-width="1.1"/>
<line x1="525" y1="511" x2="338" y2="460" stroke="#22d3ee" stroke-opacity="0.06" stroke-width="1.1"/>
<line x1="525" y1="511" x2="676" y2="388" stroke="#22d3ee" stroke-opacity="0.06" stroke-width="1.1"/>
<line x1="525" y1="511" x2="477" y2="465" stroke="#22d3ee" stroke-opacity="0.33" stroke-width="1.1"/>
<line x1="831" y1="503" x2="947" y2="477" stroke="#22d3ee" stroke-opacity="0.20" stroke-width="1.1"/>
<line x1="831" y1="503" x2="925" y2="571" stroke="#22d3ee" stroke-opacity="0.21" stroke-width="1.1"/>
<line x1="831" y1="503" x2="676" y2="388" stroke="#22d3ee" stroke-opacity="0.06" stroke-width="1.1"/>
<line x1="831" y1="503" x2="932" y2="582" stroke="#22d3ee" stroke-opacity="0.18" stroke-width="1.1"/>
<line x1="831" y1="503" x2="901" y2="597" stroke="#22d3ee" stroke-opacity="0.21" stroke-width="1.1"/>
<line x1="145" y1="127" x2="193" y2="313" stroke="#22d3ee" stroke-opacity="0.06" stroke-width="1.1"/>
<line x1="145" y1="127" x2="110" y2="227" stroke="#22d3ee" stroke-opacity="0.23" stroke-width="1.1"/>
<line x1="145" y1="127" x2="62" y2="252" stroke="#22d3ee" stroke-opacity="0.12" stroke-width="1.1"/>
<line x1="193" y1="313" x2="184" y2="350" stroke="#22d3ee" stroke-opacity="0.40" stroke-width="1.1"/>
<line x1="193" y1="313" x2="54" y2="373" stroke="#22d3ee" stroke-opacity="0.12" stroke-width="1.1"/>
<line x1="193" y1="313" x2="385" y2="296" stroke="#22d3ee" stroke-opacity="0.06" stroke-width="1.1"/>
<line x1="193" y1="313" x2="155" y2="412" stroke="#22d3ee" stroke-opacity="0.23" stroke-width="1.1"/>
<line x1="193" y1="313" x2="110" y2="227" stroke="#22d3ee" stroke-opacity="0.20" stroke-width="1.1"/>
<line x1="193" y1="313" x2="62" y2="252" stroke="#22d3ee" stroke-opacity="0.14" stroke-width="1.1"/>
<line x1="660" y1="126" x2="840" y2="72" stroke="#22d3ee" stroke-opacity="0.06" stroke-width="1.1"/>
<line x1="660" y1="126" x2="831" y2="44" stroke="#22d3ee" stroke-opacity="0.06" stroke-width="1.1"/>
<line x1="660" y1="126" x2="567" y2="262" stroke="#22d3ee" stroke-opacity="0.09" stroke-width="1.1"/>
<line x1="184" y1="350" x2="54" y2="373" stroke="#22d3ee" stroke-opacity="0.17" stroke-width="1.1"/>
<line x1="184" y1="350" x2="155" y2="412" stroke="#22d3ee" stroke-opacity="0.33" stroke-width="1.1"/>
<line x1="184" y1="350" x2="110" y2="227" stroke="#22d3ee" stroke-opacity="0.14" stroke-width="1.1"/>
<line x1="184" y1="350" x2="338" y2="460" stroke="#22d3ee" stroke-opacity="0.06" stroke-width="1.1"/>
<line x1="184" y1="350" x2="62" y2="252" stroke="#22d3ee" stroke-opacity="0.11" stroke-width="1.1"/>
<line x1="840" y1="72" x2="878" y2="201" stroke="#22d3ee" stroke-opacity="0.16" stroke-width="1.1"/>
<line x1="840" y1="72" x2="856" y2="181" stroke="#22d3ee" stroke-opacity="0.22" stroke-width="1.1"/>
<line x1="840" y1="72" x2="831" y2="44" stroke="#22d3ee" stroke-opacity="0.43" stroke-width="1.1"/>
<line x1="878" y1="201" x2="856" y2="181" stroke="#22d3ee" stroke-opacity="0.43" stroke-width="1.1"/>
<line x1="878" y1="201" x2="831" y2="44" stroke="#22d3ee" stroke-opacity="0.09" stroke-width="1.1"/>
<line x1="856" y1="181" x2="831" y2="44" stroke="#22d3ee" stroke-opacity="0.15" stroke-width="1.1"/>
<line x1="895" y1="712" x2="925" y2="571" stroke="#22d3ee" stroke-opacity="0.14" stroke-width="1.1"/>
<line x1="895" y1="712" x2="695" y2="703" stroke="#22d3ee" stroke-opacity="0.06" stroke-width="1.1"/>
<line x1="895" y1="712" x2="932" y2="582" stroke="#22d3ee" stroke-opacity="0.16" stroke-width="1.1"/>
<line x1="895" y1="712" x2="901" y2="597" stroke="#22d3ee" stroke-opacity="0.21" stroke-width="1.1"/>
<line x1="947" y1="477" x2="925" y2="571" stroke="#22d3ee" stroke-opacity="0.26" stroke-width="1.1"/>
<line x1="947" y1="477" x2="932" y2="582" stroke="#22d3ee" stroke-opacity="0.24" stroke-width="1.1"/>
<line x1="947" y1="477" x2="901" y2="597" stroke="#22d3ee" stroke-opacity="0.18" stroke-width="1.1"/>
<line x1="925" y1="571" x2="932" y2="582" stroke="#22d3ee" stroke-opacity="0.47" stroke-width="1.1"/>
<line x1="925" y1="571" x2="901" y2="597" stroke="#22d3ee" stroke-opacity="0.41" stroke-width="1.1"/>
<line x1="54" y1="373" x2="155" y2="412" stroke="#22d3ee" stroke-opacity="0.23" stroke-width="1.1"/>
<line x1="54" y1="373" x2="110" y2="227" stroke="#22d3ee" stroke-opacity="0.11" stroke-width="1.1"/>
<line x1="54" y1="373" x2="62" y2="252" stroke="#22d3ee" stroke-opacity="0.20" stroke-width="1.1"/>
<line x1="385" y1="296" x2="501" y2="369" stroke="#22d3ee" stroke-opacity="0.16" stroke-width="1.1"/>
<line x1="385" y1="296" x2="389" y2="126" stroke="#22d3ee" stroke-opacity="0.07" stroke-width="1.1"/>
<line x1="385" y1="296" x2="433" y2="245" stroke="#22d3ee" stroke-opacity="0.33" stroke-width="1.1"/>
<line x1="385" y1="296" x2="467" y2="277" stroke="#22d3ee" stroke-opacity="0.29" stroke-width="1.1"/>
<line x1="385" y1="296" x2="338" y2="460" stroke="#22d3ee" stroke-opacity="0.07" stroke-width="1.1"/>
<line x1="385" y1="296" x2="395" y2="269" stroke="#22d3ee" stroke-opacity="0.43" stroke-width="1.1"/>
<line x1="385" y1="296" x2="567" y2="262" stroke="#22d3ee" stroke-opacity="0.06" stroke-width="1.1"/>
<line x1="385" y1="296" x2="477" y2="465" stroke="#22d3ee" stroke-opacity="0.06" stroke-width="1.1"/>
<line x1="501" y1="369" x2="433" y2="245" stroke="#22d3ee" stroke-opacity="0.15" stroke-width="1.1"/>
<line x1="501" y1="369" x2="467" y2="277" stroke="#22d3ee" stroke-opacity="0.26" stroke-width="1.1"/>
<line x1="501" y1="369" x2="338" y2="460" stroke="#22d3ee" stroke-opacity="0.06" stroke-width="1.1"/>
<line x1="501" y1="369" x2="395" y2="269" stroke="#22d3ee" stroke-opacity="0.14" stroke-width="1.1"/>
<line x1="501" y1="369" x2="676" y2="388" stroke="#22d3ee" stroke-opacity="0.06" stroke-width="1.1"/>
<line x1="501" y1="369" x2="567" y2="262" stroke="#22d3ee" stroke-opacity="0.19" stroke-width="1.1"/>
<line x1="501" y1="369" x2="477" y2="465" stroke="#22d3ee" stroke-opacity="0.25" stroke-width="1.1"/>
<line x1="389" y1="126" x2="433" y2="245" stroke="#22d3ee" stroke-opacity="0.18" stroke-width="1.1"/>
<line x1="389" y1="126" x2="373" y2="47" stroke="#22d3ee" stroke-opacity="0.30" stroke-width="1.1"/>
<line x1="389" y1="126" x2="467" y2="277" stroke="#22d3ee" stroke-opacity="0.07" stroke-width="1.1"/>
<line x1="389" y1="126" x2="395" y2="269" stroke="#22d3ee" stroke-opacity="0.14" stroke-width="1.1"/>
<line x1="433" y1="245" x2="467" y2="277" stroke="#22d3ee" stroke-opacity="0.38" stroke-width="1.1"/>
<line x1="433" y1="245" x2="395" y2="269" stroke="#22d3ee" stroke-opacity="0.39" stroke-width="1.1"/>
<line x1="433" y1="245" x2="567" y2="262" stroke="#22d3ee" stroke-opacity="0.16" stroke-width="1.1"/>
<line x1="155" y1="412" x2="110" y2="227" stroke="#22d3ee" stroke-opacity="0.06" stroke-width="1.1"/>
<line x1="155" y1="412" x2="338" y2="460" stroke="#22d3ee" stroke-opacity="0.06" stroke-width="1.1"/>
<line x1="155" y1="412" x2="62" y2="252" stroke="#22d3ee" stroke-opacity="0.06" stroke-width="1.1"/>
<line x1="110" y1="227" x2="62" y2="252" stroke="#22d3ee" stroke-opacity="0.37" stroke-width="1.1"/>
<line x1="467" y1="277" x2="395" y2="269" stroke="#22d3ee" stroke-opacity="0.32" stroke-width="1.1"/>
<line x1="467" y1="277" x2="567" y2="262" stroke="#22d3ee" stroke-opacity="0.25" stroke-width="1.1"/>
<line x1="467" y1="277" x2="477" y2="465" stroke="#22d3ee" stroke-opacity="0.06" stroke-width="1.1"/>
<line x1="338" y1="460" x2="395" y2="269" stroke="#22d3ee" stroke-opacity="0.06" stroke-width="1.1"/>
<line x1="338" y1="460" x2="477" y2="465" stroke="#22d3ee" stroke-opacity="0.15" stroke-width="1.1"/>
<line x1="395" y1="269" x2="567" y2="262" stroke="#22d3ee" stroke-opacity="0.07" stroke-width="1.1"/>
<line x1="676" y1="388" x2="567" y2="262" stroke="#22d3ee" stroke-opacity="0.08" stroke-width="1.1"/>
<line x1="932" y1="582" x2="901" y2="597" stroke="#22d3ee" stroke-opacity="0.41" stroke-width="1.1"/>
<circle cx="404" cy="161" r="16" fill="#22d3ee" opacity="0.28" filter="url(#gl)"/>
<circle cx="404" cy="161" r="3.4" fill="#22d3ee" opacity="1"/>
<circle cx="878" cy="462" r="2.0" fill="#2b8fe0" opacity="0.7"/>
<circle cx="525" cy="511" r="2.0" fill="#22d3ee" opacity="0.7"/>
<circle cx="831" cy="503" r="2.0" fill="#2b8fe0" opacity="0.7"/>
<circle cx="157" cy="714" r="2.0" fill="#22d3ee" opacity="0.7"/>
<circle cx="145" cy="127" r="16" fill="#2b8fe0" opacity="0.28" filter="url(#gl)"/>
<circle cx="145" cy="127" r="3.4" fill="#2b8fe0" opacity="1"/>
<circle cx="193" cy="313" r="2.0" fill="#22d3ee" opacity="0.7"/>
<circle cx="660" cy="126" r="2.0" fill="#2b8fe0" opacity="0.7"/>
<circle cx="184" cy="350" r="2.0" fill="#22d3ee" opacity="0.7"/>
<circle cx="840" cy="72" r="2.0" fill="#2b8fe0" opacity="0.7"/>
<circle cx="878" cy="201" r="16" fill="#22d3ee" opacity="0.28" filter="url(#gl)"/>
<circle cx="878" cy="201" r="3.4" fill="#22d3ee" opacity="1"/>
<circle cx="856" cy="181" r="2.0" fill="#2b8fe0" opacity="0.7"/>
<circle cx="895" cy="712" r="2.0" fill="#22d3ee" opacity="0.7"/>
<circle cx="947" cy="477" r="2.0" fill="#2b8fe0" opacity="0.7"/>
<circle cx="925" cy="571" r="2.0" fill="#22d3ee" opacity="0.7"/>
<circle cx="54" cy="373" r="16" fill="#2b8fe0" opacity="0.28" filter="url(#gl)"/>
<circle cx="54" cy="373" r="3.4" fill="#2b8fe0" opacity="1"/>
<circle cx="385" cy="296" r="2.0" fill="#22d3ee" opacity="0.7"/>
<circle cx="501" cy="369" r="2.0" fill="#2b8fe0" opacity="0.7"/>
<circle cx="389" cy="126" r="2.0" fill="#22d3ee" opacity="0.7"/>
<circle cx="433" cy="245" r="2.0" fill="#2b8fe0" opacity="0.7"/>
<circle cx="831" cy="44" r="16" fill="#22d3ee" opacity="0.28" filter="url(#gl)"/>
<circle cx="831" cy="44" r="3.4" fill="#22d3ee" opacity="1"/>
<circle cx="155" cy="412" r="2.0" fill="#2b8fe0" opacity="0.7"/>
<circle cx="110" cy="227" r="2.0" fill="#22d3ee" opacity="0.7"/>
<circle cx="695" cy="703" r="2.0" fill="#2b8fe0" opacity="0.7"/>
<circle cx="373" cy="47" r="2.0" fill="#22d3ee" opacity="0.7"/>
<circle cx="467" cy="277" r="16" fill="#2b8fe0" opacity="0.28" filter="url(#gl)"/>
<circle cx="467" cy="277" r="3.4" fill="#2b8fe0" opacity="1"/>
<circle cx="338" cy="460" r="2.0" fill="#22d3ee" opacity="0.7"/>
<circle cx="395" cy="269" r="2.0" fill="#2b8fe0" opacity="0.7"/>
<circle cx="676" cy="388" r="2.0" fill="#22d3ee" opacity="0.7"/>
<circle cx="567" cy="262" r="2.0" fill="#2b8fe0" opacity="0.7"/>
<circle cx="477" cy="465" r="16" fill="#22d3ee" opacity="0.28" filter="url(#gl)"/>
<circle cx="477" cy="465" r="3.4" fill="#22d3ee" opacity="1"/>
<circle cx="932" cy="582" r="2.0" fill="#2b8fe0" opacity="0.7"/>
<circle cx="901" cy="597" r="2.0" fill="#22d3ee" opacity="0.7"/>
<circle cx="62" cy="252" r="2.0" fill="#2b8fe0" opacity="0.7"/>
</svg>