<svg xmlns="http://www.w3.org/2000/svg" viewBox="0 0 1000 750" preserveAspectRatio="xMidYMid slice">
<defs>
<radialGradient id="g1" cx="20%" cy="16%" r="75%"><stop offset="0%" stop-color="#2b8fe0" stop-opacity="0.72"/><stop offset="42%" stop-color="#2b8fe0" stop-opacity="0.20"/><stop offset="100%" stop-color="#2b8fe0" stop-opacity="0"/></radialGradient>
<radialGradient id="g2" cx="86%" cy="88%" r="72%"><stop offset="0%" stop-color="#5cb2f5" stop-opacity="0.60"/><stop offset="45%" stop-color="#5cb2f5" stop-opacity="0.14"/><stop offset="100%" stop-color="#5cb2f5" stop-opacity="0"/></radialGradient>
<linearGradient id="bg" x1="0" y1="0" x2="1" y2="1"><stop offset="0%" stop-color="#0c1830"/><stop offset="55%" stop-color="#091324"/><stop offset="100%" stop-color="#070d18"/></linearGradient>
<filter id="gl"><feGaussianBlur stdDeviation="7"/></filter>
<pattern id="grid" width="44" height="44" patternUnits="userSpaceOnUse"><path d="M44 0H0V44" fill="none" stroke="#7fc8ff" stroke-opacity="0.06"/></pattern>
</defs>
<rect width="1000" height="750" fill="url(#bg)"/>
<rect width="1000" height="750" fill="url(#grid)"/>
<rect width="1000" height="750" fill="url(#g1)"/>
<rect width="1000" height="750" fill="url(#g2)"/>
<line x1="931" y1="127" x2="866" y2="190" stroke="#2b8fe0" stroke-opacity="0.27" stroke-width="1.1"/>
<line x1="931" y1="127" x2="932" y2="250" stroke="#2b8fe0" stroke-opacity="0.19" stroke-width="1.1"/>
<line x1="931" y1="127" x2="891" y2="242" stroke="#2b8fe0" stroke-opacity="0.20" stroke-width="1.1"/>
<line x1="52" y1="719" x2="164" y2="599" stroke="#2b8fe0" stroke-opacity="0.09" stroke-width="1.1"/>
<line x1="52" y1="719" x2="60" y2="668" stroke="#2b8fe0" stroke-opacity="0.37" stroke-width="1.1"/>
<line x1="52" y1="719" x2="113" y2="718" stroke="#2b8fe0" stroke-opacity="0.35" stroke-width="1.1"/>
<line x1="203" y1="113" x2="322" y2="161" stroke="#2b8fe0" stroke-opacity="0.18" stroke-width="1.1"/>
<line x1="642" y1="268" x2="686" y2="453" stroke="#2b8fe0" stroke-opacity="0.06" stroke-width="1.1"/>
<line x1="642" y1="268" x2="657" y2="158" stroke="#2b8fe0" stroke-opacity="0.22" stroke-width="1.1"/>
<line x1="642" y1="268" x2="506" y2="387" stroke="#2b8fe0" stroke-opacity="0.06" stroke-width="1.1"/>
<line x1="642" y1="268" x2="541" y2="329" stroke="#2b8fe0" stroke-opacity="0.20" stroke-width="1.1"/>
<line x1="642" y1="268" x2="663" y2="394" stroke="#2b8fe0" stroke-opacity="0.18" stroke-width="1.1"/>
<line x1="866" y1="190" x2="932" y2="250" stroke="#2b8fe0" stroke-opacity="0.28" stroke-width="1.1"/>
<line x1="866" y1="190" x2="891" y2="242" stroke="#2b8fe0" stroke-opacity="0.36" stroke-width="1.1"/>
<line x1="932" y1="250" x2="934" y2="421" stroke="#2b8fe0" stroke-opacity="0.07" stroke-width="1.1"/>
<line x1="932" y1="250" x2="891" y2="242" stroke="#2b8fe0" stroke-opacity="0.40" stroke-width="1.1"/>
<line x1="932" y1="250" x2="925" y2="383" stroke="#2b8fe0" stroke-opacity="0.17" stroke-width="1.1"/>
<line x1="595" y1="673" x2="674" y2="667" stroke="#2b8fe0" stroke-opacity="0.30" stroke-width="1.1"/>
<line x1="595" y1="673" x2="409" y2="671" stroke="#2b8fe0" stroke-opacity="0.06" stroke-width="1.1"/>
<line x1="696" y1="63" x2="657" y2="158" stroke="#2b8fe0" stroke-opacity="0.25" stroke-width="1.1"/>
<line x1="858" y1="437" x2="829" y2="432" stroke="#2b8fe0" stroke-opacity="0.42" stroke-width="1.1"/>
<line x1="858" y1="437" x2="912" y2="564" stroke="#2b8fe0" stroke-opacity="0.16" stroke-width="1.1"/>
<line x1="858" y1="437" x2="934" y2="421" stroke="#2b8fe0" stroke-opacity="0.31" stroke-width="1.1"/>
<line x1="858" y1="437" x2="686" y2="453" stroke="#2b8fe0" stroke-opacity="0.07" stroke-width="1.1"/>
<line x1="858" y1="437" x2="927" y2="479" stroke="#2b8fe0" stroke-opacity="0.30" stroke-width="1.1"/>
<line x1="858" y1="437" x2="891" y2="242" stroke="#2b8fe0" stroke-opacity="0.06" stroke-width="1.1"/>
<line x1="858" y1="437" x2="925" y2="383" stroke="#2b8fe0" stroke-opacity="0.29" stroke-width="1.1"/>
<line x1="322" y1="161" x2="364" y2="328" stroke="#2b8fe0" stroke-opacity="0.07" stroke-width="1.1"/>
<line x1="322" y1="161" x2="407" y2="97" stroke="#2b8fe0" stroke-opacity="0.23" stroke-width="1.1"/>
<line x1="829" y1="432" x2="912" y2="564" stroke="#2b8fe0" stroke-opacity="0.11" stroke-width="1.1"/>
<line x1="829" y1="432" x2="934" y2="421" stroke="#2b8fe0" stroke-opacity="0.24" stroke-width="1.1"/>
<line x1="829" y1="432" x2="686" y2="453" stroke="#2b8fe0" stroke-opacity="0.14" stroke-width="1.1"/>
<line x1="829" y1="432" x2="927" y2="479" stroke="#2b8fe0" stroke-opacity="0.23" stroke-width="1.1"/>
<line x1="829" y1="432" x2="663" y2="394" stroke="#2b8fe0" stroke-opacity="0.07" stroke-width="1.1"/>
<line x1="829" y1="432" x2="925" y2="383" stroke="#2b8fe0" stroke-opacity="0.23" stroke-width="1.1"/>
<line x1="912" y1="564" x2="934" y2="421" stroke="#2b8fe0" stroke-opacity="0.14" stroke-width="1.1"/>
<line x1="912" y1="564" x2="927" y2="479" stroke="#2b8fe0" stroke-opacity="0.28" stroke-width="1.1"/>
<line x1="912" y1="564" x2="925" y2="383" stroke="#2b8fe0" stroke-opacity="0.06" stroke-width="1.1"/>
<line x1="934" y1="421" x2="927" y2="479" stroke="#2b8fe0" stroke-opacity="0.35" stroke-width="1.1"/>
<line x1="934" y1="421" x2="891" y2="242" stroke="#2b8fe0" stroke-opacity="0.06" stroke-width="1.1"/>
<line x1="934" y1="421" x2="925" y2="383" stroke="#2b8fe0" stroke-opacity="0.40" stroke-width="1.1"/>
<line x1="686" y1="453" x2="506" y2="387" stroke="#2b8fe0" stroke-opacity="0.06" stroke-width="1.1"/>
<line x1="686" y1="453" x2="541" y2="329" stroke="#2b8fe0" stroke-opacity="0.06" stroke-width="1.1"/>
<line x1="686" y1="453" x2="663" y2="394" stroke="#2b8fe0" stroke-opacity="0.34" stroke-width="1.1"/>
<line x1="273" y1="690" x2="324" y2="569" stroke="#2b8fe0" stroke-opacity="0.17" stroke-width="1.1"/>
<line x1="273" y1="690" x2="164" y2="599" stroke="#2b8fe0" stroke-opacity="0.15" stroke-width="1.1"/>
<line x1="273" y1="690" x2="113" y2="718" stroke="#2b8fe0" stroke-opacity="0.09" stroke-width="1.1"/>
<line x1="273" y1="690" x2="409" y2="671" stroke="#2b8fe0" stroke-opacity="0.16" stroke-width="1.1"/>
<line x1="324" y1="569" x2="164" y2="599" stroke="#2b8fe0" stroke-opacity="0.09" stroke-width="1.1"/>
<line x1="324" y1="569" x2="415" y2="486" stroke="#2b8fe0" stroke-opacity="0.19" stroke-width="1.1"/>
<line x1="324" y1="569" x2="381" y2="432" stroke="#2b8fe0" stroke-opacity="0.13" stroke-width="1.1"/>
<line x1="324" y1="569" x2="309" y2="441" stroke="#2b8fe0" stroke-opacity="0.18" stroke-width="1.1"/>
<line x1="324" y1="569" x2="409" y2="671" stroke="#2b8fe0" stroke-opacity="0.17" stroke-width="1.1"/>
<line x1="927" y1="479" x2="925" y2="383" stroke="#2b8fe0" stroke-opacity="0.26" stroke-width="1.1"/>
<line x1="164" y1="599" x2="60" y2="668" stroke="#2b8fe0" stroke-opacity="0.19" stroke-width="1.1"/>
<line x1="164" y1="599" x2="113" y2="718" stroke="#2b8fe0" stroke-opacity="0.18" stroke-width="1.1"/>
<line x1="60" y1="668" x2="113" y2="718" stroke="#2b8fe0" stroke-opacity="0.32" stroke-width="1.1"/>
<line x1="506" y1="387" x2="415" y2="486" stroke="#2b8fe0" stroke-opacity="0.16" stroke-width="1.1"/>
<line x1="506" y1="387" x2="381" y2="432" stroke="#2b8fe0" stroke-opacity="0.17" stroke-width="1.1"/>
<line x1="506" y1="387" x2="541" y2="329" stroke="#2b8fe0" stroke-opacity="0.33" stroke-width="1.1"/>
<line x1="506" y1="387" x2="663" y2="394" stroke="#2b8fe0" stroke-opacity="0.11" stroke-width="1.1"/>
<line x1="506" y1="387" x2="364" y2="328" stroke="#2b8fe0" stroke-opacity="0.12" stroke-width="1.1"/>
<line x1="415" y1="486" x2="381" y2="432" stroke="#2b8fe0" stroke-opacity="0.34" stroke-width="1.1"/>
<line x1="415" y1="486" x2="309" y2="441" stroke="#2b8fe0" stroke-opacity="0.21" stroke-width="1.1"/>
<line x1="415" y1="486" x2="364" y2="328" stroke="#2b8fe0" stroke-opacity="0.08" stroke-width="1.1"/>
<line x1="415" y1="486" x2="409" y2="671" stroke="#2b8fe0" stroke-opacity="0.06" stroke-width="1.1"/>
<line x1="891" y1="242" x2="925" y2="383" stroke="#2b8fe0" stroke-opacity="0.14" stroke-width="1.1"/>
<line x1="381" y1="432" x2="309" y2="441" stroke="#2b8fe0" stroke-opacity="0.32" stroke-width="1.1"/>
<line x1="381" y1="432" x2="541" y2="329" stroke="#2b8fe0" stroke-opacity="0.06" stroke-width="1.1"/>
<line x1="381" y1="432" x2="364" y2="328" stroke="#2b8fe0" stroke-opacity="0.24" stroke-width="1.1"/>
<line x1="309" y1="441" x2="364" y2="328" stroke="#2b8fe0" stroke-opacity="0.19" stroke-width="1.1"/>
<line x1="541" y1="329" x2="663" y2="394" stroke="#2b8fe0" stroke-opacity="0.15" stroke-width="1.1"/>
<line x1="541" y1="329" x2="364" y2="328" stroke="#2b8fe0" stroke-opacity="0.06" stroke-width="1.1"/>
<circle cx="931" cy="127" r="16" fill="#2b8fe0" opacity="0.28" filter="url(#gl)"/>
<circle cx="931" cy="127" r="3.4" fill="#2b8fe0" opacity="1"/>
<circle cx="52" cy="719" r="2.0" fill="#5cb2f5" opacity="0.7"/>
<circle cx="203" cy="113" r="2.0" fill="#2b8fe0" opacity="0.7"/>
<circle cx="642" cy="268" r="2.0" fill="#5cb2f5" opacity="0.7"/>
<circle cx="866" cy="190" r="2.0" fill="#2b8fe0" opacity="0.7"/>
<circle cx="932" cy="250" r="16" fill="#5cb2f5" opacity="0.28" filter="url(#gl)"/>
<circle cx="932" cy="250" r="3.4" fill="#5cb2f5" opacity="1"/>
<circle cx="595" cy="673" r="2.0" fill="#2b8fe0" opacity="0.7"/>
<circle cx="674" cy="667" r="2.0" fill="#5cb2f5" opacity="0.7"/>
<circle cx="696" cy="63" r="2.0" fill="#2b8fe0" opacity="0.7"/>
<circle cx="858" cy="437" r="2.0" fill="#5cb2f5" opacity="0.7"/>
<circle cx="322" cy="161" r="16" fill="#2b8fe0" opacity="0.28" filter="url(#gl)"/>
<circle cx="322" cy="161" r="3.4" fill="#2b8fe0" opacity="1"/>
<circle cx="829" cy="432" r="2.0" fill="#5cb2f5" opacity="0.7"/>
<circle cx="912" cy="564" r="2.0" fill="#2b8fe0" opacity="0.7"/>
<circle cx="934" cy="421" r="2.0" fill="#5cb2f5" opacity="0.7"/>
<circle cx="686" cy="453" r="2.0" fill="#2b8fe0" opacity="0.7"/>
<circle cx="273" cy="690" r="16" fill="#5cb2f5" opacity="0.28" filter="url(#gl)"/>
<circle cx="273" cy="690" r="3.4" fill="#5cb2f5" opacity="1"/>
<circle cx="324" cy="569" r="2.0" fill="#2b8fe0" opacity="0.7"/>
<circle cx="927" cy="479" r="2.0" fill="#5cb2f5" opacity="0.7"/>
<circle cx="164" cy="599" r="2.0" fill="#2b8fe0" opacity="0.7"/>
<circle cx="657" cy="158" r="2.0" fill="#5cb2f5" opacity="0.7"/>
<circle cx="76" cy="397" r="16" fill="#2b8fe0" opacity="0.28" filter="url(#gl)"/>
<circle cx="76" cy="397" r="3.4" fill="#2b8fe0" opacity="1"/>
<circle cx="60" cy="668" r="2.0" fill="#5cb2f5" opacity="0.7"/>
<circle cx="506" cy="387" r="2.0" fill="#2b8fe0" opacity="0.7"/>
<circle cx="415" cy="486" r="2.0" fill="#5cb2f5" opacity="0.7"/>
<circle cx="891" cy="242" r="2.0" fill="#2b8fe0" opacity="0.7"/>
<circle cx="381" cy="432" r="16" fill="#5cb2f5" opacity="0.28" filter="url(#gl)"/>
<circle cx="381" cy="432" r="3.4" fill="#5cb2f5" opacity="1"/>
<circle cx="309" cy="441" r="2.0" fill="#2b8fe0" opacity="0.7"/>
<circle cx="541" cy="329" r="2.0" fill="#5cb2f5" opacity="0.7"/>
<circle cx="663" cy="394" r="2.0" fill="#2b8fe0" opacity="0.7"/>
<circle cx="113" cy="718" r="2.0" fill="#5cb2f5" opacity="0.7"/>
<circle cx="364" cy="328" r="16" fill="#2b8fe0" opacity="0.28" filter="url(#gl)"/>
<circle cx="364" cy="328" r="3.4" fill="#2b8fe0" opacity="1"/>
<circle cx="409" cy="671" r="2.0" fill="#5cb2f5" opacity="0.7"/>
<circle cx="925" cy="383" r="2.0" fill="#2b8fe0" opacity="0.7"/>
<circle cx="407" cy="97" r="2.0" fill="#5cb2f5" opacity="0.7"/>
</svg>