<svg width="65" height="44" viewBox="0 0 65 44" fill="none" xmlns="http://www.w3.org/2000/svg">
<g clip-path="url(#clip0_2103_235)">
<path d="M46.3424 24.6903V24.7378C46.3424 27.8744 44.0569 30.1793 40.3428 30.1793C37.3431 30.1793 35.2719 28.9911 33.8436 27.3041L36.3673 24.9039C37.5099 26.1874 38.7003 26.8999 40.3906 26.8999C41.7714 26.8999 42.7476 26.116 42.7476 24.8803C42.7292 24.8476 43.0168 22.7183 39.4858 22.7183H37.9623L37.3906 20.3892L42.7367 15.0218L40.5944 16.3977H34.8198V13.2614H46.0803V16.0177L41.8667 20.0331C44.1283 20.4135 46.3424 21.6013 46.3424 24.6903ZM35.891 5.65566C35.891 4.14978 36.9726 2.93773 38.4907 2.93773H40.2013L39.7535 3.16082C39.7738 7.28832 39.6716 7.80819 39.9356 8.41159L38.5097 8.41126C36.9916 8.41126 35.891 7.18022 35.891 5.67466V5.65566ZM38.4907 9.10278H40.0096V8.55671C40.1204 8.74867 40.2694 8.89772 40.4892 9.00189C40.9724 9.2312 40.6212 9.08706 54.4778 9.12965V2.24654H53.747V8.40013C53.747 8.40013 41.0769 8.44893 40.8361 8.34083C40.6271 8.24682 40.5511 8.03193 40.5164 7.80295C40.461 7.43114 40.4948 7.42427 40.4846 2.24654H38.5097C36.4888 2.24654 35.113 3.84677 35.113 5.67466V5.69366C35.113 7.52123 36.4698 9.10278 38.4907 9.10278ZM59.8642 1.51669H58.263C58.2978 0.987325 58.0527 0 59.1314 0H59.6471V0.508404C59.1478 0.54542 58.8605 0.386872 58.8605 0.785536V0.95424H59.8642V1.51669ZM61.7151 9.20401C61.5202 9.20401 61.322 9.17682 61.1212 9.12178L61.3131 8.41978C61.6437 8.5138 62.0662 8.51936 62.2405 8.22389C62.4439 7.87403 62.3712 7.75086 62.382 2.24654H63.1128C63.0919 7.38463 63.1633 7.52811 63.0444 8.12365C62.9042 8.82041 62.4816 9.20401 61.7151 9.20401ZM40.4846 1.51669H39.7535V0.787174H40.4846V1.51669ZM56.5708 4.03382C56.9137 3.36588 57.6338 2.99408 58.3698 2.98622V2.98491H59.5507L59.1334 3.19292V6.46872C58.5582 6.45168 58.1539 6.52342 57.6213 6.35439C56.8941 6.12574 56.4014 5.56623 56.4014 4.75416C56.4014 4.49308 56.4577 4.25264 56.5708 4.03382ZM56.5708 6.61907C57.5224 7.29716 58.8199 7.18513 58.8877 7.19791L59.1334 6.68328C59.0938 7.18218 59.2707 7.87927 58.8045 8.22847C58.4104 8.52297 57.7078 8.51347 57.2741 8.41061C57.0946 8.36835 56.8888 8.2953 56.6572 8.19211L56.4289 8.89412C56.8921 9.06479 57.335 9.20401 57.8267 9.20401C58.5395 9.20401 59.0571 9.0353 59.3801 8.69822C59.7027 8.36049 59.8642 7.90614 59.8642 7.33484V2.24654C58.9647 2.27471 58.2824 2.1558 57.4614 2.43818C55.2617 3.19456 55.2179 5.65599 56.5708 6.61907ZM39.0226 1.51669H38.2915V0.787174H39.0226V1.51669ZM31.4572 2.23868H32.2119V9.0887H31.5941L26.7332 2.92725L27.1629 3.92571V9.0887H26.4079V2.23868H27.1335L31.7753 8.13184L31.4572 7.29127V2.23868ZM2.95153 9.13751L0.000366211 2.23868H0.863211C0.907107 2.34482 3.25913 8.02996 3.49761 8.6065L3.42292 7.85372L5.75561 2.23868H6.58865L3.63781 9.13751H2.95153ZM16.0295 2.23868H16.8039V9.08837H16.0295V2.23868ZM24.3363 5.68318C24.3363 7.23918 23.2189 8.49152 21.6501 8.49152C20.0813 8.49152 18.944 7.21953 18.944 5.66385V5.64387C18.944 4.08819 20.062 2.83586 21.6305 2.83586C23.1992 2.83586 24.3363 4.10785 24.3363 5.66385V5.68318ZM21.6501 2.12141C19.5618 2.12141 18.1401 3.77503 18.1401 5.66385V5.68318C18.1401 7.57168 19.5421 9.20597 21.6305 9.20597C23.7188 9.20597 25.1405 7.55235 25.1405 5.66385V5.64387C25.1405 3.7557 23.7384 2.12141 21.6501 2.12141ZM14.7516 7.22936V7.24868C14.7516 8.42273 13.7712 9.18632 12.4084 9.18632C11.3202 9.18632 10.4282 8.82434 9.60468 8.09024L10.0849 7.52287C10.8007 8.16853 11.4869 8.49119 12.4382 8.49119C13.3597 8.49119 13.9674 8.00244 13.9674 7.32697V7.30765C13.9674 5.39589 9.87919 6.65707 9.87919 4.02923V4.0099C9.87919 2.93348 10.8302 2.14073 12.1342 2.14073C13.134 2.14073 13.8498 2.42474 14.5459 2.98261L14.0951 3.57914C12.5391 2.31337 10.6536 2.79819 10.6536 3.94144V3.96109C10.6536 4.60675 11.0064 4.96873 12.5165 5.29172C14.046 5.62454 14.7516 6.18241 14.7516 7.22936ZM8.41523 9.0887H7.64083V2.23901H8.41523V9.0887ZM53.4918 9.85884H54.223V10.5884H53.4918V9.85884ZM52.0298 9.85884H52.761V10.5884H52.0298V9.85884ZM6.12938 26.7334H12.4838V29.8943H0.15138V26.9952C6.31348 21.7657 8.57935 20.7437 8.57935 18.465C8.57935 17.063 7.65066 16.3027 6.34133 16.3027C5.05558 16.3027 4.17471 17.0151 2.93679 18.5358L0.365618 16.4691C2.00843 14.2353 3.60374 13.0233 6.57948 13.0233C10.0315 13.0233 12.317 15.0431 12.317 18.1561V18.2033C12.317 22.1067 9.36194 23.3649 4.29461 27.4486L3.58704 27.9936L6.12938 26.7334ZM61.1677 21.6252C61.1677 24.4764 59.1203 26.8052 56.1678 26.8052C53.2157 26.8052 51.1208 24.4289 51.1208 21.5773V21.5298C51.1208 18.6786 53.1685 16.3502 56.1203 16.3502C59.0722 16.3502 61.1677 18.7264 61.1677 21.5773V21.6252ZM56.1678 12.9761C51.0258 12.9761 47.2878 16.8491 47.2878 21.5773V21.6252C47.2878 26.3538 50.9777 30.1793 56.1203 30.1793C61.263 30.1793 65.0004 26.306 65.0004 21.5773V21.5298C65.0004 16.8016 61.3102 12.9761 56.1678 12.9761Z" fill="white"/>
<path d="M22.4452 11.882L23.2894 12.6904L22.4793 13.5326L21.6354 12.7242" fill="#29367B"/>
<path d="M24.377 12.7242L25.2205 13.5326L26.0306 12.6904L25.1868 11.882" fill="#B1AEB3"/>
<path d="M23.1885 13.7858L23.846 14.4151L24.4762 13.7593L23.8194 13.13" fill="#D0DA33"/>
<path d="M25.5978 14.1459L26.255 14.7755L26.8852 14.1197L26.2281 13.4901" fill="#71BA44"/>
<path d="M22.114 14.7886L22.7712 15.4182L23.4014 14.7624L22.745 14.1328" fill="#D0DA33"/>
<path d="M24.319 14.8649L24.9758 15.4945L25.6064 14.8387L24.9493 14.2091" fill="#27B8BE"/>
<path d="M23.4565 15.6193L23.9187 16.0622L24.3622 15.6007L23.9 15.1578" fill="#71BA44"/>
<path d="M25.2002 15.9669L25.6624 16.4098L26.1062 15.9482L25.644 15.5056" fill="#58B75E"/>
<path d="M29.0083 12.4576L30.4422 12.1947L30.7046 13.626L29.2708 13.8889L29.0083 12.4576Z" fill="#3088C8"/>
<path d="M27.1371 13.0574L28.2874 12.8468L28.4977 13.9952L27.3473 14.2058L27.1371 13.0574Z" fill="#1E3871"/>
<path d="M29.3608 14.6576L30.5111 14.4467L30.7216 15.595L29.5713 15.8059L29.3608 14.6576Z" fill="#27B8BE"/>
<path d="M27.7744 14.8259L28.6701 14.6618L28.8339 15.5556L27.9381 15.7197L27.7744 14.8259Z" fill="#D0DA33"/>
<path d="M29.5171 16.5244L30.4129 16.3603L30.5767 17.2544L29.6809 17.4185L29.5171 16.5244Z" fill="#B1AEB3"/>
<path d="M26.4323 15.1895L27.3283 15.0253L27.4922 15.9194L26.5961 16.0836L26.4323 15.1895Z" fill="#27B8BE"/>
<path d="M28.058 16.3607L28.9538 16.1965L29.1176 17.0907L28.2219 17.2548L28.058 16.3607Z" fill="#71BA44"/>
<path d="M26.9165 16.4687L27.5467 16.3531L27.662 16.9821L27.0318 17.0976L26.9165 16.4687Z" fill="#B1AEB3"/>
<path d="M28.1272 17.769L28.7572 17.6538L28.8721 18.2825L28.2421 18.3977L28.1272 17.769Z" fill="#58B75E"/>
<path d="M33.273 17.1462L32.6464 18.4604L33.9632 19.0855L34.5892 17.7715" fill="#29367B"/>
<path d="M31.4042 16.5392L30.9017 17.5933L31.9578 18.0948L32.4603 17.0407" fill="#27B8BE"/>
<path d="M32.2683 19.1359L31.7658 20.1904L32.8223 20.6916L33.3248 19.6374" fill="#71BA44"/>
<path d="M30.8843 18.3451L30.4932 19.166L31.3157 19.5565L31.7072 18.7356" fill="#D0DA33"/>
<path d="M31.302 20.7407L30.9105 21.5616L31.7327 21.9521L32.1245 21.1312" fill="#D0DA33"/>
<path d="M29.5825 17.8564L29.1911 18.6773L30.0136 19.0677L30.4051 18.2468" fill="#3088C8"/>
<path d="M30.2151 19.7557L29.8236 20.5766L30.6459 20.9671L31.0376 20.1462" fill="#B1AEB3"/>
<path d="M29.2258 19.1768L28.9503 19.7544L29.5288 20.0289L29.8043 19.4517" fill="#71BA44"/>
<path d="M29.1691 21.5133L29.4439 20.9359L30.0221 21.2111L29.7474 21.7885L29.1691 21.5133Z" fill="#27B8BE"/>
<path d="M33.9823 23.4386L32.704 24.1383L33.4054 25.4143L34.6836 24.7146" fill="#3088C8"/>
<path d="M32.8229 21.8551L31.7976 22.4166L32.3601 23.44L33.3854 22.8785" fill="#27B8BE"/>
<path d="M32.0017 24.4656L30.9761 25.0271L31.5389 26.0508L32.5642 25.4893" fill="#27B8BE"/>
<path d="M31.3426 23.0161L30.5443 23.4534L30.9819 24.2501L31.7809 23.8131" fill="#29367B"/>
<path d="M30.277 25.2027L29.4784 25.64L29.9163 26.4367L30.715 25.9997" fill="#58B75E"/>
<path d="M30.5735 21.8597L29.7748 22.2967L30.2128 23.094L31.0118 22.6567" fill="#1E3871"/>
<path d="M29.973 23.7692L29.1744 24.2065L29.6124 25.0032L30.411 24.5662" fill="#D0DA33"/>
<path d="M29.5098 22.7222L28.948 23.0298L29.2563 23.5903L29.8178 23.283" fill="#B1AEB3"/>
<path d="M28.6552 24.2783L28.0934 24.5859L28.4013 25.1463L28.9631 24.8391" fill="#27B8BE"/>
<path d="M29.2417 30.2166L29.4202 28.7722L30.8672 28.9509L30.6888 30.3954L29.2417 30.2166Z" fill="#71BA44"/>
<path d="M29.554 28.0107L29.6976 26.852L30.8582 26.9959L30.7146 28.1545L29.554 28.0107Z" fill="#1E3871"/>
<path d="M27.3569 29.6482L27.5005 28.4896L28.6614 28.6334L28.5178 29.7921L27.3569 29.6482Z" fill="#27B8BE"/>
<path d="M27.9618 27.8661L28.0733 26.9639L28.9771 27.0756L28.8656 27.9778L27.9618 27.8661Z" fill="#71BA44"/>
<path d="M25.8148 29.0161L25.9264 28.114L26.8302 28.2257L26.7186 29.1279L25.8148 29.0161Z" fill="#B1AEB3"/>
<path d="M28.0149 26.4764L28.1267 25.574L29.0308 25.686L28.919 26.5885L28.0149 26.4764Z" fill="#B1AEB3"/>
<path d="M26.4088 27.6734L26.5206 26.7713L27.4247 26.8833L27.3129 27.7855L26.4088 27.6734Z" fill="#71BA44"/>
<path d="M26.949 26.3221L27.0275 25.6875L27.6631 25.7661L27.5846 26.4007L26.949 26.3221Z" fill="#B1AEB3"/>
<path d="M25.3421 27.0837L25.4206 26.4491L26.0565 26.5277L25.978 27.1623L25.3421 27.0837Z" fill="#B1AEB3"/>
<path d="M25.1098 31.6121L24.0412 30.6218L23.0493 31.6884L24.1179 32.6784" fill="#D0DA33"/>
<path d="M24.9129 11.2291L23.8443 10.2388L22.8524 11.3054L23.921 12.2954" fill="#71BA44"/>
<path d="M26.2501 30.0145L25.3928 29.2201L24.5971 30.0758L25.4544 30.8698" fill="#27B8BE"/>
<path d="M23.5089 30.06L22.6513 29.2656L21.8556 30.1213L22.7129 30.9153" fill="#71BA44"/>
<path d="M24.679 28.9787L24.0114 28.3602L23.3919 29.0262L24.0592 29.6447" fill="#3088C8"/>
<path d="M22.2641 28.6586L21.5968 28.0402L20.9773 28.7061L21.6449 29.3249" fill="#D0DA33"/>
<path d="M25.5363 27.8855L24.8687 27.2671L24.2492 27.933L24.9165 28.5515" fill="#D0DA33"/>
<path d="M23.5312 27.9186L22.8636 27.3002L22.2441 27.9661L22.9114 28.5846" fill="#B1AEB3"/>
<path d="M24.3805 27.1501L23.9111 26.7148L23.4754 27.1835L23.9449 27.6186" fill="#1E3871"/>
<path d="M22.6316 26.8311L22.1622 26.3961L21.7262 26.8645L22.1956 27.2995" fill="#B1AEB3"/>
<path d="M17.1664 29.2622L18.596 28.9757L18.882 30.4024L17.4523 30.6889L17.1664 29.2622Z" fill="#3088C8"/>
<path d="M19.3669 28.857L20.5136 28.6272L20.743 29.7719L19.5964 30.0018L19.3669 28.857Z" fill="#27B8BE"/>
<path d="M17.1183 27.2929L18.2649 27.0628L18.4946 28.2075L17.348 28.4376L17.1183 27.2929Z" fill="#71BA44"/>
<path d="M19.0048 27.3024L19.8977 27.1235L20.0763 28.0148L19.1834 28.1937L19.0048 27.3024Z" fill="#D0DA33"/>
<path d="M20.3405 26.9164L21.2334 26.7374L21.4121 27.629L20.5192 27.808L20.3405 26.9164Z" fill="#29367B"/>
<path d="M18.6952 25.7724L19.5881 25.5934L19.7667 26.4848L18.8738 26.6637L18.6952 25.7724Z" fill="#3088C8"/>
<path d="M20.1524 25.8582L20.7807 25.7325L20.9062 26.3595L20.2779 26.4852L20.1524 25.8582Z" fill="#71BA44"/>
<path d="M18.9212 24.5774L19.5491 24.4515L19.6749 25.0784L19.047 25.2044L18.9212 24.5774Z" fill="#B1AEB3"/>
<path d="M14.5407 25.7854L15.1451 24.4614L13.8181 23.858L13.2137 25.182" fill="#27B8BE"/>
<path d="M16.419 26.3617L16.9039 25.2993L15.8395 24.8155L15.3544 25.8778" fill="#D0DA33"/>
<path d="M15.5114 23.7797L15.9965 22.7173L14.9319 22.2332L14.4471 23.2958" fill="#3088C8"/>
<path d="M16.0794 24.1715L16.4567 23.3442L17.285 23.7219L16.9077 24.5493L16.0794 24.1715Z" fill="#27B8BE"/>
<path d="M18.0176 26.6155L18.3953 25.7884L17.5666 25.4117L17.1889 26.2388" fill="#B1AEB3"/>
<path d="M15.6241 21.7822L16.0016 20.9549L16.8298 21.3328L16.4523 22.1601L15.6241 21.7822Z" fill="#29367B"/>
<path d="M17.3907 24.6374L17.7682 23.8101L18.5964 24.188L18.219 25.0153L17.3907 24.6374Z" fill="#58B75E"/>
<path d="M16.7261 22.7505L17.1039 21.9234L17.9319 22.3015L17.5542 23.1287L16.7261 22.7505Z" fill="#D0DA33"/>
<path d="M18.5533 23.6879L18.8189 23.1062L18.2359 22.8408L17.9702 23.4229" fill="#1E3871"/>
<path d="M18.305 21.9308L18.5706 21.3487L17.9875 21.0837L17.7219 21.6658" fill="#71BA44"/>
<path d="M13.7264 19.5054L14.9931 18.7847L14.2705 17.5206L13.0041 18.2413" fill="#27B8BE"/>
<path d="M14.9122 21.0699L15.9284 20.4918L15.3486 19.4776L14.3327 20.0561" fill="#71BA44"/>
<path d="M15.6902 18.446L16.7064 17.8678L16.1266 16.8533L15.1107 17.4318" fill="#1E3871"/>
<path d="M16.3732 19.8844L17.164 19.434L16.7129 18.6445L15.9218 19.0946" fill="#3088C8"/>
<path d="M17.4025 17.6808L18.1932 17.2304L17.7422 16.4409L16.951 16.891" fill="#71BA44"/>
<path d="M17.161 21.028L17.9525 20.5779L17.5014 19.7881L16.71 20.2385" fill="#27B8BE"/>
<path d="M17.73 19.109L18.5211 18.6589L18.07 17.8691L17.2789 18.3196" fill="#D0DA33"/>
<path d="M18.2106 20.1481L18.7671 19.8313L18.4497 19.2761L17.8932 19.5925" fill="#B1AEB3"/>
<path d="M19.0391 18.578L19.596 18.2612L19.2785 17.706L18.7216 18.0228" fill="#71BA44"/>
<path d="M16.7487 13.9388L16.9034 12.4919L18.3528 12.6469L18.1982 14.0937L16.7487 13.9388Z" fill="#71BA44"/>
<path d="M16.792 15.899L16.9162 14.7384L18.0794 14.8629L17.9552 16.0235L16.792 15.899Z" fill="#B1AEB3"/>
<path d="M18.961 14.2254L19.0852 13.0645L20.2483 13.189L20.1241 14.3499L18.961 14.2254Z" fill="#27B8BE"/>
<path d="M18.6727 15.7916L18.7695 14.8878L19.675 14.9848L19.5782 15.8886L18.6727 15.7916Z" fill="#D0DA33"/>
<path d="M20.7976 14.6025L20.894 13.6986L21.7995 13.7952L21.7031 14.6991L20.7976 14.6025Z" fill="#3088C8"/>
<path d="M18.6404 17.1789L18.7372 16.275L19.6427 16.372L19.5459 17.2759L18.6404 17.1789Z" fill="#27B8BE"/>
<path d="M20.2275 15.9541L20.3243 15.0503L21.2298 15.1473L21.133 16.0511L20.2275 15.9541Z" fill="#71BA44"/>
<path d="M20.0072 17.0778L20.0753 16.442L20.7124 16.5102L20.6443 17.146L20.0072 17.0778Z" fill="#1E3871"/>
<path d="M21.6011 16.288L21.6688 15.6521L22.3062 15.7199L22.2386 16.3558L21.6011 16.288Z" fill="#B1AEB3"/>
<path d="M28.4802 22.3524C27.717 21.9128 26.655 21.785 25.5546 22.188C25.0737 22.3698 24.5922 22.6872 24.186 22.9981C23.9302 21.447 24.055 20.0073 24.1146 19.3C24.1149 19.2961 24.1195 19.2941 24.1231 19.2964C24.6725 19.642 24.5185 20.6077 24.4032 20.8839C24.4009 20.8894 24.4091 20.893 24.413 20.8884C25.0977 20.08 24.7632 19.1873 24.6227 18.9613C24.5971 18.9203 24.7521 19.0445 24.8792 19.2073C25.3577 19.8166 25.1366 20.5009 25.19 20.4849C25.1913 20.4845 25.193 20.4849 25.1936 20.4832C25.5117 19.8592 25.4095 19.0678 24.7553 18.4961C24.7255 18.4709 24.8421 18.5089 24.8792 18.522C25.437 18.7156 25.7279 19.2902 25.724 19.8025C25.724 19.9152 26.1007 18.8401 25.19 18.2937C25.0197 18.1918 24.8448 18.1358 24.7304 18.122C24.6413 18.1125 25.2182 18.0257 25.6234 18.3002C25.8668 18.4644 25.9307 18.6629 25.9245 18.6072C25.8537 17.8875 25.0053 17.6031 24.491 17.819C24.4366 17.8462 24.6934 17.4656 25.19 17.495C25.2857 17.5006 25.3741 17.5213 25.4449 17.555C25.4498 17.5573 25.4544 17.5507 25.4508 17.5465C25.0757 17.1177 24.4585 17.1088 24.131 17.6048C24.1287 17.6081 24.1238 17.6081 24.1218 17.6048C23.9976 17.3824 23.8938 17.0977 23.8489 16.8291C23.8381 16.7603 23.8152 17.1616 23.5662 17.6048C23.5642 17.6081 23.5597 17.6081 23.5574 17.6048C23.2288 17.1075 22.6123 17.1173 22.2376 17.5465C22.2336 17.5507 22.2382 17.5573 22.2434 17.555C22.4937 17.4361 22.9664 17.4711 23.2033 17.8108C23.2062 17.8154 23.2019 17.8213 23.1967 17.819C22.6667 17.5963 21.834 17.8986 21.7635 18.6072C21.7632 18.6131 21.7711 18.6164 21.774 18.6111C21.7976 18.5669 21.8559 18.4725 21.965 18.3769C22.3889 18.0034 23.0555 18.1116 22.9576 18.122C22.6971 18.1541 22.1625 18.3861 21.965 18.9161C21.8035 19.3491 21.9591 19.9195 21.965 19.7783C21.9702 19.2964 22.2464 18.6511 22.9281 18.4866C22.9333 18.4853 22.9373 18.4925 22.933 18.4961C21.8736 19.4274 22.5144 20.571 22.5045 20.4806C22.4718 20.1114 22.4446 19.4523 23.0568 18.9547C23.0614 18.9511 23.0686 18.9561 23.0653 18.9613C22.9248 19.1873 22.5907 20.08 23.275 20.8884C23.2789 20.893 23.2871 20.8894 23.2848 20.8839C23.1698 20.6077 23.0159 19.642 23.5649 19.2964C23.5685 19.2941 23.5731 19.2961 23.5734 19.3C23.6334 20.0073 23.7582 21.447 23.502 22.9981C22.632 22.3331 21.7753 21.8971 20.672 21.9455C20.1171 21.9698 19.5907 22.1313 19.2078 22.3524C19.194 22.3603 19.2042 22.3802 19.2189 22.3757C20.8237 21.8627 22.2127 22.4851 23.504 23.5595C22.8518 24.1279 22.2598 24.7228 21.9159 24.9023C21.8356 24.7925 21.6964 24.7293 21.5441 24.7624C21.2571 24.8256 21.1886 25.185 21.3442 25.3396C21.908 25.902 22.7895 24.786 23.844 23.853C24.8588 24.75 25.781 25.9017 26.3438 25.3396C26.3886 25.2947 26.4407 25.1467 26.4139 25.029C26.3461 24.7355 25.9559 24.6507 25.7721 24.9023C25.4413 24.7355 24.8605 24.1485 24.184 23.5595C25.4845 22.4756 26.8584 21.8705 28.4688 22.3757C28.4838 22.3802 28.494 22.3603 28.4802 22.3524Z" fill="#727A82"/>
<path d="M23.3451 37.707H23.7634V33.9608H23.3451V37.707ZM12.384 37.2894L11.7304 35.6872C12.4066 35.1149 13.2455 35.2201 13.7853 35.6872L13.1318 37.2894H12.384ZM10.0778 37.2894C9.7489 37.2796 9.51763 37.3205 9.21232 37.2245C8.08185 36.8675 8.38912 35.2957 9.65423 35.2957H10.0778V37.2894ZM21.7082 37.2894C21.0343 37.2687 20.4273 37.4083 20.1184 36.872C20.1794 36.6041 20.146 36.3636 20.1551 35.1339H19.7368V36.5484C19.7368 37.5865 18.4841 37.519 18.1887 36.8956C18.0701 36.645 18.1425 36.5402 18.1209 35.1339H17.7022V36.5798C17.7022 37.0516 17.4071 37.2894 16.9963 37.2894H16.1858V35.1339H15.7675V37.2894H13.5711L14.3032 35.5411C13.8879 35.1781 13.3097 34.8365 12.7554 34.8365C12.1923 34.8365 11.6253 35.1634 11.2073 35.5411L11.9447 37.2894H10.4961V34.8732H9.82686C8.88081 34.8732 8.0956 35.4169 8.0956 36.3083C8.0956 37.8948 10.0418 37.6992 10.0778 37.707C10.0712 37.7585 10.1299 38.1168 9.88943 38.297C9.66471 38.4654 9.26343 38.4605 9.01348 38.4015C8.91062 38.3769 8.79302 38.3353 8.66068 38.2761L8.52998 38.678C8.79531 38.7756 9.04853 38.8555 9.32993 38.8555C10.1273 38.8555 10.4961 38.4579 10.4961 37.7853V37.707C17.3235 37.6641 17.1217 37.8053 17.5378 37.5767C17.6963 37.4899 17.8244 37.3732 17.922 37.2268C18.0232 37.3939 18.1608 37.5246 18.3351 37.6186C18.701 37.8148 19.2592 37.7965 19.5982 37.6288C19.7741 37.5419 19.9094 37.408 20.0035 37.2268C20.1649 37.5026 20.4156 37.6799 20.9187 37.7021V37.707H22.1265V33.9608H21.7082V37.2894ZM59.2455 37.1043C58.8754 37.9694 57.6011 37.9943 57.2322 37.0912C57.1238 36.8262 57.1238 36.512 57.2322 36.2431C57.6787 35.1365 59.332 35.4543 59.332 36.6686C59.332 36.8249 59.3032 36.9703 59.2455 37.1043ZM55.1875 37.1043C54.8674 37.8479 53.903 37.958 53.3989 37.4384C52.9852 37.0106 52.9973 36.3139 53.3966 35.8936C53.7219 35.548 54.2234 35.4923 54.607 35.6505C55.2117 35.9027 55.4132 36.5798 55.1875 37.1043ZM45.0135 37.2894C44.6935 37.2796 44.4615 37.3215 44.1582 37.2219C43.0565 36.8599 43.3193 35.2905 44.6001 35.2905H45.0135V37.2894ZM61.0574 37.2894H59.6196C60.0684 36.3044 59.3713 35.1496 58.2232 35.1496C57.1657 35.1496 56.4261 36.2333 56.8581 37.2894H55.5612C55.9986 36.3332 55.3359 35.1496 54.1651 35.1496C53.107 35.1496 52.368 36.2336 52.8001 37.2894H51.4717V33.9608H51.0534V37.2894H49.7202C49.6972 36.8606 49.8175 36.2261 49.4584 35.8254C49.215 35.5509 48.9441 35.4654 48.5746 35.4654H46.7235L47.511 33.9608H47.056L46.2527 35.4602C46.2786 35.6266 46.3291 35.7566 46.4411 35.8828C48.5334 35.9004 48.6699 35.8389 48.9173 35.943C49.1112 36.0233 49.2295 36.1697 49.2704 36.3476C49.3202 36.5618 49.295 36.723 49.3019 37.2894H45.4318V34.8732H44.7727C43.6642 34.8732 43.047 35.5326 43.047 36.2926C43.047 37.2448 43.8129 37.707 44.7727 37.707H53.072C53.6875 38.3701 54.7236 38.3137 55.2894 37.707H57.13C57.7436 38.3681 58.7787 38.316 59.3477 37.707H61.476V33.9608H61.0574V37.2894ZM62.6943 37.707H63.1126V33.9608H62.6943V37.707ZM31.8697 38.6262H32.2995V38.1974H31.8697V38.6262ZM35.9599 37.2894L35.306 35.6872C35.9769 35.1192 36.8145 35.2151 37.3612 35.6872L36.7077 37.2894H35.9599ZM38.9248 37.2894H37.147L37.8788 35.5411C37.4625 35.1762 36.8823 34.8365 36.331 34.8365C35.7659 34.8365 35.2005 35.165 34.7829 35.5411L35.5202 37.2894H33.9623V34.8732H33.5436V37.7958C33.5436 38.165 33.5168 38.4379 33.1463 38.4379C33.0601 38.4379 33.0146 38.4303 32.932 38.4064L32.8223 38.8087C33.1718 38.9044 33.5846 38.8723 33.7896 38.5709C33.9751 38.298 33.9531 37.9213 33.9623 37.707H39.3434V33.9608H38.9248V37.2894ZM7.16495 35.2384C6.69979 34.7307 6.16125 34.9148 5.9778 34.8732V35.2905C6.28311 35.3023 6.42429 35.2568 6.63132 35.3557C6.8056 35.4395 6.92877 35.5748 6.97921 35.7655C7.03588 35.9846 7.00411 36.1556 7.01328 37.2894H5.05206V37.707H7.4316C7.41424 36.1248 7.47484 35.9571 7.36609 35.6037C7.32252 35.4612 7.25536 35.3393 7.16495 35.2384ZM30.3402 38.6312H30.77V38.2023H30.3402V38.6312ZM27.7966 37.2894C27.4772 37.2796 27.2449 37.3215 26.9413 37.2219C25.8383 36.8596 26.104 35.2905 27.3832 35.2905H27.7966V37.2894ZM32.2939 34.8732H31.8756V37.2894H30.2963V34.8732H29.878V37.2894H28.2149V34.8732C27.6888 34.8895 26.9039 34.7667 26.3008 35.2774C25.4459 36.0017 25.6663 37.707 27.5561 37.707H32.2939V34.8732ZM29.6074 38.6312H30.0372V38.2023H29.6074V38.6312ZM1.65015 33.9608H1.22036V34.3896H1.65015V33.9608ZM44.6971 33.9608H44.2673V34.3896H44.6971V33.9608ZM28.2129 33.9608H27.7831V34.3896H28.2129V33.9608ZM4.11813 38.6312H4.54792V38.2023H4.11813V38.6312ZM27.4801 33.9608H27.0503V34.3896H27.4801V33.9608ZM2.38294 33.9608H1.95316V34.3896H2.38294V33.9608ZM3.38534 38.6312H3.81512V38.2023H3.38534V38.6312ZM1.96659 37.2894C1.64785 37.2796 1.41429 37.3215 1.11161 37.2219C0.0106108 36.8609 0.270709 35.2905 1.55351 35.2905H1.96659V37.2894ZM4.46635 34.8732H4.04803V37.2894H2.38491V34.8732C1.88338 34.8886 1.48472 34.823 1.01464 34.9799C0.620564 35.1123 0.298553 35.3557 0.122971 35.7291C-0.0598188 36.1176 -0.0267333 36.6123 0.141643 36.9294C0.444654 37.5013 1.07852 37.707 1.72582 37.707H4.46635V34.8732ZM40.5617 37.707H40.98V33.9608H40.5617V37.707ZM45.4295 33.9608H44.9997V34.3896H45.4295V33.9608Z" fill="white"/>
<path d="M0.409912 40.4509H0.935022V41.9505L2.35639 40.4509H3.00107L1.75889 41.7333L3.05643 43.4332H2.4206L1.40051 42.0911L0.935022 42.5683V43.4332H0.409912" fill="white"/>
<path d="M3.53537 40.4509H4.06048V43.4332H3.53537V40.4509Z" fill="white"/>
<path d="M4.86893 40.4509H5.35571L6.95659 42.513V40.4509H7.47286V43.4332H7.03325L5.38552 41.3114V43.4332H4.86893" fill="white"/>
<path d="M8.12311 41.9505V41.942C8.12311 41.107 8.76353 40.3994 9.66404 40.3994C10.1849 40.3994 10.5053 40.5445 10.8125 40.8043L10.4797 41.2007C9.67059 40.5134 8.6741 41.0084 8.6741 41.9335V41.942C8.6741 42.5555 9.07931 43.0069 9.68959 43.0069C9.97164 43.0069 10.2278 42.9175 10.4113 42.7812V42.223H9.64701V41.7674H10.9193V43.0197C9.85076 43.9327 8.12311 43.4636 8.12311 41.9505Z" fill="white"/>
<path d="M12.7587 42.9559C14.1522 42.9559 14.1355 40.9278 12.7587 40.9278H12.1697V42.9559H12.7587ZM11.6446 40.4509H12.7587C14.8906 40.4509 14.8618 43.4332 12.7587 43.4332H11.6446V40.4509Z" fill="white"/>
<path d="M17.4126 41.9505V41.942C17.4126 41.3625 16.99 40.8813 16.3965 40.8813C15.8032 40.8813 15.3892 41.354 15.3892 41.9335V41.942C15.3892 42.5215 15.8117 43.003 16.405 43.003C16.9986 43.003 17.4126 42.53 17.4126 41.9505ZM14.8385 41.9505V41.942C14.8385 41.1027 15.4874 40.3994 16.405 40.3994C17.3229 40.3994 17.9633 41.0942 17.9633 41.9335V41.942C17.9633 42.7812 17.3147 43.4842 16.3965 43.4842C15.4789 43.4842 14.8385 42.7898 14.8385 41.9505Z" fill="white"/>
<path d="M18.6155 40.4509H19.1747L20.084 41.8611L20.9931 40.4509H21.5523V43.4332H21.0272V41.2944L20.084 42.7004H20.067L19.1321 41.3029V43.4332H18.6155" fill="white"/>
<path d="M26.0446 41.9505V41.942C26.0446 41.3625 25.6221 40.8813 25.0285 40.8813C24.4352 40.8813 24.0212 41.354 24.0212 41.9335V41.942C24.0212 42.5215 24.4438 43.003 25.037 43.003C25.6306 43.003 26.0446 42.53 26.0446 41.9505ZM23.4705 41.9505V41.942C23.4705 41.1027 24.1195 40.3994 25.037 40.3994C25.9549 40.3994 26.5953 41.0942 26.5953 41.9335V41.942C26.5953 42.7812 25.9464 43.4842 25.0285 43.4842C24.1109 43.4842 23.4705 42.7898 23.4705 41.9505Z" fill="white"/>
<path d="M27.2479 40.4509H29.4718V40.9282H27.773V41.7419H29.2798V42.2188H27.773V43.4332H27.2479" fill="white"/>
<path d="M31.129 42.9988L31.4448 42.6237C31.7308 42.871 32.0168 43.0115 32.3882 43.0115C32.7125 43.0115 32.9176 42.8625 32.9176 42.6365V42.6283C32.9176 41.962 31.2483 42.4166 31.2483 41.2816V41.2731C31.2483 40.3578 32.5294 40.1242 33.353 40.7833L33.0712 41.1794C32.384 40.668 31.7737 40.8692 31.7737 41.2266V41.2351C31.7737 41.8919 33.4427 41.4765 33.4427 42.5768V42.5854C33.4427 43.631 31.9601 43.7388 31.129 42.9988Z" fill="white"/>
<path d="M35.8033 42.2489L35.2867 41.0559L34.7744 42.2489H35.8033ZM35.0518 40.4295H35.5383L36.8532 43.4331H36.2983L35.9952 42.7131H34.5821L34.2751 43.4331H33.7369L35.0518 40.4295Z" fill="white"/>
<path d="M37.162 42.168V40.4509H37.6872V42.1467C37.6872 42.7007 37.9731 42.9988 38.4426 42.9988C38.908 42.9988 39.194 42.7177 39.194 42.168V40.4509H39.7191V42.1425C39.7191 43.0328 39.2153 43.4803 38.434 43.4803C37.657 43.4803 37.162 43.0328 37.162 42.168Z" fill="white"/>
<path d="M41.6017 42.9559C42.9953 42.9559 42.9789 40.9278 41.6017 40.9278H41.0127V42.9559H41.6017ZM40.4876 40.4509H41.6017C43.7336 40.4509 43.7048 43.4332 41.6017 43.4332H40.4876V40.4509Z" fill="white"/>
<path d="M43.8549 40.4509H44.38V43.4332H43.8549V40.4509Z" fill="white"/>
<path d="M48.2696 42.2489L47.753 41.0559L47.2407 42.2489H48.2696ZM47.5181 40.4295H48.0046L49.3195 43.4331H48.7646L48.4616 42.7131H47.0484L46.7415 43.4331H46.2032L47.5181 40.4295Z" fill="white"/>
<path d="M51.1091 41.9292C51.4849 41.9292 51.724 41.7333 51.724 41.4307V41.4221C51.724 41.1027 51.4934 40.9278 51.1049 40.9278H50.341V41.9292H51.1091ZM49.8159 40.4509H51.1475C51.779 40.4509 52.2576 40.7683 52.2576 41.3923C52.2455 41.4251 52.3199 42.0829 51.5445 42.3043L52.3513 43.4332H51.7322L50.9981 42.3934C50.9408 42.3934 50.3072 42.3934 50.341 42.3934V43.4332H49.8159V40.4509Z" fill="white"/>
<path d="M54.8039 42.2489L54.2873 41.0559L53.7749 42.2489H54.8039ZM54.0524 40.4295H54.5392L55.8538 43.4331H55.2988L54.9958 42.7131H53.5826L53.2757 43.4331H52.7375L54.0524 40.4295Z" fill="white"/>
<path d="M57.737 42.969C58.0957 42.969 58.3132 42.8281 58.3132 42.5598V42.5513C58.3132 42.3001 58.1128 42.1507 57.6987 42.1507H56.8663V42.969H57.737ZM57.5834 41.7078C57.9205 41.7078 58.1468 41.5758 58.1468 41.3029V41.2944C58.1468 41.0602 57.9591 40.9154 57.6217 40.9154H56.8663V41.7078H57.5834ZM56.3497 40.4509H57.6902C58.2156 40.4509 58.6719 40.6966 58.6719 41.2092C58.6598 41.242 58.7257 41.6331 58.2451 41.8824C58.5953 42.0016 58.8384 42.2021 58.8384 42.6067V42.6152C58.8384 43.1478 58.3987 43.4332 57.7328 43.4332H56.3497V40.4509Z" fill="white"/>
<path d="M59.4886 40.4509H60.0137V43.4332H59.4886V40.4509Z" fill="white"/>
<path d="M62.5813 42.2489L62.0647 41.0559L61.5524 42.2489H62.5813ZM61.8298 40.4295H62.3163L63.6312 43.4331H63.0763L62.7733 42.7131H61.3601L61.0531 43.4331H60.5149L61.8298 40.4295Z" fill="white"/>
</g>
<defs>
<clipPath id="clip0_2103_235">
<rect width="65" height="43.4842" fill="white"/>
</clipPath>
</defs>
</svg>
